<svg width="33" height="33" viewBox="0 0 33 33" fill="none" xmlns="http://www.w3.org/2000/svg">
<path d="M26.0452 7.63958C24.2418 6.79574 22.3339 6.196 20.372 5.8562C20.1272 6.29758 19.8426 6.89295 19.6446 7.36458C17.5607 7.04695 15.4407 7.04695 13.3567 7.36458C13.1382 6.84921 12.8927 6.34572 12.6211 5.8562C10.6575 6.19656 8.74816 6.79771 6.94374 7.6437C3.35361 13.0695 2.38011 18.3605 2.86686 23.5758C4.96258 25.1582 7.31719 26.3646 9.82574 27.1412C10.3894 26.3656 10.8879 25.5446 11.3162 24.6868C10.5015 24.3763 9.71605 23.9939 8.96911 23.5442C9.16574 23.3985 9.35824 23.2458 9.54386 23.0891C14.069 25.2052 18.9846 25.2052 23.4561 23.0891C23.6445 23.2458 23.837 23.3985 24.0309 23.5442C23.287 23.9925 22.4991 24.3775 21.6796 24.6882C22.1072 25.5464 22.6058 26.3674 23.1701 27.1426C25.6807 26.3664 28.0369 25.159 30.1331 23.5745C30.7037 17.53 29.1582 12.2871 26.0452 7.63958ZM11.9322 20.368C10.5737 20.368 9.45999 19.1002 9.45999 17.5561C9.45999 16.012 10.5504 14.7415 11.9322 14.7415C13.3141 14.7415 14.4279 16.0092 14.4045 17.5561C14.4059 19.1002 13.3141 20.368 11.9322 20.368ZM21.0677 20.368C19.7092 20.368 18.5955 19.1002 18.5955 17.5561C18.5955 16.012 19.6859 14.7415 21.0677 14.7415C22.4496 14.7415 23.5634 16.0092 23.54 17.5561C23.54 19.1002 22.4496 20.368 21.0677 20.368Z" fill="white"/>
</svg>
