<svg width="15" height="13" viewBox="0 0 15 13" fill="none" xmlns="http://www.w3.org/2000/svg">
<path d="M5.72363 0.606445L5.30859 0.65625C5.30859 0.65625 3.44714 0.859619 2.08789 1.95117H2.07129L2.05469 1.96777C1.74963 2.24792 1.61682 2.59241 1.40723 3.09668C1.19763 3.60095 0.973511 4.24426 0.776367 4.95605C0.38208 6.38171 0.0625 8.10828 0.0625 9.6875V9.82031L0.128906 9.95312C0.620727 10.8164 1.49439 11.3663 2.30371 11.7461C3.11304 12.1259 3.81238 12.3271 4.2959 12.3438L4.61133 12.3604L4.77734 12.0781L5.3584 11.0488C5.97473 11.1879 6.68445 11.2812 7.5 11.2812C8.31555 11.2812 9.02527 11.1879 9.6416 11.0488L10.2227 12.0781L10.3887 12.3604L10.7041 12.3438C11.1876 12.3271 11.887 12.1259 12.6963 11.7461C13.5056 11.3663 14.3793 10.8164 14.8711 9.95312L14.9375 9.82031V9.6875C14.9375 8.10828 14.6179 6.38171 14.2236 4.95605C14.0265 4.24426 13.8024 3.60095 13.5928 3.09668C13.3832 2.59241 13.2504 2.24792 12.9453 1.96777L12.9287 1.95117H12.9121C11.5529 0.859619 9.69141 0.65625 9.69141 0.65625L9.27637 0.606445L9.12695 0.988281C9.12695 0.988281 8.97339 1.37634 8.87793 1.81836C8.27612 1.73743 7.7843 1.71875 7.5 1.71875C7.2157 1.71875 6.72388 1.73743 6.12207 1.81836C6.02661 1.37634 5.87305 0.988281 5.87305 0.988281L5.72363 0.606445ZM4.99316 1.81836C5.01599 1.89307 5.03882 1.9574 5.05957 2.01758C4.37268 2.18774 3.64014 2.44714 2.96777 2.86426L3.53223 3.76074C4.91016 2.90576 6.88989 2.78125 7.5 2.78125C8.11011 2.78125 10.0898 2.90576 11.4678 3.76074L12.0322 2.86426C11.3599 2.44714 10.6273 2.18774 9.94043 2.01758C9.96118 1.9574 9.98401 1.89307 10.0068 1.81836C10.5028 1.91797 11.4491 2.14624 12.2314 2.76465C12.2273 2.76672 12.4307 3.07385 12.6133 3.51172C12.8 3.96204 13.0076 4.56177 13.1943 5.23828C13.5533 6.53528 13.8356 8.1145 13.8584 9.50488C13.5243 10.0154 12.9038 10.4761 12.248 10.7832C11.6753 11.0509 11.2229 11.1484 10.9531 11.1982L10.6875 10.75C10.8452 10.6919 11.0009 10.6276 11.1357 10.5674C11.9534 10.2084 12.3975 9.82031 12.3975 9.82031L11.7002 9.02344C11.7002 9.02344 11.4014 9.29736 10.7041 9.60449C10.0068 9.91162 8.94226 10.2188 7.5 10.2188C6.05774 10.2188 4.99316 9.91162 4.2959 9.60449C3.59863 9.29736 3.2998 9.02344 3.2998 9.02344L2.60254 9.82031C2.60254 9.82031 3.04663 10.2084 3.86426 10.5674C3.99915 10.6276 4.15479 10.6919 4.3125 10.75L4.04688 11.1982C3.7771 11.1484 3.32471 11.0509 2.75195 10.7832C2.09619 10.4761 1.47571 10.0154 1.1416 9.50488C1.16443 8.1145 1.44666 6.53528 1.80566 5.23828C1.99243 4.56177 2.19995 3.96204 2.38672 3.51172C2.56934 3.07385 2.77271 2.76672 2.76855 2.76465C3.5509 2.14624 4.49719 1.91797 4.99316 1.81836ZM5.64062 5.4375C5.22974 5.4375 4.86658 5.672 4.64453 5.96875C4.42249 6.2655 4.3125 6.63074 4.3125 7.03125C4.3125 7.43176 4.42249 7.797 4.64453 8.09375C4.86658 8.3905 5.22974 8.625 5.64062 8.625C6.05151 8.625 6.41467 8.3905 6.63672 8.09375C6.85876 7.797 6.96875 7.43176 6.96875 7.03125C6.96875 6.63074 6.85876 6.2655 6.63672 5.96875C6.41467 5.672 6.05151 5.4375 5.64062 5.4375ZM9.35938 5.4375C8.94849 5.4375 8.58533 5.672 8.36328 5.96875C8.14124 6.2655 8.03125 6.63074 8.03125 7.03125C8.03125 7.43176 8.14124 7.797 8.36328 8.09375C8.58533 8.3905 8.94849 8.625 9.35938 8.625C9.77026 8.625 10.1334 8.3905 10.3555 8.09375C10.5775 7.797 10.6875 7.43176 10.6875 7.03125C10.6875 6.63074 10.5775 6.2655 10.3555 5.96875C10.1334 5.672 9.77026 5.4375 9.35938 5.4375ZM5.64062 6.5C5.66968 6.5 5.70703 6.51038 5.77344 6.59961C5.83984 6.68884 5.90625 6.84448 5.90625 7.03125C5.90625 7.21802 5.83984 7.37366 5.77344 7.46289C5.70703 7.55212 5.66968 7.5625 5.64062 7.5625C5.61157 7.5625 5.57422 7.55212 5.50781 7.46289C5.44141 7.37366 5.375 7.21802 5.375 7.03125C5.375 6.84448 5.44141 6.68884 5.50781 6.59961C5.57422 6.51038 5.61157 6.5 5.64062 6.5ZM9.35938 6.5C9.38843 6.5 9.42578 6.51038 9.49219 6.59961C9.55859 6.68884 9.625 6.84448 9.625 7.03125C9.625 7.21802 9.55859 7.37366 9.49219 7.46289C9.42578 7.55212 9.38843 7.5625 9.35938 7.5625C9.33032 7.5625 9.29297 7.55212 9.22656 7.46289C9.16016 7.37366 9.09375 7.21802 9.09375 7.03125C9.09375 6.84448 9.16016 6.68884 9.22656 6.59961C9.29297 6.51038 9.33032 6.5 9.35938 6.5Z" fill="white"/>
</svg>
