<svg width="23" height="23" viewBox="0 0 23 23" fill="none" xmlns="http://www.w3.org/2000/svg">
<g filter="url(#filter0_d_44_34)">
<path d="M9.72363 2.60645L9.30859 2.65625C9.30859 2.65625 7.44714 2.85962 6.08789 3.95117H6.07129L6.05469 3.96777C5.74963 4.24792 5.61682 4.59241 5.40723 5.09668C5.19763 5.60095 4.97351 6.24426 4.77637 6.95605C4.38208 8.38171 4.0625 10.1083 4.0625 11.6875V11.8203L4.12891 11.9531C4.62073 12.8164 5.49439 13.3663 6.30371 13.7461C7.11304 14.1259 7.81238 14.3271 8.2959 14.3438L8.61133 14.3604L8.77734 14.0781L9.3584 13.0488C9.97473 13.1879 10.6844 13.2812 11.5 13.2812C12.3156 13.2812 13.0253 13.1879 13.6416 13.0488L14.2227 14.0781L14.3887 14.3604L14.7041 14.3438C15.1876 14.3271 15.887 14.1259 16.6963 13.7461C17.5056 13.3663 18.3793 12.8164 18.8711 11.9531L18.9375 11.8203V11.6875C18.9375 10.1083 18.6179 8.38171 18.2236 6.95605C18.0265 6.24426 17.8024 5.60095 17.5928 5.09668C17.3832 4.59241 17.2504 4.24792 16.9453 3.96777L16.9287 3.95117H16.9121C15.5529 2.85962 13.6914 2.65625 13.6914 2.65625L13.2764 2.60645L13.127 2.98828C13.127 2.98828 12.9734 3.37634 12.8779 3.81836C12.2761 3.73743 11.7843 3.71875 11.5 3.71875C11.2157 3.71875 10.7239 3.73743 10.1221 3.81836C10.0266 3.37634 9.87305 2.98828 9.87305 2.98828L9.72363 2.60645ZM8.99316 3.81836C9.01599 3.89307 9.03882 3.9574 9.05957 4.01758C8.37268 4.18774 7.64014 4.44714 6.96777 4.86426L7.53223 5.76074C8.91016 4.90576 10.8899 4.78125 11.5 4.78125C12.1101 4.78125 14.0898 4.90576 15.4678 5.76074L16.0322 4.86426C15.3599 4.44714 14.6273 4.18774 13.9404 4.01758C13.9612 3.9574 13.984 3.89307 14.0068 3.81836C14.5028 3.91797 15.4491 4.14624 16.2314 4.76465C16.2273 4.76672 16.4307 5.07385 16.6133 5.51172C16.8 5.96204 17.0076 6.56177 17.1943 7.23828C17.5533 8.53528 17.8356 10.1145 17.8584 11.5049C17.5243 12.0154 16.9038 12.4761 16.248 12.7832C15.6753 13.0509 15.2229 13.1484 14.9531 13.1982L14.6875 12.75C14.8452 12.6919 15.0009 12.6276 15.1357 12.5674C15.9534 12.2084 16.3975 11.8203 16.3975 11.8203L15.7002 11.0234C15.7002 11.0234 15.4014 11.2974 14.7041 11.6045C14.0068 11.9116 12.9423 12.2188 11.5 12.2188C10.0577 12.2188 8.99316 11.9116 8.2959 11.6045C7.59863 11.2974 7.2998 11.0234 7.2998 11.0234L6.60254 11.8203C6.60254 11.8203 7.04663 12.2084 7.86426 12.5674C7.99915 12.6276 8.15479 12.6919 8.3125 12.75L8.04688 13.1982C7.7771 13.1484 7.32471 13.0509 6.75195 12.7832C6.09619 12.4761 5.47571 12.0154 5.1416 11.5049C5.16443 10.1145 5.44666 8.53528 5.80566 7.23828C5.99243 6.56177 6.19995 5.96204 6.38672 5.51172C6.56934 5.07385 6.77271 4.76672 6.76855 4.76465C7.5509 4.14624 8.49719 3.91797 8.99316 3.81836ZM9.64062 7.4375C9.22974 7.4375 8.86658 7.672 8.64453 7.96875C8.42249 8.2655 8.3125 8.63074 8.3125 9.03125C8.3125 9.43176 8.42249 9.797 8.64453 10.0938C8.86658 10.3905 9.22974 10.625 9.64062 10.625C10.0515 10.625 10.4147 10.3905 10.6367 10.0938C10.8588 9.797 10.9688 9.43176 10.9688 9.03125C10.9688 8.63074 10.8588 8.2655 10.6367 7.96875C10.4147 7.672 10.0515 7.4375 9.64062 7.4375ZM13.3594 7.4375C12.9485 7.4375 12.5853 7.672 12.3633 7.96875C12.1412 8.2655 12.0312 8.63074 12.0312 9.03125C12.0312 9.43176 12.1412 9.797 12.3633 10.0938C12.5853 10.3905 12.9485 10.625 13.3594 10.625C13.7703 10.625 14.1334 10.3905 14.3555 10.0938C14.5775 9.797 14.6875 9.43176 14.6875 9.03125C14.6875 8.63074 14.5775 8.2655 14.3555 7.96875C14.1334 7.672 13.7703 7.4375 13.3594 7.4375ZM9.64062 8.5C9.66968 8.5 9.70703 8.51038 9.77344 8.59961C9.83984 8.68884 9.90625 8.84448 9.90625 9.03125C9.90625 9.21802 9.83984 9.37366 9.77344 9.46289C9.70703 9.55212 9.66968 9.5625 9.64062 9.5625C9.61157 9.5625 9.57422 9.55212 9.50781 9.46289C9.44141 9.37366 9.375 9.21802 9.375 9.03125C9.375 8.84448 9.44141 8.68884 9.50781 8.59961C9.57422 8.51038 9.61157 8.5 9.64062 8.5ZM13.3594 8.5C13.3884 8.5 13.4258 8.51038 13.4922 8.59961C13.5586 8.68884 13.625 8.84448 13.625 9.03125C13.625 9.21802 13.5586 9.37366 13.4922 9.46289C13.4258 9.55212 13.3884 9.5625 13.3594 9.5625C13.3303 9.5625 13.293 9.55212 13.2266 9.46289C13.1602 9.37366 13.0938 9.21802 13.0938 9.03125C13.0938 8.84448 13.1602 8.68884 13.2266 8.59961C13.293 8.51038 13.3303 8.5 13.3594 8.5Z" fill="white"/>
</g>
<defs>
<filter id="filter0_d_44_34" x="-1" y="0" width="25" height="25" filterUnits="userSpaceOnUse" color-interpolation-filters="sRGB">
<feFlood flood-opacity="0" result="BackgroundImageFix"/>
<feColorMatrix in="SourceAlpha" type="matrix" values="0 0 0 0 0 0 0 0 0 0 0 0 0 0 0 0 0 0 127 0" result="hardAlpha"/>
<feOffset dy="4"/>
<feGaussianBlur stdDeviation="2"/>
<feComposite in2="hardAlpha" operator="out"/>
<feColorMatrix type="matrix" values="0 0 0 0 0 0 0 0 0 0 0 0 0 0 0 0 0 0 0.25 0"/>
<feBlend mode="normal" in2="BackgroundImageFix" result="effect1_dropShadow_44_34"/>
<feBlend mode="normal" in="SourceGraphic" in2="effect1_dropShadow_44_34" result="shape"/>
</filter>
</defs>
</svg>
