<svg width="57" height="17" viewBox="0 0 57 17" fill="none" xmlns="http://www.w3.org/2000/svg">
<path d="M0 15L57 15" stroke="#727375"/>
<path d="M4.108 12.104C4.771 12.104 5.447 11.961 6.032 11.662C6.903 11.246 7.553 10.453 7.553 9.413C7.553 8.919 7.41 8.451 7.098 8.035C6.786 7.606 6.357 7.294 5.785 7.112C6.24 6.943 6.63 6.67 6.916 6.254C7.202 5.851 7.345 5.435 7.345 4.993C7.345 4.473 7.189 4.005 6.877 3.602C6.552 3.199 6.149 2.9 5.655 2.692C5.174 2.484 4.654 2.38 4.108 2.38C3.328 2.38 2.522 2.64 1.911 3.082C1.287 3.511 0.871 4.213 0.871 4.993C0.871 5.461 1.014 5.89 1.3 6.28C1.586 6.67 1.963 6.956 2.431 7.112C1.872 7.294 1.443 7.606 1.131 8.035C0.819 8.451 0.663 8.919 0.663 9.413C0.663 10.271 1.105 11.012 1.755 11.441C2.418 11.87 3.237 12.104 4.108 12.104ZM2.34 5.11C2.34 4.681 2.509 4.343 2.834 4.07C3.159 3.81 3.588 3.68 4.095 3.68C4.589 3.68 5.005 3.81 5.343 4.083C5.694 4.356 5.863 4.694 5.863 5.11C5.863 5.513 5.707 5.864 5.382 6.124C5.044 6.397 4.615 6.527 4.108 6.527C3.627 6.527 3.211 6.397 2.86 6.124C2.522 5.851 2.34 5.513 2.34 5.11ZM2.145 9.27C2.145 8.815 2.34 8.451 2.717 8.165C3.081 7.866 3.549 7.723 4.095 7.723C4.641 7.723 5.109 7.879 5.499 8.165C5.876 8.464 6.071 8.828 6.071 9.27C6.071 9.725 5.876 10.102 5.512 10.388C5.135 10.674 4.667 10.817 4.108 10.817C3.562 10.817 3.094 10.674 2.717 10.375C2.34 10.063 2.145 9.699 2.145 9.27ZM15.9111 5.513C15.8071 5.5 15.6901 5.487 15.5601 5.487C14.8581 5.487 14.1691 5.851 13.7921 6.54V5.539H12.3751V12H13.8181V8.711C13.8181 7.593 14.4161 6.956 15.5081 6.956C15.6641 6.956 15.7941 6.969 15.9111 6.995V5.513ZM22.7724 9.192C22.7854 9.062 22.7984 8.906 22.7984 8.75C22.7984 7.749 22.5124 6.943 21.9534 6.332C21.3944 5.708 20.6274 5.409 19.6394 5.409C19.0284 5.409 18.4694 5.565 17.9754 5.864C17.4684 6.163 17.0914 6.566 16.8054 7.086C16.5324 7.593 16.3894 8.152 16.3894 8.763C16.3504 10.635 17.9104 12.156 19.7694 12.117C20.2114 12.117 20.6144 12.039 21.0174 11.896C21.7974 11.597 22.4474 10.96 22.6814 10.167L21.4724 9.79C21.2254 10.531 20.5884 10.882 19.7564 10.882C18.8204 10.895 17.8844 10.154 17.8584 9.192H22.7724ZM19.6524 6.644C20.1074 6.644 20.4974 6.774 20.8224 7.034C21.1344 7.307 21.3034 7.658 21.3294 8.1H17.9364C18.0014 7.658 18.1964 7.307 18.5084 7.047C18.8204 6.774 19.2104 6.644 19.6524 6.644ZM27.131 12L29.835 5.539H28.314L26.416 10.323L24.518 5.539H22.958L25.688 12H27.131ZM31.0638 4.109C31.2458 4.291 31.4668 4.395 31.7268 4.395C31.9998 4.395 32.2208 4.291 32.4028 4.109C32.5848 3.927 32.6758 3.706 32.6758 3.446C32.6758 3.173 32.5848 2.952 32.4028 2.77C32.2208 2.575 31.9998 2.484 31.7268 2.484C31.4668 2.484 31.2458 2.575 31.0638 2.77C30.8818 2.952 30.7778 3.173 30.7778 3.446C30.7778 3.706 30.8818 3.927 31.0638 4.109ZM31.0118 12H32.4548V5.539H31.0118V12ZM40.3301 9.192C40.3431 9.062 40.3561 8.906 40.3561 8.75C40.3561 7.749 40.0701 6.943 39.5111 6.332C38.9521 5.708 38.1851 5.409 37.1971 5.409C36.5861 5.409 36.0271 5.565 35.5331 5.864C35.0261 6.163 34.6491 6.566 34.3631 7.086C34.0901 7.593 33.9471 8.152 33.9471 8.763C33.9081 10.635 35.4681 12.156 37.3271 12.117C37.7691 12.117 38.1721 12.039 38.5751 11.896C39.3551 11.597 40.0051 10.96 40.2391 10.167L39.0301 9.79C38.7831 10.531 38.1461 10.882 37.3141 10.882C36.3781 10.895 35.4421 10.154 35.4161 9.192H40.3301ZM37.2101 6.644C37.6651 6.644 38.0551 6.774 38.3801 7.034C38.6921 7.307 38.8611 7.658 38.8871 8.1H35.4941C35.5591 7.658 35.7541 7.307 36.0661 7.047C36.3781 6.774 36.7681 6.644 37.2101 6.644ZM48.0124 10.115L46.5304 5.539H45.0874L43.6184 10.102H43.6054L42.2404 5.539H40.7454L42.8124 12H44.2814L45.7894 7.463H45.8154L47.3104 12H48.7924L50.8724 5.539H49.3904L48.0254 10.115H48.0124ZM53.8366 12.117C55.4486 12.117 56.2026 11.09 56.2026 10.102C56.2026 9.634 56.0336 9.218 55.7216 8.867C55.3966 8.516 54.9416 8.282 54.3696 8.152L53.4856 7.97C53.0956 7.892 52.8356 7.658 52.8356 7.294C52.8356 7.086 52.9136 6.904 53.0956 6.774C53.2776 6.631 53.4856 6.566 53.7196 6.566C54.4086 6.566 54.7726 6.969 54.8896 7.463L56.0986 7.125C56.0596 6.852 55.9556 6.579 55.7086 6.254C55.3576 5.786 54.7206 5.409 53.7196 5.396C53.0696 5.396 52.5236 5.604 52.0946 5.994C51.6526 6.397 51.4316 6.865 51.4316 7.424C51.4316 8.295 52.0036 9.01 53.1476 9.27L53.9666 9.465C54.5126 9.595 54.7336 9.829 54.7336 10.18C54.7336 10.635 54.4086 10.934 53.8236 10.934C53.1086 10.934 52.6536 10.505 52.5236 9.907L51.2886 10.232C51.3146 10.544 51.4446 10.856 51.7176 11.207C52.0946 11.701 52.7966 12.104 53.8366 12.117Z" fill="#727375"/>
</svg>
