<svg width="24" height="24" viewBox="0 0 24 24" fill="none" xmlns="http://www.w3.org/2000/svg">
<path d="M10.9219 0.0468788C8.60626 0.271879 6.46876 1.125 4.59376 2.56875C3.6797 3.27188 2.49376 4.59375 1.80939 5.67188C1.51407 6.13594 0.937512 7.31719 0.731262 7.87969C0.501575 8.50782 0.253137 9.47344 0.131262 10.2188C-0.0140503 11.1328 -0.0140503 12.8672 0.131262 13.7813C0.3422 15.075 0.675012 16.1156 1.2422 17.2734C1.86095 18.5344 2.50314 19.4297 3.53439 20.4656C4.57032 21.4969 5.46564 22.1391 6.72657 22.7578C7.88439 23.325 8.92501 23.6578 10.2188 23.8688C11.1328 24.0141 12.8672 24.0141 13.7813 23.8688C15.075 23.6578 16.1156 23.325 17.2735 22.7578C18.5344 22.1391 19.4297 21.4969 20.4656 20.4656C21.4969 19.4297 22.1391 18.5344 22.7578 17.2734C23.1703 16.4344 23.3766 15.8859 23.6016 15.0422C23.8969 13.9172 23.9672 13.3031 23.9672 12C23.9672 10.6969 23.8969 10.0828 23.6016 8.95782C23.3766 8.11407 23.1703 7.56563 22.7578 6.72657C22.1391 5.46563 21.4969 4.57032 20.4656 3.53438C19.4297 2.50313 18.5344 1.86094 17.2735 1.24219C16.1203 0.675005 15.0516 0.337505 13.8047 0.140629C13.1156 0.0328178 11.5781 -0.0187454 10.9219 0.0468788ZM13.1156 1.92657C15.4031 2.175 17.4938 3.19219 19.1531 4.84688C21.0984 6.79219 22.125 9.26719 22.125 12C22.125 14.7328 21.0984 17.2078 19.1531 19.1531C17.2078 21.0984 14.7328 22.125 12 22.125C9.2672 22.125 6.7922 21.0984 4.84689 19.1531C2.90157 17.2078 1.87501 14.7328 1.87501 12C1.87501 9.26719 2.90157 6.79219 4.84689 4.84688C6.48282 3.21094 8.59689 2.17969 10.8281 1.92657C11.3438 1.87032 12.5906 1.86563 13.1156 1.92657Z" fill="#00729E"/>
<path d="M11.7891 6.37031C11.475 6.45 11.1938 6.71719 11.1141 7.01719C11.0813 7.12969 11.0625 7.90781 11.0625 9.07969V10.9688H9.23438C8.05782 10.9688 7.32188 10.9875 7.16251 11.0203C6.85782 11.0859 6.55782 11.3625 6.46876 11.6578C6.34219 12.075 6.55313 12.5531 6.94688 12.7453C7.14844 12.8391 7.20938 12.8438 9.10782 12.8438H11.0578L11.0719 14.8219C11.0859 16.7297 11.0906 16.8141 11.1844 16.9922C11.2359 17.0953 11.3719 17.2406 11.4797 17.3203C11.6531 17.4422 11.7188 17.4609 12 17.4609C12.2813 17.4609 12.3469 17.4422 12.5203 17.3203C12.6281 17.2406 12.7641 17.0953 12.8156 16.9922C12.9094 16.8141 12.9141 16.7297 12.9281 14.8219L12.9422 12.8438H14.8922C16.7906 12.8438 16.8516 12.8391 17.0531 12.7453C17.4469 12.5531 17.6578 12.075 17.5313 11.6578C17.4422 11.3625 17.1422 11.0859 16.8375 11.0203C16.6781 10.9875 15.9422 10.9688 14.7656 10.9688H12.9375V9.07969C12.9375 7.90781 12.9188 7.12969 12.8859 7.01719C12.8344 6.81563 12.6094 6.54375 12.4266 6.45C12.2625 6.36563 11.9625 6.32813 11.7891 6.37031Z" fill="#00729E"/>
</svg>
