<svg width="24" height="24" viewBox="0 0 24 24" fill="none" xmlns="http://www.w3.org/2000/svg">
<path d="M10.9218 0.0468636C8.6062 0.271864 6.4687 1.12499 4.5937 2.56874C3.67964 3.27186 2.4937 4.59374 1.80933 5.67186C1.51401 6.13593 0.937451 7.31718 0.731201 7.87968C0.501514 8.5078 0.253076 9.47343 0.131201 10.2187C-0.0141113 11.1328 -0.0141113 12.8672 0.131201 13.7812C0.342139 15.075 0.674951 16.1156 1.24214 17.2734C1.86089 18.5344 2.50308 19.4297 3.53433 20.4656C4.57026 21.4969 5.46558 22.1391 6.72651 22.7578C7.88433 23.325 8.92495 23.6578 10.2187 23.8687C11.1328 24.0141 12.8671 24.0141 13.7812 23.8687C15.075 23.6578 16.1156 23.325 17.2734 22.7578C18.5343 22.1391 19.4296 21.4969 20.4656 20.4656C21.4968 19.4297 22.139 18.5344 22.7578 17.2734C23.1703 16.4344 23.3765 15.8859 23.6015 15.0422C23.8968 13.9172 23.9671 13.3031 23.9671 12C23.9671 10.6969 23.8968 10.0828 23.6015 8.9578C23.3765 8.11405 23.1703 7.56561 22.7578 6.72655C22.139 5.46561 21.4968 4.5703 20.4656 3.53436C19.4296 2.50311 18.5343 1.86093 17.2734 1.24218C16.1203 0.67499 15.0515 0.33749 13.8046 0.140614C13.1156 0.0328026 11.5781 -0.0187607 10.9218 0.0468636ZM13.1156 1.92655C15.4031 2.17499 17.4937 3.19218 19.1531 4.84686C21.0984 6.79218 22.125 9.26718 22.125 12C22.125 14.7328 21.0984 17.2078 19.1531 19.1531C17.2078 21.0984 14.7328 22.125 12 22.125C9.26714 22.125 6.79214 21.0984 4.84683 19.1531C2.90151 17.2078 1.87495 14.7328 1.87495 12C1.87495 9.26718 2.90151 6.79218 4.84683 4.84686C6.48276 3.21093 8.59683 2.17968 10.8281 1.92655C11.3437 1.8703 12.5906 1.86561 13.1156 1.92655Z" fill="#00729E"/>
<path d="M7.10152 11.0391C6.82496 11.1141 6.5484 11.3812 6.46402 11.6625C6.34215 12.075 6.55308 12.5531 6.94683 12.7453L7.15308 12.8438H12H16.8468L17.0531 12.7453C17.4468 12.5531 17.6578 12.075 17.5312 11.6578C17.4421 11.3625 17.1421 11.0859 16.8375 11.0203C16.4484 10.9406 7.41558 10.9547 7.10152 11.0391Z" fill="#00729E"/>
</svg>
