<svg width="13" height="90" viewBox="0 0 13 90" fill="none" xmlns="http://www.w3.org/2000/svg">
<path d="M0.863999 80.08L12 80.08L12 81.184L10.912 81.232C11.3173 81.6373 11.632 82.1333 11.856 82.72C12.0693 83.296 12.176 83.9253 12.176 84.608C12.176 85.536 12.016 86.3467 11.696 87.04C11.3653 87.7227 10.9013 88.2507 10.304 88.624C9.70667 88.9973 9.00267 89.184 8.192 89.184L7.904 89.184C7.09333 89.184 6.38933 88.9973 5.792 88.624C5.19467 88.2507 4.736 87.7227 4.416 87.04C4.096 86.3467 3.936 85.536 3.936 84.608C3.936 83.936 4.04267 83.3173 4.256 82.752C4.46933 82.176 4.77867 81.68 5.184 81.264L0.863999 81.264L0.863999 80.08ZM11.088 84.496C11.088 83.824 10.96 83.2 10.704 82.624C10.4373 82.0373 10.0853 81.584 9.648 81.264L6.448 81.264C6.01067 81.584 5.664 82.032 5.408 82.608C5.152 83.184 5.024 83.8133 5.024 84.496C5.024 85.5733 5.28 86.4213 5.792 87.04C6.29333 87.6587 6.99733 87.968 7.904 87.968L8.192 87.968C9.09867 87.968 9.808 87.6587 10.32 87.04C10.832 86.4213 11.088 85.5733 11.088 84.496ZM4.112 75.7606L12 75.7606L12 76.9446L4.112 76.9446L4.112 75.7606ZM2.688 76.3526C2.688 76.598 2.61333 76.8006 2.464 76.9606C2.304 77.1206 2.10667 77.2006 1.872 77.2006C1.63733 77.2006 1.45067 77.1206 1.312 76.9606C1.16267 76.8006 1.088 76.598 1.088 76.3526C1.088 76.1073 1.16267 75.9046 1.312 75.7446C1.45067 75.5846 1.63733 75.5046 1.872 75.5046C2.10667 75.5046 2.304 75.5846 2.464 75.7446C2.61333 75.9046 2.688 76.1073 2.688 76.3526ZM3.936 68.1745C3.936 66.8092 4.27733 65.7745 4.96 65.0705C5.632 64.3665 6.61867 64.0145 7.92 64.0145L12 64.0145L12 65.1985L7.92 65.1985C6.97067 65.1985 6.25067 65.4652 5.76 65.9985C5.26933 66.5212 5.024 67.2838 5.024 68.2865C5.024 68.9585 5.17867 69.5825 5.488 70.1585C5.78667 70.7238 6.192 71.1505 6.704 71.4385L12 71.4385L12 72.6225L4.112 72.6225L4.112 71.5185L5.312 71.4705C4.87467 71.0652 4.53867 70.5798 4.304 70.0145C4.05867 69.4492 3.936 68.8358 3.936 68.1745ZM12.176 57.1835C12.176 58.1328 12.016 58.9648 11.696 59.6795C11.376 60.3835 10.9173 60.9275 10.32 61.3115C9.72267 61.6848 9.024 61.8715 8.224 61.8715L7.92 61.8715C7.10933 61.8715 6.40533 61.6848 5.808 61.3115C5.2 60.9275 4.736 60.3835 4.416 59.6795C4.096 58.9755 3.936 58.1435 3.936 57.1835C3.936 56.2448 4.10133 55.4288 4.432 54.7355C4.752 54.0315 5.21066 53.4928 5.808 53.1195C6.40533 52.7355 7.10933 52.5435 7.92 52.5435L8.224 52.5435C9.024 52.5435 9.72266 52.7355 10.32 53.1195C10.9173 53.4928 11.376 54.0315 11.696 54.7355C12.016 55.4288 12.176 56.2448 12.176 57.1835ZM11.088 57.1995C11.088 56.1328 10.832 55.2955 10.32 54.6875C9.808 54.0688 9.10933 53.7595 8.224 53.7595L7.92 53.7595C7.024 53.7595 6.32 54.0688 5.808 54.6875C5.28533 55.2955 5.024 56.1328 5.024 57.1995C5.024 58.2875 5.28 59.1355 5.792 59.7435C6.304 60.3515 7.01333 60.6555 7.92 60.6555L8.224 60.6555C9.10933 60.6555 9.808 60.3462 10.32 59.7275C10.832 59.1088 11.088 58.2662 11.088 57.1995ZM12.176 46.1504C12.176 47.5477 11.9573 48.6517 11.52 49.4624C11.072 50.273 10.4587 50.6784 9.68 50.6784L9.568 50.6784L9.568 49.4944L9.68 49.4944C10.1493 49.4944 10.5067 49.2064 10.752 48.6304C10.9973 48.0544 11.12 47.2224 11.12 46.1344C11.12 45.1424 11.0133 44.3744 10.8 43.8304C10.576 43.2864 10.2613 43.0144 9.856 43.0144L9.728 43.0144C9.39733 43.0144 9.14666 43.1957 8.976 43.5584C8.79466 43.921 8.66666 44.5344 8.592 45.3984L8.432 47.1424C8.32533 48.2517 8.10666 49.0624 7.776 49.5744C7.44533 50.0864 6.976 50.3424 6.368 50.3424L6.208 50.3424C5.49333 50.3424 4.93866 49.9744 4.544 49.2384C4.13866 48.5024 3.936 47.4837 3.936 46.1824C3.936 44.8384 4.16 43.777 4.608 42.9984C5.04533 42.209 5.65333 41.8144 6.432 41.8144L6.544 41.8144L6.544 42.9824L6.432 42.9824C5.984 42.9824 5.63733 43.265 5.392 43.8304C5.136 44.3957 5.008 45.1904 5.008 46.2144C5.008 47.1317 5.11466 47.8517 5.328 48.3744C5.53066 48.8864 5.81333 49.1424 6.176 49.1424L6.288 49.1424C6.61866 49.1424 6.86933 48.9877 7.04 48.6784C7.21066 48.3584 7.328 47.841 7.392 47.1264L7.552 45.3504C7.66933 44.1024 7.89866 43.201 8.24 42.6464C8.57066 42.081 9.06133 41.7984 9.712 41.7984L9.872 41.7984C10.5867 41.7984 11.152 42.1877 11.568 42.9664C11.9733 43.7344 12.176 44.7957 12.176 46.1504ZM10.96 29.3107L12 29.3107L12 30.2867C12 30.8094 11.888 31.2414 11.664 31.5827C11.44 31.9241 11.1253 32.1481 10.72 32.2547C11.6907 33.1507 12.176 34.4307 12.176 36.0947C12.176 37.2254 11.9893 38.0894 11.616 38.6867C11.232 39.2841 10.6827 39.5827 9.968 39.5827C8.688 39.5827 7.94666 38.6227 7.744 36.7027L7.28 32.3187L7.264 32.3187C6.53866 32.3187 5.98933 32.5747 5.616 33.0867C5.24266 33.5987 5.056 34.3507 5.056 35.3427C5.056 36.2494 5.22666 36.9801 5.568 37.5347C5.90933 38.0894 6.35733 38.3667 6.912 38.3667L7.008 38.3667L7.008 39.5347L6.912 39.5347C6.336 39.5347 5.824 39.3587 5.376 39.0067C4.91733 38.6547 4.56533 38.1641 4.32 37.5347C4.064 36.8947 3.936 36.1587 3.936 35.3267C3.936 34.0041 4.22933 32.9747 4.816 32.2387C5.40266 31.5027 6.224 31.1347 7.28 31.1347L9.952 31.1347C10.272 31.1347 10.5227 31.0387 10.704 30.8467C10.8747 30.6547 10.96 30.3774 10.96 30.0147L10.96 29.3107ZM11.136 36.1107C11.136 35.2254 10.992 34.4521 10.704 33.7907C10.4053 33.1294 9.98933 32.6387 9.456 32.3187L8.256 32.3187L8.688 36.4627C8.76266 37.1241 8.90666 37.6147 9.12 37.9347C9.32266 38.2441 9.60533 38.3987 9.968 38.3987C10.7467 38.3987 11.136 37.6361 11.136 36.1107ZM4.112 19.3296L12 19.3296L12 20.4336L10.8 20.4816C11.2373 20.887 11.5787 21.3723 11.824 21.9376C12.0587 22.503 12.176 23.1163 12.176 23.7776C12.176 25.143 11.84 26.1776 11.168 26.8816C10.496 27.5856 9.50933 27.9376 8.208 27.9376L4.112 27.9376L4.112 26.7536L8.208 26.7536C9.14666 26.7536 9.86133 26.4923 10.352 25.9696C10.8427 25.4363 11.088 24.6683 11.088 23.6656C11.088 22.9936 10.9387 22.375 10.64 21.8096C10.3307 21.2336 9.92 20.8016 9.408 20.5136L4.112 20.5136L4.112 19.3296ZM4.112 10.5146L5.168 10.5146L5.168 12.2266C5.168 12.8453 5.28 13.3946 5.504 13.8746C5.728 14.3546 6.04266 14.7333 6.448 15.0106L12 15.0106L12 16.1946L4.112 16.1946L4.112 15.0906L5.184 15.0426C4.832 14.6906 4.56533 14.264 4.384 13.7626C4.20266 13.2506 4.112 12.6906 4.112 12.0826L4.112 10.5146ZM12.176 5.041C12.176 6.43833 11.9573 7.54233 11.52 8.353C11.072 9.16367 10.4587 9.569 9.68 9.569L9.568 9.569L9.568 8.385L9.68 8.385C10.1493 8.385 10.5067 8.097 10.752 7.521C10.9973 6.945 11.12 6.113 11.12 5.025C11.12 4.033 11.0133 3.265 10.8 2.721C10.576 2.177 10.2613 1.905 9.856 1.905L9.728 1.905C9.39733 1.905 9.14666 2.08633 8.976 2.449C8.79466 2.81167 8.66666 3.425 8.592 4.289L8.432 6.033C8.32533 7.14233 8.10666 7.953 7.776 8.465C7.44533 8.977 6.976 9.233 6.368 9.233L6.208 9.233C5.49333 9.233 4.93866 8.865 4.544 8.129C4.13866 7.393 3.936 6.37433 3.936 5.073C3.936 3.729 4.16 2.66767 4.608 1.889C5.04533 1.09967 5.65333 0.704999 6.432 0.704999L6.544 0.704999L6.544 1.873L6.432 1.873C5.984 1.873 5.63733 2.15567 5.392 2.721C5.136 3.28633 5.008 4.081 5.008 5.105C5.008 6.02233 5.11466 6.74233 5.328 7.265C5.53066 7.777 5.81333 8.033 6.176 8.033L6.288 8.033C6.61866 8.033 6.86933 7.87833 7.04 7.569C7.21066 7.249 7.328 6.73167 7.392 6.017L7.552 4.241C7.66933 2.993 7.89866 2.09167 8.24 1.537C8.57066 0.971665 9.06133 0.688999 9.712 0.688999L9.872 0.688999C10.5867 0.688998 11.152 1.07833 11.568 1.857C11.9733 2.625 12.176 3.68633 12.176 5.041Z" fill="black"/>
</svg>
