<svg width="220" height="106" viewBox="0 0 220 106" fill="none" xmlns="http://www.w3.org/2000/svg">
<path d="M75.5 7H1V105H219V7H145.5" stroke="#ABB1AF"/>
<path d="M89.562 2.952C89.835 2.952 90.069 2.978 90.225 3.03V2.237C90.004 2.159 89.77 2.12 89.523 2.12C88.925 2.12 88.444 2.302 88.08 2.679C87.729 3.069 87.547 3.615 87.547 4.343V5.539H86.299V6.358H87.547V12H88.483V6.358H90.173V5.539H88.483V4.317C88.483 3.797 88.626 3.407 88.847 3.212C89.068 3.03 89.302 2.952 89.562 2.952ZM96.7847 9.062C96.7977 8.919 96.7977 8.815 96.7977 8.75C96.7977 8.1 96.6937 7.541 96.4597 7.047C96.2387 6.553 95.8877 6.15 95.4197 5.864C94.9517 5.565 94.3927 5.422 93.7557 5.422C93.1707 5.422 92.6247 5.578 92.1437 5.89C91.6497 6.202 91.2727 6.605 91.0127 7.125C90.7397 7.632 90.6097 8.178 90.6097 8.763C90.6097 9.374 90.7527 9.933 91.0387 10.44C91.3117 10.96 91.7017 11.363 92.2087 11.662C92.7157 11.961 93.2747 12.117 93.8857 12.117C94.5487 12.117 95.1337 11.935 95.6537 11.597C96.1737 11.246 96.5247 10.765 96.7067 10.154L95.8747 9.894C95.5757 10.791 94.8477 11.272 93.8727 11.272C93.2487 11.272 92.7157 11.064 92.2737 10.635C91.8317 10.219 91.5977 9.699 91.5587 9.062H96.7847ZM91.5717 8.256C91.6497 7.71 91.8967 7.242 92.3127 6.839C92.7287 6.449 93.1967 6.254 93.7557 6.254C94.3537 6.254 94.8347 6.436 95.1987 6.8C95.5627 7.177 95.7837 7.658 95.8487 8.256H91.5717ZM100.534 8.269C99.3773 8.269 97.9733 8.737 97.9733 10.141V10.206C97.9733 10.765 98.1813 11.22 98.5843 11.571C98.9743 11.935 99.5073 12.117 100.144 12.117C101.067 12.117 101.782 11.701 102.328 10.869C102.328 11.337 102.367 11.714 102.419 12H103.355C103.29 11.519 103.251 10.726 103.251 9.647V7.827C103.251 7.411 103.186 7.06 103.056 6.761C102.666 5.864 101.886 5.422 100.703 5.422C100.001 5.422 99.3773 5.656 98.9873 5.955C98.4023 6.423 98.0903 7.06 98.0773 7.385L98.9873 7.58C99.0393 7.255 99.1953 6.956 99.4553 6.696C99.7153 6.436 100.157 6.267 100.677 6.267C101.756 6.267 102.328 6.8 102.328 7.84V8.269H100.534ZM102.328 9.27C102.328 9.855 102.133 10.349 101.756 10.713C101.366 11.09 100.885 11.285 100.313 11.285C99.9103 11.285 99.5853 11.181 99.3253 10.973C99.0523 10.765 98.9223 10.492 98.9223 10.128C98.9223 9.725 99.1433 9.413 99.4683 9.27C99.7933 9.114 100.144 9.049 100.521 9.049H102.328V9.27ZM107.432 12.052C107.718 12.052 107.965 12.013 108.173 11.948V11.168C108.004 11.194 107.809 11.22 107.588 11.22C106.886 11.22 106.535 10.908 106.535 10.31V6.371H108.173V5.539H106.535V3.68H105.599V5.539H104.403V6.371H105.599V10.323C105.599 11.272 106.028 12.052 107.432 12.052ZM109.586 5.539V9.53C109.586 10.31 109.794 10.934 110.223 11.415C110.665 11.883 111.263 12.13 112.03 12.13C113.005 12.13 113.733 11.688 114.253 10.817V12H115.176V5.539H114.24V9.218C114.24 9.803 114.058 10.284 113.694 10.674C113.33 11.064 112.875 11.259 112.316 11.259C111.731 11.259 111.289 11.09 110.99 10.726C110.678 10.375 110.522 9.894 110.522 9.296V5.539H109.586ZM117.306 5.539V12H118.255V8.841C118.255 7.697 118.736 6.436 120.27 6.436C120.4 6.436 120.53 6.436 120.634 6.462V5.461C120.569 5.435 120.465 5.435 120.322 5.435C120.062 5.435 119.802 5.474 119.555 5.565C119.061 5.747 118.541 6.176 118.229 6.813V5.539H117.306ZM127.114 9.062C127.127 8.919 127.127 8.815 127.127 8.75C127.127 8.1 127.023 7.541 126.789 7.047C126.568 6.553 126.217 6.15 125.749 5.864C125.281 5.565 124.722 5.422 124.085 5.422C123.5 5.422 122.954 5.578 122.473 5.89C121.979 6.202 121.602 6.605 121.342 7.125C121.069 7.632 120.939 8.178 120.939 8.763C120.939 9.374 121.082 9.933 121.368 10.44C121.641 10.96 122.031 11.363 122.538 11.662C123.045 11.961 123.604 12.117 124.215 12.117C124.878 12.117 125.463 11.935 125.983 11.597C126.503 11.246 126.854 10.765 127.036 10.154L126.204 9.894C125.905 10.791 125.177 11.272 124.202 11.272C123.578 11.272 123.045 11.064 122.603 10.635C122.161 10.219 121.927 9.699 121.888 9.062H127.114ZM121.901 8.256C121.979 7.71 122.226 7.242 122.642 6.839C123.058 6.449 123.526 6.254 124.085 6.254C124.683 6.254 125.164 6.436 125.528 6.8C125.892 7.177 126.113 7.658 126.178 8.256H121.901ZM128.289 8.763C128.289 9.647 128.601 10.479 129.108 11.09C129.628 11.701 130.421 12.091 131.318 12.091C132.397 12.091 133.242 11.61 133.84 10.622V12H134.763V2.146H133.827V6.891C133.541 6.475 133.255 6.163 132.852 5.877C132.449 5.591 131.916 5.422 131.318 5.422C130.434 5.422 129.641 5.825 129.121 6.462C128.601 7.086 128.289 7.918 128.289 8.763ZM131.513 11.272C131.058 11.272 130.655 11.155 130.304 10.921C129.615 10.453 129.251 9.686 129.251 8.789C129.251 8.061 129.459 7.463 129.875 6.982C130.278 6.501 130.824 6.267 131.513 6.267C131.942 6.267 132.345 6.384 132.709 6.618C133.424 7.099 133.84 7.905 133.84 8.75C133.866 10.05 132.839 11.285 131.513 11.272Z" fill="#100803"/>
<path d="M198.109 16.0328C196.333 16.2016 195.011 16.5766 193.516 17.3359C191.744 18.2406 190.155 19.6656 188.992 21.3906C188.505 22.1219 187.905 23.3547 187.614 24.2266C187.384 24.9297 187.197 25.7312 187.084 26.5234C187.005 27.0766 187.005 28.9234 187.084 29.4766C187.281 30.8594 187.647 32.0687 188.219 33.2266C188.861 34.5391 189.494 35.4203 190.534 36.4656C191.57 37.4969 192.466 38.1391 193.727 38.7578C194.608 39.1891 195.175 39.4 196.07 39.625C198.414 40.2156 200.767 40.1031 203.055 39.2922C203.758 39.0437 204.967 38.4344 205.586 38.0219C207.002 37.075 208.272 35.7719 209.191 34.3281C209.528 33.7984 210.072 32.6734 210.292 32.05C211.394 28.9469 211.202 25.6187 209.753 22.7078C209.172 21.5359 208.52 20.6125 207.606 19.6703C206.603 18.6297 205.591 17.8937 204.273 17.2422C202.886 16.5578 201.592 16.1875 200.055 16.0469C199.577 16.0047 198.494 15.9953 198.109 16.0328ZM200.664 17.6359C203.636 18.1375 206.153 19.7781 207.803 22.3C208.6 23.5094 209.144 24.9391 209.392 26.4766C209.505 27.1937 209.505 28.8062 209.392 29.5234C208.886 32.6547 207.17 35.2516 204.508 36.9297C203.369 37.6469 201.991 38.1531 200.523 38.3922C199.802 38.5047 198.194 38.5047 197.477 38.3875C195.147 38.0078 193.225 37.0375 191.589 35.4062C189.972 33.7984 188.988 31.8531 188.608 29.5234C188.495 28.8062 188.495 27.1937 188.608 26.4766C189.1 23.4437 190.703 20.9312 193.216 19.2531C194.65 18.2922 196.38 17.6922 198.156 17.5281C198.663 17.4812 200.116 17.5469 200.664 17.6359Z" fill="#89A7A9"/>
<path d="M198.447 20.0359C198.025 20.0875 197.336 20.3125 196.952 20.5281C196.023 21.0438 195.311 21.9016 194.973 22.9188C194.823 23.3688 194.711 24.1281 194.762 24.3672C194.847 24.7609 195.194 25.0281 195.569 24.9859C195.991 24.9391 196.206 24.6625 196.253 24.1047C196.272 23.8938 196.328 23.5891 196.375 23.4344C196.633 22.6094 197.355 21.8922 198.203 21.6203C198.63 21.4797 199.37 21.4797 199.797 21.6156C201.086 22.0328 201.953 23.3969 201.7 24.6109C201.569 25.2531 201.184 25.8813 200.645 26.3359C200.35 26.5844 200.191 26.6734 199.595 26.9406C199.323 27.0625 199.155 27.1797 198.934 27.4C198.391 27.9438 198.25 28.3703 198.25 29.4391C198.25 30.0625 198.264 30.1844 198.344 30.3391C198.536 30.7188 199.028 30.8547 199.389 30.6297C199.684 30.4469 199.722 30.325 199.75 29.4766C199.778 28.5156 199.773 28.525 200.561 28.1453C201.822 27.5359 202.722 26.4953 203.106 25.2063C203.331 24.4516 203.27 23.5281 202.942 22.6797C202.562 21.6859 201.667 20.7625 200.683 20.35C199.994 20.0641 199.169 19.9469 198.447 20.0359Z" fill="#89A7A9"/>
<path d="M198.531 33.1187C198.414 33.1844 198.259 33.325 198.18 33.4328C198.053 33.6156 198.039 33.6672 198.039 33.9953C198.039 34.3141 198.053 34.3797 198.166 34.5437C198.236 34.6422 198.372 34.7781 198.47 34.8437C198.616 34.9422 198.695 34.9609 199 34.9609C199.305 34.9609 199.384 34.9422 199.53 34.8437C199.628 34.7781 199.764 34.6422 199.834 34.5437C199.947 34.3797 199.961 34.3141 199.961 34C199.961 33.6859 199.947 33.6203 199.834 33.4562C199.628 33.1656 199.413 33.0437 199.052 33.025C198.794 33.0109 198.705 33.0297 198.531 33.1187Z" fill="#89A7A9"/>
</svg>
