<svg width="42" height="42" viewBox="0 0 42 42" fill="none" xmlns="http://www.w3.org/2000/svg">
<path d="M9.01378 18.4874C8.84349 18.3759 8.58992 18.3193 8.25677 18.3193L7.97196 18.3208C7.78531 18.3193 7.5942 18.4695 7.55776 18.651L7.29526 19.7813C7.25437 19.9642 7.37111 20.1137 7.56 20.1137H7.77267C8.24487 20.1137 8.61074 20.0178 8.87324 19.8244C9.13574 19.6326 9.27034 19.3597 9.26439 19.0064C9.26587 18.7729 9.18184 18.5982 9.01378 18.4874Z" fill="white"/>
<path d="M13.6616 21.0923C13.6102 21.0938 13.2169 21.1384 13.0176 21.1629C12.7945 21.1949 12.6011 21.2395 12.4442 21.2923L12.0754 21.5437C11.9891 21.6522 11.9482 21.7905 11.9482 21.9683L12.1163 22.294C12.2301 22.3579 12.3981 22.3892 12.6123 22.3892C12.7536 22.3892 12.9068 22.355 13.0674 22.2895L13.4095 22.1133L13.5448 21.9333C13.5983 21.7236 13.7091 21.2574 13.7218 21.1994L13.6616 21.0923Z" fill="white"/>
<path d="M40.9188 7.39111H1.08123C0.483357 7.39111 0 7.87521 0 8.47235V33.5281C0 34.1252 0.483357 34.6101 1.08123 34.6101H40.9188C41.5166 34.6101 42 34.126 42 33.5288V8.47235C42 7.87521 41.5166 7.39111 40.9188 7.39111ZM10.0271 20.5949C9.43513 21.0307 8.61119 21.2478 7.54632 21.2493H7.29795C7.10683 21.2493 6.92018 21.3995 6.88077 21.5795L6.58183 22.8719C6.53945 23.0563 6.3528 23.2036 6.16392 23.2036H5.29387C5.10499 23.2036 4.98676 23.0519 5.03137 22.8719L6.25464 17.5453C6.29926 17.3624 6.48442 17.2159 6.6733 17.2129L8.49072 17.2122C8.88336 17.2159 9.22319 17.2397 9.51767 17.2932C9.80768 17.3483 10.0605 17.4405 10.2747 17.5714C10.4799 17.7007 10.6458 17.874 10.7499 18.0837C10.8659 18.2934 10.9172 18.5559 10.9172 18.8682C10.9172 19.5821 10.6234 20.1592 10.0271 20.5949ZM15.4273 19.9153L15.3945 20.1391L14.7595 22.8846C14.7223 23.0496 14.5587 23.1902 14.3854 23.2103L14.3735 23.2147H14.2479H13.5801H13.5645L13.5615 23.2118C13.3957 23.1961 13.2931 23.0556 13.3288 22.886V22.8846L13.3302 22.8794L13.363 22.7396L13.3585 22.7343L13.0306 22.9507L12.6736 23.15L12.2527 23.2943C12.1233 23.3255 11.9411 23.3441 11.7062 23.3441C11.3351 23.3441 11.0243 23.2422 10.7893 23.0318C10.5558 22.8169 10.4353 22.5425 10.4353 22.2064C10.4353 21.8494 10.5178 21.5475 10.6837 21.2962C10.8555 21.0463 11.1008 20.8515 11.4325 20.7057C11.7411 20.5652 12.1122 20.4611 12.536 20.4023C12.9688 20.3399 13.3258 20.2945 13.8203 20.2633L13.9452 20.1859L13.9608 20.0632C13.9608 19.8744 13.8731 19.7442 13.6983 19.6676C13.5214 19.5933 13.2551 19.5561 12.9071 19.5561C12.6706 19.5531 12.3732 19.6015 12.0914 19.6654C11.7961 19.7323 11.7151 19.7762 11.5708 19.8193C11.5039 19.8424 11.3425 19.8535 11.4028 19.5739L11.5091 19.1359C11.5091 19.1359 11.5612 18.805 11.8921 18.7329C12.0519 18.6972 12.0772 18.6905 12.3382 18.6504C12.6915 18.5961 13.041 18.5686 13.3912 18.5686C14.0999 18.5686 14.6189 18.6608 14.9469 18.8459C15.2763 19.0303 15.4444 19.3189 15.4429 19.7063L15.4273 19.9153ZM16.826 25.3244L15.9248 25.3259C15.7374 25.3259 15.6756 25.1772 15.7902 24.9942L16.5613 23.6498C16.5613 23.6498 16.623 23.5732 16.568 23.1344C16.449 22.3417 15.8571 18.9716 15.8571 18.9716C15.814 18.7894 15.93 18.6399 16.1174 18.6399L16.8974 18.6385C17.1361 18.6385 17.328 18.7954 17.3711 18.9798L17.7593 21.317L17.9035 21.3185C18.0248 21.1036 19.2711 18.9649 19.2711 18.9649C19.3901 18.785 19.631 18.6325 19.8184 18.6325C19.8184 18.6325 20.6564 18.6347 20.8624 18.6325C21.1718 18.628 20.8386 19.1293 20.8386 19.1293L17.3704 24.9942C17.2588 25.1772 17.0119 25.3244 16.826 25.3244ZM25.8365 20.618C25.2424 21.0515 24.4147 21.2709 23.3499 21.2709H23.1015C22.9141 21.2679 22.7267 21.4204 22.6836 21.6003L22.3891 22.895C22.346 23.0757 22.1556 23.2244 21.9712 23.2222L21.0989 23.2244C20.9137 23.2251 20.7918 23.0749 20.8364 22.8942L22.0604 17.5647C22.105 17.384 22.288 17.2367 22.4768 17.2337L24.2965 17.2323C24.6869 17.2337 25.0305 17.2613 25.319 17.3126C25.6127 17.3661 25.8655 17.4583 26.0767 17.5899C26.2842 17.7231 26.4471 17.8933 26.5556 18.1045C26.6672 18.3127 26.7215 18.576 26.7229 18.8883C26.7229 19.6015 26.4248 20.177 25.8365 20.618ZM31.2338 19.919L31.2018 20.1443L30.5653 22.8875C30.5296 23.0534 30.3652 23.1939 30.1942 23.2147L30.1823 23.2192H30.0574C29.8774 23.2192 29.4982 23.2192 29.3888 23.2192H29.3732L29.3717 23.2147C29.2029 23.1991 29.0988 23.0593 29.1397 22.889L29.1382 22.8868L29.142 22.8838L29.171 22.744L29.1658 22.7373L28.84 22.9567L28.4809 23.1552L28.0607 23.2973C27.9313 23.3307 27.7484 23.3449 27.5156 23.3486C27.1438 23.3486 26.836 23.243 26.5995 23.034C26.3645 22.8214 26.2433 22.5455 26.2433 22.2079C26.2433 21.8532 26.3258 21.5498 26.4924 21.2999C26.6627 21.05 26.9118 20.856 27.2405 20.7087C27.5513 20.5674 27.9246 20.4648 28.3463 20.4053C28.7761 20.3428 29.133 20.2975 29.6313 20.267L29.7562 20.1882L29.7696 20.0655C29.7696 19.8781 29.6833 19.7465 29.5063 19.6706C29.3294 19.5955 29.0631 19.5583 28.7166 19.5583C28.4786 19.5568 28.1805 19.6044 27.8994 19.6676C27.6056 19.736 27.5261 19.7784 27.3825 19.8216C27.3097 19.8431 27.1528 19.8558 27.2123 19.5762L27.3186 19.1389C27.3186 19.1389 27.3684 18.8073 27.7008 18.7359C27.8622 18.7009 27.8882 18.6927 28.1485 18.6548C28.4995 18.5983 28.8512 18.5708 29.2015 18.5708C29.9072 18.5708 30.4255 18.6645 30.7564 18.8496C31.088 19.0341 31.2539 19.3211 31.2539 19.7085L31.2338 19.919ZM34.0224 17.6085L32.8564 22.889L32.8155 22.9515C32.7463 23.1002 32.5991 23.2207 32.4392 23.2207H31.6301L31.6153 23.2021C31.4613 23.1783 31.3609 23.0541 31.3974 22.892L31.3959 22.8883L31.4308 22.7358L32.521 17.7818L32.5597 17.6093L32.6035 17.5416C32.6742 17.3959 32.8184 17.2776 32.9783 17.2776H33.7569C33.9465 17.2776 34.0603 17.4256 34.0201 17.607L34.0224 17.6085ZM35.5676 17.0374H35.2761V17.4249L35.2784 17.529L35.2984 17.5989L35.3445 17.6435L35.4338 17.6576L35.5067 17.6472L35.5609 17.6308H35.5676V17.758L35.4806 17.7751L35.3981 17.7818L35.2003 17.7112L35.1326 17.4881V17.0374H35.0345V16.917H35.1326V16.6753H35.2761V16.917H35.5676V17.0374ZM36.9768 17.2152V17.7632H36.8363V17.2799L36.8273 17.1765L36.8087 17.0947L36.7597 17.0464L36.6652 17.0293L36.547 17.0597L36.4258 17.1363L36.428 17.178L36.4295 17.2226V17.7647H36.2882V17.2813L36.2823 17.1765L36.2622 17.0954L36.2146 17.0471L36.1187 17.03L36.0019 17.059L35.8837 17.1326V17.7647H35.7439V16.9177H35.8837V17.0121L36.019 16.9259L36.1588 16.8947L36.3061 16.9296L36.3968 17.0307L36.5529 16.9259L36.7054 16.8947L36.9114 16.9787L36.9783 17.2152H36.9768Z" fill="white"/>
<path d="M29.4682 21.0967C29.4168 21.0959 29.025 21.142 28.8286 21.1673C28.6033 21.1993 28.4107 21.2432 28.2553 21.2967C28.0962 21.3592 27.9668 21.4432 27.8827 21.5481C27.7995 21.6566 27.7578 21.795 27.7578 21.9734L27.9281 22.2984C28.0367 22.3631 28.2025 22.3943 28.4234 22.3943C28.5624 22.3943 28.7156 22.3601 28.8755 22.2954L29.2153 22.1192L29.3551 21.9392C29.4072 21.7273 29.5202 21.2625 29.5291 21.2045L29.4682 21.0967Z" fill="white"/>
<path d="M24.8158 18.5072C24.6441 18.3949 24.3942 18.3399 24.0603 18.3384L23.777 18.3399C23.5896 18.3384 23.3992 18.4901 23.3606 18.6708L23.0973 19.8003C23.0549 19.9818 23.1762 20.1335 23.3643 20.132H23.5807C24.0514 20.132 24.4165 20.0353 24.6798 19.8465C24.94 19.6524 25.0724 19.3817 25.0709 19.0255C25.0664 18.7935 24.9854 18.6187 24.8158 18.5072Z" fill="white"/>
</svg>
