<svg width="42" height="42" viewBox="0 0 42 42" fill="none" xmlns="http://www.w3.org/2000/svg">
<path d="M40.9188 7.39111H1.08123C0.483357 7.39111 0 7.87521 0 8.47235V33.5288C0 34.126 0.483357 34.6101 1.08123 34.6101H40.9188C41.5166 34.6101 42 34.126 42 33.5288V8.47235C42 7.87521 41.5166 7.39111 40.9188 7.39111ZM3.25188 15.6164H7.73445C8.33902 15.6394 8.8261 15.832 8.99416 16.4782L9.96905 21.1668C9.01126 18.7143 6.70305 16.6738 3.2147 15.829L3.25188 15.6164ZM8.67589 26.3097L6.08658 17.4635C7.94788 18.6548 9.53329 20.5451 10.0917 21.8606L10.3937 22.953L13.2254 15.7182H16.2891L11.7359 26.3075L8.67589 26.3097ZM18.5408 26.3171H15.6496L17.4574 15.7071H20.3501L18.5408 26.3171ZM23.5722 26.4763C22.2761 26.4629 21.0275 26.2063 20.3508 25.9096L20.7576 23.5352L21.1301 23.704C22.0797 24.1004 22.6947 24.261 23.8526 24.261C24.6832 24.261 25.5733 23.936 25.5815 23.2251C25.5867 22.7604 25.2089 22.4287 24.0831 21.9082C22.9855 21.401 21.5324 20.5503 21.5503 19.0266C21.5659 16.9646 23.5796 15.5256 26.4374 15.5256C27.5573 15.5256 28.4549 15.7562 29.0274 15.9711L28.637 18.2711L28.376 18.1484C27.8436 17.9342 27.1587 17.7275 26.2121 17.7424C25.0803 17.7424 24.5553 18.2138 24.5553 18.6548C24.5493 19.1516 25.168 19.4788 26.1794 19.971C27.8473 20.728 28.6185 21.6464 28.608 22.8533C28.5857 25.0545 26.6129 26.4763 23.5722 26.4763ZM36.1023 26.3216C36.1023 26.3216 35.8383 25.1021 35.7506 24.7317C35.3297 24.7317 32.379 24.7273 32.0473 24.7273C31.935 25.0136 31.4398 26.3216 31.4398 26.3216H28.4035L32.6965 16.5987C33.0014 15.9079 33.5182 15.7182 34.2113 15.7182H36.4451L38.7853 26.3209L36.1023 26.3216Z" fill="white"/>
<path d="M34.6101 19.4942L34.4152 18.5796C34.268 18.9789 34.0144 19.6207 34.0308 19.5924C34.0308 19.5924 33.1169 21.9475 32.8789 22.558H35.2801C35.1641 22.0263 34.6101 19.4942 34.6101 19.4942Z" fill="white"/>
</svg>
