<svg width="42" height="42" viewBox="0 0 42 42" fill="none" xmlns="http://www.w3.org/2000/svg">
<path d="M29.5726 20.8083C29.0513 20.6819 28.4393 21.137 28.3701 21.7163C28.707 21.7855 29.3948 21.7022 29.6581 21.5654C29.8395 21.4709 29.931 21.3148 29.9035 21.1326C29.8745 20.9459 29.7495 20.8522 29.5726 20.8083Z" fill="white"/>
<path d="M6.25428 19.3207C5.94493 19.2106 5.62518 19.2344 5.30839 19.2761C5.26972 19.282 5.21692 19.3408 5.208 19.3831C5.09571 19.9542 4.98938 20.5246 4.86816 21.1678C5.13513 21.1678 5.37309 21.1879 5.60584 21.1626C6.05722 21.1143 6.42383 20.9098 6.62535 20.4792C6.85513 19.9922 6.69005 19.4754 6.25428 19.3207Z" fill="white"/>
<path d="M40.9188 7.39111H1.08123C0.483357 7.39111 0 7.87521 0 8.47235V33.5281C0 34.1252 0.483357 34.6101 1.08123 34.6101H40.9188C41.5166 34.6101 42 34.126 42 33.5288V8.47235C42 7.87596 41.5166 7.39111 40.9188 7.39111ZM12.8989 15.4974C13.0105 15.5383 13.1272 15.6015 13.2075 15.6877C13.9006 16.4225 14.3364 17.2851 14.4553 18.2956C14.4784 18.4905 14.4888 18.6868 14.5052 18.8824C14.4933 19.4907 14.3847 20.0796 14.1765 20.65C14.1542 20.7109 14.1103 20.766 14.0694 20.818C13.9727 20.9452 13.8694 20.9556 13.7965 20.8173C13.7013 20.6351 13.621 20.4395 13.5749 20.2395C13.4343 19.6238 13.305 19.0051 13.1867 18.3849C13.0358 17.5914 12.8997 16.795 12.7591 16.0001C12.7383 15.8856 12.7286 15.7688 12.719 15.6535C12.7086 15.5212 12.7837 15.4557 12.8989 15.4974ZM6.47178 22.0398C5.93637 22.2175 5.39054 22.2577 4.8358 22.2071C4.70492 22.1937 4.66551 22.2287 4.6432 22.3521C4.5272 22.9909 4.40227 23.6304 4.27585 24.2677C4.26693 24.3183 4.22082 24.4016 4.18959 24.4023C3.79919 24.412 3.40804 24.409 2.99012 24.409C3.04961 24.0811 3.10092 23.7799 3.15818 23.481C3.47273 21.8301 3.79101 20.18 4.10333 18.5284C4.12266 18.4243 4.15315 18.3522 4.26098 18.3358C5.07822 18.2124 5.89621 18.1291 6.71197 18.3306C7.42436 18.5061 7.91887 19.0051 8.0029 19.5933C8.17319 20.7667 7.49055 21.7044 6.47178 22.0398ZM11.6615 24.4157C11.3916 24.4068 11.1194 24.4068 10.8495 24.4149C10.7104 24.4209 10.6643 24.3688 10.6777 24.2335C10.6978 24.0171 10.706 23.7992 10.7209 23.5702C10.5015 23.7992 10.3282 24.0283 10.1081 24.1978C9.65152 24.5503 9.12875 24.6313 8.59929 24.3874C8.07578 24.148 7.86087 23.6817 7.83931 23.1322C7.79246 21.9781 8.19402 21.0233 9.16817 20.3585C9.77943 19.9413 10.4799 19.8134 11.2064 19.8543C11.5775 19.8751 11.9456 19.9636 12.3159 20.0142C12.4654 20.0357 12.4855 20.1183 12.4609 20.2477C12.2973 21.1088 12.1211 21.9677 11.9798 22.8325C11.904 23.2921 11.8817 23.7606 11.8519 24.2261C11.843 24.3651 11.8095 24.4216 11.6615 24.4157ZM12.9302 25.9223C12.6944 26.3142 12.5435 26.7551 12.3501 27.1723C12.3204 27.2348 12.2527 27.3426 12.2304 27.3352C12.1464 27.3099 12.0274 27.2615 12.0058 27.1954C11.953 27.0325 11.9017 26.8451 11.933 26.6837C12.1003 25.8085 12.4632 25.0009 12.8699 24.2142C13.6589 22.6882 14.6472 21.2984 15.8021 20.0328C16.4594 19.3129 17.1413 18.6132 17.8433 17.938C18.8993 16.9222 20.0742 16.0633 21.3859 15.3985C21.9913 15.0921 22.6226 14.8623 23.2889 14.7374C23.4004 14.7158 23.5112 14.6891 23.6213 14.6653C23.6213 14.6653 24.9955 14.4005 25.5978 15.4319C25.5978 15.4319 25.7622 15.6825 25.7302 15.7658C25.6923 15.8625 25.5339 15.9555 25.4179 15.9718C24.3181 16.1354 23.251 16.4232 22.227 16.8441C21.6321 17.088 21.0558 17.3832 20.4884 17.6874C19.2532 18.3499 18.2501 19.3062 17.2715 20.2878C16.2348 21.3259 15.2659 22.4235 14.4204 23.6208C13.8932 24.3674 13.4009 25.14 12.9302 25.9223ZM21.3346 23.1166C20.8409 24.0402 20.0541 24.4893 19.2584 24.5124C18.1028 24.5153 17.4447 24.087 17.2023 23.3174C16.8052 22.0524 17.5682 20.0774 19.4362 19.8699C19.9954 19.8082 20.5174 19.8781 20.9762 20.2187C21.4127 20.5429 21.6246 20.9943 21.6581 21.5312C21.6931 22.0881 21.5986 22.6228 21.3346 23.1166ZM26.3043 22.3722C26.1838 23.005 26.0648 23.6364 25.9369 24.267C25.925 24.322 25.8596 24.4075 25.8165 24.409C25.4417 24.4187 25.0661 24.412 24.6914 24.409C24.6743 24.409 24.6586 24.3956 24.6229 24.3793C24.6899 24.0149 24.7627 23.6505 24.8282 23.2846C24.9271 22.7239 25.0238 22.1618 25.1145 21.5996C25.1286 21.5036 25.1227 21.4025 25.1115 21.3058C25.0758 20.9705 24.8312 20.8143 24.5055 20.9192C24.1902 21.0195 24.0035 21.262 23.8488 21.5326C23.6213 21.9297 23.5417 22.37 23.4644 22.8132C23.3796 23.2943 23.2933 23.7777 23.1974 24.258C23.187 24.3146 23.1208 24.403 23.0769 24.4045C22.6925 24.4164 22.3058 24.4112 21.879 24.4112C22.1556 22.9128 22.4255 21.4419 22.6977 19.9599C23.0673 19.9599 23.4205 19.9599 23.805 19.9599C23.7864 20.1956 23.7685 20.4217 23.7499 20.6552C23.8771 20.5354 23.9894 20.4261 24.1069 20.3235C24.5374 19.948 25.0334 19.7814 25.6045 19.8751C26.0767 19.9524 26.4032 20.2997 26.4567 20.7831C26.5162 21.3215 26.4047 21.8457 26.3043 22.3722ZM30.3905 22.3551C29.9823 22.5574 29.5413 22.634 29.0921 22.6607C28.811 22.6771 28.5285 22.6637 28.2399 22.6637C28.2109 23.1166 28.5173 23.4378 28.9791 23.4943C29.4283 23.5494 29.861 23.478 30.2805 23.3174C30.3266 23.3002 30.3727 23.2824 30.4188 23.2668C30.4284 23.2631 30.4426 23.266 30.4738 23.266C30.4991 23.5293 30.5318 23.7962 30.5452 24.0625C30.5467 24.1145 30.4872 24.1993 30.4374 24.2194C29.7093 24.5183 28.9531 24.6217 28.1857 24.4224C27.4688 24.238 27.0777 23.7249 26.9981 23.008C26.8851 21.9937 27.1818 21.1028 27.9722 20.4313C28.6229 19.8773 29.3851 19.7041 30.2143 19.951C30.7668 20.1153 31.0761 20.528 31.1178 21.1006C31.1579 21.6635 30.9125 22.0941 30.3905 22.3551ZM34.6991 22.3744C34.1518 22.6288 33.5636 22.6659 32.9724 22.6786C32.8504 22.6808 32.7285 22.6786 32.5991 22.6786C32.5567 23.1076 32.8646 23.4363 33.3308 23.4928C33.7666 23.5449 34.1875 23.4802 34.5972 23.33C34.6656 23.3055 34.734 23.2794 34.8248 23.246C34.8538 23.5278 34.8857 23.794 34.8999 24.0595C34.9021 24.1115 34.8441 24.1971 34.7935 24.2171C34.0529 24.5213 33.2877 24.6254 32.5076 24.4127C31.8071 24.2209 31.4375 23.7107 31.3535 23.0117C31.2449 22.1186 31.474 21.3096 32.0971 20.6485C32.7664 19.9383 33.5955 19.6847 34.5444 19.9465C35.1259 20.1071 35.4353 20.525 35.471 21.114C35.5059 21.6896 35.2442 22.1231 34.6991 22.3744ZM38.7749 21.0381C38.7675 21.0694 38.7109 21.1088 38.673 21.1147C37.8112 21.2278 37.4512 21.5326 37.2363 22.4131C37.0869 23.0259 36.9887 23.6505 36.863 24.2692C36.8534 24.3205 36.808 24.403 36.7768 24.4038C36.3737 24.4127 35.9707 24.4097 35.5416 24.4097C35.5996 24.0863 35.6502 23.7933 35.7074 23.4995C35.9335 22.3692 36.1677 21.2404 36.2607 20.0878C36.2637 20.0402 36.3291 19.9599 36.367 19.9584C36.6965 19.948 37.0296 19.9524 37.3888 19.9524C37.3635 20.2625 37.3397 20.5526 37.3166 20.8433C37.7189 20.2521 38.1822 19.7747 39.0099 19.861C38.9288 20.2737 38.8559 20.6567 38.7749 21.0381Z" fill="white"/>
<path d="M33.94 20.8133C33.4224 20.6705 32.7807 21.142 32.7227 21.754C33 21.7354 33.2648 21.7324 33.5221 21.6975C33.6938 21.6744 33.8701 21.6209 34.03 21.5517C34.201 21.4766 34.2828 21.3212 34.256 21.1301C34.2307 20.9457 34.1058 20.8579 33.94 20.8133Z" fill="white"/>
<path d="M9.95457 21.0901C9.39611 21.5601 9.14402 22.1736 9.19235 22.9008C9.20648 23.1247 9.29125 23.3381 9.52624 23.434C9.76271 23.5284 9.97762 23.46 10.1598 23.3046C10.2706 23.2102 10.374 23.0994 10.4521 22.9782C10.8655 22.3424 10.8759 21.5987 11.0276 20.8782C10.6045 20.7599 10.252 20.841 9.95457 21.0901Z" fill="white"/>
<path d="M20.2997 21.5203C20.2588 21.0199 19.8795 20.7522 19.4163 20.857C19.191 20.9083 19.0221 21.0504 18.8868 21.2318C18.5842 21.6423 18.4622 22.1108 18.4481 22.6105C18.4481 22.6781 18.4436 22.7466 18.4488 22.8127C18.4845 23.2678 18.811 23.5653 19.24 23.5259C19.4795 23.5036 19.6691 23.3779 19.8134 23.1942C20.2008 22.7034 20.3525 22.1338 20.2997 21.5203Z" fill="white"/>
</svg>
