<svg width="42" height="42" viewBox="0 0 42 42" fill="none" xmlns="http://www.w3.org/2000/svg">
<path d="M23.5242 16.4058H18.611C18.2972 16.9999 18.089 17.4491 18.0303 17.5606H23.9897C23.8551 17.1635 23.7004 16.7791 23.5242 16.4058Z" fill="white"/>
<path d="M16.1208 19.2666C15.6486 19.2666 15.2374 19.3268 14.5978 19.4889L14.4305 20.44L14.5369 20.4125L14.7198 20.3664C14.9935 20.2935 15.4047 20.2497 15.7705 20.2497C16.364 20.2497 16.593 20.3538 16.593 20.6326C16.593 20.71 16.5774 20.768 16.5469 20.907C16.3491 20.8862 16.1662 20.8743 16.0293 20.8743C14.6135 20.8743 13.791 21.4759 13.791 22.5021C13.791 23.1848 14.2632 23.6555 14.9488 23.6555C15.5274 23.6555 15.9698 23.4926 16.2889 23.1454L16.2584 23.5826H17.324L17.3389 23.4681L17.3545 23.3231L17.385 23.1089L17.4303 22.8412L17.7047 21.3406C17.7813 20.8706 17.7962 20.7122 17.7962 20.504C17.7962 19.6964 17.2176 19.2666 16.1208 19.2666ZM15.482 22.7602C15.1928 22.7602 15.0254 22.5906 15.0254 22.3296C15.0254 21.9028 15.3913 21.6871 16.1067 21.6871C16.1981 21.6871 16.2591 21.6893 16.3967 21.7035C16.3654 22.3281 15.9996 22.7602 15.482 22.7602Z" fill="white"/>
<path d="M12.1158 18.3916L10.6992 21.6078L10.6077 18.3916H8.61258L7.62207 23.5851H8.77915L9.54063 19.6171L9.75405 23.5851H10.9119L12.6631 19.5918L11.9016 23.5851H13.1807L14.1861 18.3916H12.1158Z" fill="white"/>
<path d="M35.3728 23.1962C35.3721 23.1679 35.3572 23.1389 35.3423 23.1233C35.3118 23.1084 35.2814 23.1069 35.2665 23.1069H35.1445V23.3984H35.2055V23.2847H35.2509L35.297 23.3984H35.3728L35.3275 23.272C35.358 23.2594 35.3728 23.2281 35.3728 23.1962ZM35.2814 23.2289C35.2665 23.2348 35.2509 23.2348 35.2509 23.2348H35.2048V23.159H35.2367C35.2516 23.159 35.2821 23.159 35.2821 23.1657C35.2977 23.1716 35.2977 23.1835 35.2977 23.1947C35.2977 23.2073 35.2962 23.2222 35.2814 23.2289Z" fill="white"/>
<path d="M38.0464 26.9095C38.0449 26.8805 38.0308 26.8515 38.0152 26.8367C37.9847 26.8218 37.9542 26.8203 37.9386 26.8203H37.8174V27.1118H37.8784V26.9973H37.9237L37.9698 27.1118H38.0464L38.0003 26.9847C38.0308 26.9735 38.0464 26.9423 38.0464 26.9095ZM37.9542 26.9423C37.9386 26.9482 37.9237 26.9482 37.9237 26.9482H37.8776V26.8731H37.9081C37.9237 26.8731 37.9542 26.8731 37.9542 26.8791C37.9698 26.885 37.9698 26.8976 37.9698 26.9081C37.9698 26.9214 37.9698 26.9348 37.9542 26.9423Z" fill="white"/>
<path d="M40.9188 7.39111H1.08123C0.483357 7.39111 0 7.87521 0 8.47235V33.5288C0 34.126 0.483357 34.6101 1.08123 34.6101H40.9188C41.5166 34.6101 42 34.126 42 33.5288V8.47235C42 7.87521 41.5166 7.39111 40.9188 7.39111ZM38.2291 27.156C38.1978 27.2125 38.1555 27.2556 38.1004 27.2861C38.0454 27.3166 37.9874 27.3322 37.9279 27.3322C37.8669 27.3322 37.8089 27.3166 37.7539 27.2861C37.6996 27.2556 37.6565 27.2125 37.6245 27.156C37.594 27.1017 37.5784 27.0437 37.5784 26.9834C37.5784 26.9232 37.594 26.8659 37.6252 26.8094C37.6557 26.7529 37.7004 26.7105 37.7554 26.68C37.8112 26.651 37.8677 26.6354 37.9272 26.6354C37.9859 26.6354 38.0424 26.651 38.0975 26.68C38.1532 26.7105 38.1971 26.7529 38.2276 26.8094C38.2588 26.8659 38.2737 26.9239 38.2737 26.9834C38.2737 27.0429 38.2603 27.1032 38.2291 27.156ZM39.0084 21.001C39.0099 26.9537 34.1867 31.7813 28.2332 31.7828C25.4491 31.7835 22.9104 30.7283 20.9978 28.9949C19.0852 30.7254 16.5516 31.7798 13.772 31.7798C7.8222 31.7798 2.99309 26.9515 2.99309 21.001C2.99309 15.0743 7.78428 10.26 13.7028 10.2214C13.7259 10.2214 13.7489 10.2214 13.772 10.2214C16.5516 10.2214 19.0859 11.2758 20.9985 13.0062C22.9104 11.2751 25.4461 10.2199 28.228 10.2191C34.1815 10.2169 39.0084 15.0423 39.0099 20.9958C39.0084 20.9972 39.0084 20.998 39.0084 21.001Z" fill="white"/>
<path d="M22.0651 14.1191H20.0172C19.742 14.491 19.4833 14.8866 19.249 15.2732H22.9025C22.6489 14.8702 22.3685 14.485 22.0651 14.1191Z" fill="white"/>
<path d="M24.3306 20.2636C24.5902 20.2636 24.9248 20.2859 25.2602 20.3253L25.4431 19.3489C25.1077 19.3028 24.605 19.2656 24.3002 19.2656C22.8694 19.2656 22.3652 19.9156 22.366 20.6926C22.366 21.2251 22.6709 21.5932 23.3557 21.8698C23.8726 22.0802 23.9499 22.1427 23.9499 22.3361C23.9499 22.5978 23.7224 22.7168 23.2197 22.7168C22.8226 22.7168 22.4731 22.6647 22.0611 22.5502L21.8789 23.5244L21.9399 23.5355L22.1682 23.5772C22.244 23.592 22.366 23.6047 22.5184 23.6151C22.8226 23.6374 23.0501 23.65 23.2182 23.65C24.5894 23.65 25.2141 23.2046 25.2141 22.2416C25.2141 21.6616 24.9553 21.3232 24.3002 21.0659C23.767 20.8525 23.706 20.8042 23.706 20.6064C23.706 20.3796 23.9187 20.2636 24.3306 20.2636Z" fill="white"/>
<path d="M31.0041 19.3516C30.9423 19.3367 30.8962 19.3286 30.8962 19.3263C30.8509 19.3196 30.8048 19.3159 30.7587 19.3159C30.3467 19.3159 30.0426 19.5033 29.6469 20.0023L29.7689 19.3613H28.6111L27.834 23.5851H29.1138C29.5711 21.0025 29.7682 20.5488 30.3772 20.5488C30.4233 20.5488 30.4687 20.5526 30.5296 20.5593L30.6821 20.5905L31.1409 19.3977C31.0345 19.3568 31.0189 19.3568 31.0041 19.3516Z" fill="white"/>
<path d="M27.1627 20.388H27.8178L28.0008 19.3603H27.3464L27.5293 18.3906H26.2651L25.671 21.615L25.61 21.9489L25.5334 22.3646C25.5178 22.4984 25.5029 22.6248 25.5029 22.7431C25.5029 23.3424 25.8532 23.6711 26.5083 23.6711C26.7976 23.6711 27.072 23.6295 27.4222 23.5335L27.5895 22.5966C27.4996 22.6241 27.3925 22.6375 27.2549 22.6375C26.9508 22.6375 26.8125 22.5438 26.8125 22.3251C26.8125 22.2865 26.8125 22.2277 26.8281 22.1504L27.1627 20.388Z" fill="white"/>
<path d="M35.2504 22.9243C35.0675 22.9243 34.915 23.0723 34.915 23.253C34.915 23.4359 35.0675 23.5839 35.2504 23.5839C35.4333 23.5839 35.5858 23.4359 35.5858 23.253C35.5858 23.073 35.4333 22.9243 35.2504 22.9243ZM35.2504 23.5051C35.1136 23.5051 34.9916 23.3928 34.9916 23.253C34.9916 23.1147 35.1136 23.0031 35.2504 23.0031C35.3887 23.0031 35.4943 23.1147 35.4943 23.253C35.4943 23.3928 35.3887 23.5051 35.2504 23.5051Z" fill="white"/>
<path d="M33.1192 19.2407C31.5962 19.2407 30.6064 20.2558 30.6064 21.7512C30.6064 22.8228 31.1842 23.6988 32.6328 23.6988C33.9416 23.6988 34.9165 23.0749 35.115 21.6709C35.1455 21.4255 35.1455 21.4084 35.1455 21.1466C35.1455 20.0743 34.445 19.2407 33.1192 19.2407ZM33.7438 21.6345C33.6375 22.2926 33.0441 22.6696 32.7697 22.6696C32.3123 22.6785 32.0387 22.2926 32.0387 21.7192C32.0387 21.041 32.4343 20.2714 33.0894 20.2714C33.607 20.2714 33.7892 20.69 33.7892 21.1303C33.7892 21.3132 33.7743 21.4798 33.7438 21.6345Z" fill="white"/>
<path d="M21.8157 21.8338C21.9235 21.4054 21.9696 21.102 21.9696 20.7897C21.9696 19.8535 21.2988 19.2563 20.2488 19.2563C18.9691 19.2563 18.0254 20.3235 18.0254 21.7713C18.0246 23.0169 18.7712 23.6646 20.2027 23.6646C20.6444 23.6646 21.0705 23.6088 21.4974 23.4943L21.7101 22.4368C21.2535 22.6227 20.8422 22.7053 20.3849 22.7053C19.6539 22.7053 19.2732 22.4562 19.2732 21.9669C19.2732 21.9275 19.2732 21.8985 19.2888 21.8338H21.8157ZM20.2332 20.2231C20.614 20.2231 20.8274 20.4231 20.8274 20.7659C20.8274 20.8224 20.8274 20.8923 20.8274 20.983L19.4108 20.9816C19.5327 20.4908 19.8227 20.2231 20.2332 20.2231Z" fill="white"/>
<path d="M18.4551 25.5522C18.6417 25.9523 18.8596 26.3338 19.0916 26.7064H22.9161C23.1481 26.3353 23.3578 25.9508 23.5437 25.5522H18.4551Z" fill="white"/>
<path d="M19.8945 27.814C20.2359 28.2326 20.5973 28.632 20.9966 28.9919C21.0055 28.9837 21.0152 28.977 21.0241 28.9681H21.0256C21.4182 28.6104 21.7848 28.2252 22.1202 27.814H19.8945Z" fill="white"/>
</svg>
