<svg width="42" height="42" viewBox="0 0 42 42" fill="none" xmlns="http://www.w3.org/2000/svg">
<path d="M40.9188 7.39111H1.08123C0.483357 7.39111 0 7.87521 0 8.47235V33.5288C0 34.126 0.483357 34.6101 1.08123 34.6101H40.9188C41.5166 34.6101 42 34.126 42 33.5288V8.47235C42 7.87521 41.5166 7.39111 40.9188 7.39111ZM38.8054 19.5234L38.2261 20.0461L37.7033 19.4654L38.2834 18.9426L38.8054 19.5234ZM35.822 19.017L35.0374 18.1454L35.909 17.3609L36.6935 18.2324L35.822 19.017ZM36.7113 19.1129L37.4966 19.9837L36.6251 20.7682L35.8405 19.8974L36.7113 19.1129ZM35.1133 18.8244L33.9517 19.8699L32.9069 18.7084L34.0685 17.6628L35.1133 18.8244ZM34.8984 19.6446L35.9439 20.8061L34.7824 21.8509L33.7368 20.6894L34.8984 19.6446ZM35.7245 21.6524L36.7701 22.8139L35.6085 23.8609L34.563 22.6994L35.7245 21.6524ZM36.5849 21.7379L37.4564 20.9526L38.2417 21.8242L37.3702 22.6087L36.5849 21.7379ZM38.0647 17.7967L37.484 18.3194L36.9612 17.7387L37.542 17.2159L38.0647 17.7967ZM6.0903 22.9381H5.48796L4.73021 20.1577H4.69079L3.95535 22.9381H3.35301L2.45025 18.988H3.07489L3.6988 21.9357H3.73821L4.4625 18.988H4.9585L5.73336 21.9357H5.77277L6.34164 18.988H6.9938L6.0903 22.9381ZM9.54667 21.6524H7.73074C7.73074 22.3202 8.00365 22.6169 8.57773 22.6169C8.87815 22.6169 9.15701 22.5105 9.46338 22.3268V22.75C9.21278 22.8942 8.87815 23.0065 8.47734 23.0065C7.54111 23.0065 7.15666 22.4272 7.15666 21.546C7.15666 20.699 7.58573 20.087 8.42157 20.087C9.11834 20.087 9.54741 20.5384 9.54741 21.4479L9.54667 21.6524ZM11.1403 23.0058C10.845 23.0058 10.3877 22.9106 10.0531 22.7329V18.8437L10.6324 18.7046V20.293C10.8004 20.2038 11.0837 20.087 11.3857 20.087C12.0765 20.087 12.4498 20.5667 12.4498 21.4583C12.4498 22.5001 11.9486 23.0058 11.1403 23.0058ZM16.8982 22.9381H16.8967H16.2951V20.0737H16.2453L15.1083 22.9381H14.7521L13.615 20.1406H13.5652V22.9381H13.064V18.988H13.7377L14.9863 22.103H15.0146L16.2073 18.988H16.8982V22.9381ZM18.781 23.0058C18.0181 23.0058 17.5102 22.4979 17.5102 21.5453C17.5102 20.5697 18.0456 20.0863 18.781 20.0863C19.5165 20.0863 20.0519 20.5711 20.0519 21.5453C20.0519 22.5001 19.5447 23.0058 18.781 23.0058ZM22.9215 22.9381H22.3422V21.0486C22.3422 20.6091 22.1259 20.531 21.8403 20.531C21.6172 20.531 21.3331 20.6314 21.1606 20.7318V22.9381H20.5813V20.4975C20.8319 20.3473 21.3614 20.0856 22.0024 20.0856C22.6709 20.0856 22.9215 20.3473 22.9215 20.9214V22.9381ZM25.8306 21.6524H24.0139C24.0139 22.3202 24.2868 22.6169 24.8624 22.6169C25.1628 22.6169 25.4417 22.5105 25.7473 22.3268V22.75C25.496 22.8942 25.1628 23.0065 24.7605 23.0065C23.8243 23.0065 23.4413 22.4272 23.4413 21.546C23.4413 20.699 23.8704 20.087 24.7055 20.087C25.403 20.087 25.8321 20.5384 25.8321 21.4479L25.8306 21.6524ZM27.5856 22.9671C27.3067 23.7353 26.9669 24.1368 26.3273 24.1368V23.6802C26.7066 23.6802 26.9393 23.3798 27.0739 22.9671L26.0046 20.18H26.6173L27.3305 22.2309H27.364L27.999 20.18H28.5954L27.5856 22.9671ZM37.0348 25.2478C36.3246 25.6531 35.5015 25.8843 34.6277 25.8843C31.938 25.8843 29.7436 23.6907 29.7436 21.001C29.7436 18.3113 31.938 16.1168 34.6277 16.1168C35.3936 16.1168 36.1209 16.2953 36.7678 16.6121C36.8697 16.6604 36.9709 16.714 37.0712 16.772L36.6221 17.1743L35.9469 16.476L34.8069 17.4933L34.1309 16.7541L32.0064 18.6682L33.368 20.1696L32.8326 20.6396L34.1741 22.1424L33.6416 22.6124L35.5587 24.7459L36.695 23.6988L37.678 24.8217C37.4832 24.9719 37.2705 25.1147 37.0348 25.2478ZM38.1361 24.3674L37.3508 23.4973L38.2224 22.712L39.0069 23.5828L38.1361 24.3674ZM38.9675 21.7706L38.4447 21.1898L39.0255 20.6671L39.5483 21.2478L38.9675 21.7706Z" fill="white"/>
<path d="M18.7813 20.4766C18.414 20.4766 18.0957 20.7933 18.0957 21.5459C18.0957 22.3096 18.3857 22.616 18.7813 22.616C19.1769 22.616 19.4669 22.3096 19.4669 21.5459C19.4669 20.7926 19.1598 20.4766 18.7813 20.4766Z" fill="white"/>
<path d="M11.2347 20.521C11.0131 20.521 10.851 20.582 10.6279 20.7047V22.5273C10.8064 22.6054 11.0005 22.6165 11.1403 22.6165C11.553 22.6165 11.8653 22.36 11.8653 21.4572C11.8653 20.7493 11.608 20.521 11.2347 20.521Z" fill="white"/>
<path d="M24.6882 20.4595C24.3477 20.4595 24.0859 20.7212 24.0234 21.2782H25.301C25.2735 20.6937 24.9887 20.4595 24.6882 20.4595Z" fill="white"/>
<path d="M8.40446 20.4595C8.06463 20.4595 7.80213 20.7212 7.74115 21.2782H9.01721C8.9897 20.6937 8.70563 20.4595 8.40446 20.4595Z" fill="white"/>
</svg>
