<svg width="660" height="54" viewBox="0 0 660 54" fill="none" xmlns="http://www.w3.org/2000/svg">
<path d="M8.208 15.384V24.78H21.276V15.384H26.676V39H21.276V29.604H8.208V39H2.808V15.384H8.208ZM41.8801 39.432C39.6241 39.432 37.6681 39.072 36.0121 38.352C34.3561 37.608 33.0841 36.552 32.1961 35.184C31.3081 33.792 30.8641 32.16 30.8641 30.288V29.82C30.8641 27.9 31.2961 26.244 32.1601 24.852C33.0481 23.46 34.3201 22.392 35.9761 21.648C37.6321 20.904 39.6001 20.532 41.8801 20.532C44.1361 20.532 46.0801 20.904 47.7121 21.648C49.3441 22.392 50.5921 23.46 51.4561 24.852C52.3441 26.244 52.7881 27.9 52.7881 29.82V30.288C52.7881 32.16 52.3441 33.792 51.4561 35.184C50.5921 36.552 49.3441 37.608 47.7121 38.352C46.0801 39.072 44.1361 39.432 41.8801 39.432ZM41.8441 34.68C43.5961 34.68 44.9521 34.296 45.9121 33.528C46.8961 32.76 47.3881 31.668 47.3881 30.252V29.856C47.3881 28.392 46.9081 27.264 45.9481 26.472C44.9881 25.68 43.6201 25.284 41.8441 25.284C40.0441 25.284 38.6641 25.68 37.7041 26.472C36.7441 27.24 36.2641 28.368 36.2641 29.856V30.252C36.2641 31.668 36.7441 32.76 37.7041 33.528C38.6881 34.296 40.0681 34.68 41.8441 34.68ZM75.4166 29.82C77.1686 30.588 78.0446 31.836 78.0446 33.564V33.924C78.0446 35.556 77.3966 36.816 76.1006 37.704C74.8046 38.568 72.9446 39 70.5206 39H56.7686V20.964H69.9806C72.4046 20.964 74.2766 21.396 75.5966 22.26C76.9166 23.124 77.5766 24.36 77.5766 25.968V26.328C77.5766 27.888 76.8566 29.052 75.4166 29.82ZM61.9886 24.78V28.092H69.6206C70.4606 28.092 71.0966 27.96 71.5286 27.696C71.9606 27.432 72.1766 27.06 72.1766 26.58V26.22C72.1766 25.26 71.3246 24.78 69.6206 24.78H61.9886ZM72.6806 33.276C72.6806 32.796 72.4526 32.424 71.9966 32.16C71.5646 31.896 70.9406 31.764 70.1246 31.764H61.9886V35.184H70.1246C71.8286 35.184 72.6806 34.668 72.6806 33.636V33.276ZM87.3312 20.964V32.664L98.0232 20.964H102.739V39H97.7352V27.3L87.0432 39H82.3272V20.964H87.3312ZM113.211 20.964V27.66H123.363V20.964H128.583V39H123.363V32.232H113.211V39H107.991V20.964H113.211ZM155.251 38.244V39H149.419L143.227 32.16H139.051V39H133.831V20.964H139.051V27.66H143.011L148.915 20.964H154.855V21.72L147.727 29.784L155.251 38.244ZM163.55 20.964V32.664L174.242 20.964H178.958V39H173.954V27.3L163.262 39H158.546V20.964H163.55ZM191.518 33.672V34.428L187.99 44.148H183.166L185.722 33.672H191.518ZM231.132 38.964H225.912V33.564H222.78L216.408 39H209.964V38.352L215.832 33.456C213.96 33.192 212.496 32.556 211.44 31.548C210.384 30.54 209.856 29.244 209.856 27.66V27.228C209.856 25.308 210.552 23.784 211.944 22.656C213.336 21.528 215.244 20.964 217.668 20.964H231.132V38.964ZM225.912 29.64V25.212H218.064C217.128 25.212 216.42 25.392 215.94 25.752C215.46 26.088 215.22 26.58 215.22 27.228V27.66C215.22 28.308 215.46 28.8 215.94 29.136C216.444 29.472 217.152 29.64 218.064 29.64H225.912ZM257.802 38.244V39H251.97L245.778 32.16H241.602V39H236.382V20.964H241.602V27.66H245.562L251.466 20.964H257.406V21.72L250.278 29.784L257.802 38.244ZM266.209 20.964V39H261.025V20.964H266.209ZM263.617 18.876C262.657 18.876 261.877 18.6 261.277 18.048C260.677 17.472 260.377 16.728 260.377 15.816C260.377 14.904 260.677 14.172 261.277 13.62C261.877 13.044 262.657 12.756 263.617 12.756C264.601 12.756 265.381 13.044 265.957 13.62C266.557 14.172 266.857 14.904 266.857 15.816C266.857 16.728 266.557 17.472 265.957 18.048C265.357 18.6 264.577 18.876 263.617 18.876Z" fill="black"/>
<path d="M285.504 25.644H284.504V26.644H285.504V25.644ZM285.504 20.964V19.964H284.504V20.964H285.504ZM306.312 20.964H307.312V19.964H306.312V20.964ZM306.312 25.644V26.644H307.312V25.644H306.312ZM298.572 25.644V24.644H297.572V25.644H298.572ZM298.572 39V40H299.572V39H298.572ZM293.316 39H292.316V40H293.316V39ZM293.316 25.644H294.316V24.644H293.316V25.644ZM286.504 25.644V20.964H284.504V25.644H286.504ZM285.504 21.964H306.312V19.964H285.504V21.964ZM305.312 20.964V25.644H307.312V20.964H305.312ZM306.312 24.644H298.572V26.644H306.312V24.644ZM297.572 25.644V39H299.572V25.644H297.572ZM298.572 38H293.316V40H298.572V38ZM294.316 39V25.644H292.316V39H294.316ZM293.316 24.644H285.504V26.644H293.316V24.644ZM330.032 31.512V32.512H331.032V31.512H330.032ZM313.976 31.512V30.512H312.816L312.987 31.6593L313.976 31.512ZM315.632 34.104L315.092 34.9459H315.092L315.632 34.104ZM322.94 34.428L322.552 33.5064L322.94 34.428ZM324.524 32.844V31.844H323.716L323.546 32.6345L324.524 32.844ZM329.996 32.844L330.988 32.968L331.129 31.844H329.996V32.844ZM326.828 37.74L327.354 38.5905L327.357 38.5886L326.828 37.74ZM313.652 38.352L313.237 39.262L313.248 39.2669L313.652 38.352ZM309.908 35.184L309.063 35.718V35.718L309.908 35.184ZM309.908 24.816L309.065 24.2782L309.063 24.282L309.908 24.816ZM313.652 21.648L314.061 22.5607L314.067 22.5579L313.652 21.648ZM327.224 22.944L326.568 23.6985L326.578 23.7074L327.224 22.944ZM314.12 27.768L313.166 27.4669L312.756 28.768H314.12V27.768ZM324.524 27.768V28.768H325.889L325.478 27.4669L324.524 27.768ZM330.032 30.512H313.976V32.512H330.032V30.512ZM312.987 31.6593C313.196 33.0644 313.906 34.1855 315.092 34.9459L316.172 33.2621C315.486 32.8225 315.092 32.2156 314.965 31.3647L312.987 31.6593ZM315.092 34.9459C316.244 35.6842 317.714 36.004 319.412 36.004V34.004C317.942 34.004 316.892 33.7238 316.172 33.2621L315.092 34.9459ZM319.412 36.004C320.93 36.004 322.251 35.8033 323.328 35.3496L322.552 33.5064C321.805 33.8207 320.774 34.004 319.412 34.004V36.004ZM323.328 35.3496C324.4 34.8984 325.263 34.1702 325.502 33.0535L323.546 32.6345C323.498 32.8618 323.304 33.1896 322.552 33.5064L323.328 35.3496ZM324.524 33.844H329.996V31.844H324.524V33.844ZM329.004 32.72C328.778 34.525 327.898 35.8945 326.299 36.8914L327.357 38.5886C329.454 37.2815 330.686 35.387 330.988 32.968L329.004 32.72ZM326.302 36.8895C324.692 37.885 322.426 38.432 319.412 38.432V40.432C322.638 40.432 325.316 39.851 327.354 38.5905L326.302 36.8895ZM319.412 38.432C317.311 38.432 315.534 38.0893 314.056 37.4371L313.248 39.2669C315.034 40.0547 317.097 40.432 319.412 40.432V38.432ZM314.067 37.4421C312.592 36.7697 311.503 35.8359 310.754 34.65L309.063 35.718C310.042 37.2681 311.448 38.4463 313.237 39.2619L314.067 37.4421ZM310.754 34.65C310.004 33.4636 309.612 32.0465 309.612 30.36H307.612C307.612 32.3695 308.084 34.1684 309.063 35.718L310.754 34.65ZM309.612 30.36V29.676H307.612V30.36H309.612ZM309.612 29.676C309.612 27.9627 310.006 26.5344 310.754 25.35L309.063 24.282C308.083 25.8336 307.612 27.6453 307.612 29.676H309.612ZM310.751 25.3538C311.527 24.1377 312.618 23.2065 314.061 22.5607L313.243 20.7353C311.47 21.5295 310.065 22.7103 309.065 24.2782L310.751 25.3538ZM314.067 22.5579C315.542 21.8853 317.315 21.532 319.412 21.532V19.532C317.093 19.532 315.026 19.9227 313.237 20.7381L314.067 22.5579ZM319.412 21.532C322.621 21.532 324.96 22.2992 326.568 23.6984L327.88 22.1896C325.793 20.3728 322.923 19.532 319.412 19.532V21.532ZM326.578 23.7074C328.186 25.0675 329.032 26.9973 329.032 29.64H331.032C331.032 26.5227 330.007 23.9885 327.87 22.1806L326.578 23.7074ZM329.032 29.64V31.512H331.032V29.64H329.032ZM319.376 23.888C317.87 23.888 316.538 24.16 315.436 24.7688L316.404 26.5192C317.126 26.12 318.099 25.888 319.376 25.888V23.888ZM315.436 24.7688C314.322 25.3847 313.539 26.2874 313.166 27.4669L315.074 28.0691C315.277 27.4246 315.694 26.9113 316.404 26.5192L315.436 24.7688ZM314.12 28.768H324.524V26.768H314.12V28.768ZM325.478 27.4669C325.108 26.2968 324.345 25.3937 323.254 24.7743L322.266 26.5137C322.951 26.9023 323.364 27.4152 323.57 28.0691L325.478 27.4669ZM323.254 24.7743C322.173 24.1607 320.86 23.888 319.376 23.888V25.888C320.628 25.888 321.572 26.1193 322.266 26.5137L323.254 24.7743ZM353.86 24.528L353.215 25.2918L353.221 25.2967L353.227 25.3015L353.86 24.528ZM355.12 35.544L354.306 34.9642L354.298 34.9748L355.12 35.544ZM351.412 38.424L351.027 37.5013L351.412 38.424ZM337.3 36.66L336.607 37.3803L336.611 37.3848L337.3 36.66ZM336.94 18.552L337.676 19.2299L336.94 18.552ZM344.86 15.312L344.777 14.3154L344.773 14.3158L344.86 15.312ZM348.748 14.988L348.69 13.9897L348.678 13.9904L348.665 13.9915L348.748 14.988ZM349.612 14.772L349.082 13.924L349.056 13.9403L349.031 13.9583L349.612 14.772ZM349.9 13.944V12.944H348.9V13.944H349.9ZM355.372 13.944H356.372V12.944H355.372V13.944ZM350.656 19.38L350.739 20.3766L350.74 20.3765L350.656 19.38ZM345.004 19.848L344.922 18.8514L344.917 18.8518L345.004 19.848ZM340.756 21.252L341.389 22.0269L341.395 22.0219L341.401 22.0169L340.756 21.252ZM339.388 24.672H338.388V26.7366L340.008 25.4566L339.388 24.672ZM349.612 27.732L349.039 28.5512H349.039L349.612 27.732ZM339.64 28.884L338.921 28.189L338.64 28.4797V28.884H339.64ZM349.576 33.996L350.126 34.8312L350.133 34.8265L350.14 34.8218L349.576 33.996ZM346.804 23.368C349.65 23.368 351.745 24.0499 353.215 25.2918L354.506 23.7642C352.567 22.1261 349.959 21.368 346.804 21.368V23.368ZM353.227 25.3015C354.694 26.5037 355.452 28.1599 355.452 30.396H357.452C357.452 27.6401 356.483 25.3843 354.494 23.7545L353.227 25.3015ZM355.452 30.396V31.152H357.452V30.396H355.452ZM355.452 31.152C355.452 32.6453 355.061 33.902 354.306 34.9642L355.935 36.1238C356.955 34.69 357.452 33.0187 357.452 31.152H355.452ZM354.298 34.9748C353.558 36.0434 352.485 36.8918 351.027 37.5013L351.798 39.3467C353.556 38.6122 354.954 37.5406 355.943 36.1132L354.298 34.9748ZM351.027 37.5013C349.568 38.1111 347.808 38.432 345.724 38.432V40.432C348.008 40.432 350.041 40.0809 351.798 39.3467L351.027 37.5013ZM345.724 38.432C342.213 38.432 339.688 37.5499 337.989 35.9352L336.611 37.3848C338.801 39.4661 341.892 40.432 345.724 40.432V38.432ZM337.994 35.9397C336.301 34.3092 335.384 31.9036 335.384 28.56H333.384C333.384 32.2724 334.412 35.2668 336.607 37.3803L337.994 35.9397ZM335.384 28.56V26.652H333.384V28.56H335.384ZM335.384 26.652C335.384 23.2475 336.201 20.829 337.676 19.2299L336.205 17.8741C334.272 19.971 333.384 22.9525 333.384 26.652H335.384ZM337.676 19.2299C339.15 17.6303 341.514 16.6078 344.947 16.3082L344.773 14.3158C341.055 14.6402 338.138 15.7777 336.205 17.8741L337.676 19.2299ZM344.943 16.3085L348.831 15.9845L348.665 13.9915L344.777 14.3155L344.943 16.3085ZM348.807 15.9863C349.251 15.9602 349.783 15.8789 350.194 15.5857L349.031 13.9583C349.084 13.9209 349.099 13.9281 349.028 13.9459C348.962 13.9624 348.853 13.9801 348.69 13.9897L348.807 15.9863ZM350.142 15.62C350.647 15.3044 350.9 14.7918 350.9 14.232H348.9C348.9 14.2168 348.904 14.1548 348.946 14.0764C348.989 13.9954 349.047 13.9463 349.082 13.924L350.142 15.62ZM350.9 14.232V13.944H348.9V14.232H350.9ZM349.9 14.944H355.372V12.944H349.9V14.944ZM354.372 13.944V14.952H356.372V13.944H354.372ZM354.372 14.952C354.372 16.0926 354.046 16.8416 353.509 17.346C352.948 17.8724 352.021 18.2619 350.573 18.3835L350.74 20.3765C352.436 20.2341 353.867 19.7536 354.878 18.804C355.913 17.8324 356.372 16.4994 356.372 14.952H354.372ZM350.574 18.3834L344.922 18.8514L345.087 20.8446L350.739 20.3766L350.574 18.3834ZM344.917 18.8518C342.908 19.0276 341.252 19.5275 340.112 20.4871L341.401 22.0169C342.085 21.4405 343.261 21.0044 345.092 20.8442L344.917 18.8518ZM340.124 20.4771C338.932 21.45 338.388 22.8431 338.388 24.492H340.388C340.388 23.3089 340.757 22.542 341.389 22.0269L340.124 20.4771ZM338.388 24.492V24.672H340.388V24.492H338.388ZM340.008 25.4566C341.741 24.0877 343.98 23.368 346.804 23.368V21.368C343.628 21.368 340.924 22.1843 338.768 23.8874L340.008 25.4566ZM352.052 30.576C352.052 29.0429 351.427 27.7816 350.186 26.9128L349.039 28.5512C349.718 29.0264 350.052 29.6611 350.052 30.576H352.052ZM350.186 26.9128C348.993 26.078 347.406 25.724 345.544 25.724V27.724C347.187 27.724 348.311 28.042 349.039 28.5512L350.186 26.9128ZM345.544 25.724C342.807 25.724 340.55 26.5047 338.921 28.189L340.359 29.579C341.515 28.3833 343.194 27.724 345.544 27.724V25.724ZM338.64 28.884V29.964H340.64V28.884H338.64ZM338.64 29.964C338.64 31.8315 339.195 33.4007 340.459 34.4779C341.691 35.5291 343.434 35.968 345.508 35.968V33.968C343.671 33.968 342.48 33.5729 341.756 32.9561C341.063 32.3653 340.64 31.4325 340.64 29.964H338.64ZM345.508 35.968C347.346 35.968 348.92 35.6259 350.126 34.8312L349.026 33.1608C348.265 33.6621 347.127 33.968 345.508 33.968V35.968ZM350.14 34.8218C351.393 33.9664 352.052 32.7356 352.052 31.224H350.052C350.052 32.0644 349.728 32.6816 349.012 33.1702L350.14 34.8218ZM352.052 31.224V30.576H350.052V31.224H352.052ZM381.692 31.512V32.512H382.692V31.512H381.692ZM365.636 31.512V30.512H364.476L364.647 31.6593L365.636 31.512ZM367.292 34.104L366.752 34.9459L367.292 34.104ZM374.6 34.428L374.212 33.5064L374.6 34.428ZM376.184 32.844V31.844H375.376L375.206 32.6345L376.184 32.844ZM381.656 32.844L382.648 32.968L382.789 31.844H381.656V32.844ZM378.488 37.74L379.014 38.5905L379.017 38.5886L378.488 37.74ZM365.312 38.352L364.897 39.262L364.908 39.2669L365.312 38.352ZM361.568 35.184L360.723 35.718V35.718L361.568 35.184ZM361.568 24.816L360.725 24.2782L360.723 24.282L361.568 24.816ZM365.312 21.648L365.721 22.5607L365.727 22.5579L365.312 21.648ZM378.884 22.944L378.228 23.6985L378.238 23.7074L378.884 22.944ZM365.78 27.768L364.826 27.4669L364.416 28.768H365.78V27.768ZM376.184 27.768V28.768H377.549L377.138 27.4669L376.184 27.768ZM381.692 30.512H365.636V32.512H381.692V30.512ZM364.647 31.6593C364.856 33.0644 365.566 34.1855 366.752 34.9459L367.832 33.2621C367.146 32.8225 366.752 32.2156 366.625 31.3647L364.647 31.6593ZM366.752 34.9459C367.904 35.6842 369.374 36.004 371.072 36.004V34.004C369.602 34.004 368.552 33.7238 367.832 33.2621L366.752 34.9459ZM371.072 36.004C372.59 36.004 373.911 35.8033 374.988 35.3496L374.212 33.5064C373.465 33.8207 372.434 34.004 371.072 34.004V36.004ZM374.988 35.3496C376.06 34.8984 376.923 34.1702 377.162 33.0535L375.206 32.6345C375.158 32.8618 374.964 33.1896 374.212 33.5064L374.988 35.3496ZM376.184 33.844H381.656V31.844H376.184V33.844ZM380.664 32.72C380.438 34.525 379.558 35.8945 377.959 36.8914L379.017 38.5886C381.114 37.2815 382.346 35.387 382.648 32.968L380.664 32.72ZM377.962 36.8895C376.352 37.885 374.086 38.432 371.072 38.432V40.432C374.298 40.432 376.976 39.851 379.014 38.5905L377.962 36.8895ZM371.072 38.432C368.971 38.432 367.194 38.0893 365.716 37.4371L364.908 39.2669C366.694 40.0547 368.757 40.432 371.072 40.432V38.432ZM365.727 37.4421C364.252 36.7697 363.163 35.8359 362.414 34.65L360.723 35.718C361.702 37.2681 363.108 38.4463 364.897 39.2619L365.727 37.4421ZM362.414 34.65C361.664 33.4636 361.272 32.0465 361.272 30.36H359.272C359.272 32.3695 359.744 34.1684 360.723 35.718L362.414 34.65ZM361.272 30.36V29.676H359.272V30.36H361.272ZM361.272 29.676C361.272 27.9627 361.666 26.5344 362.414 25.35L360.723 24.282C359.743 25.8336 359.272 27.6453 359.272 29.676H361.272ZM362.411 25.3538C363.187 24.1377 364.278 23.2065 365.721 22.5607L364.903 20.7353C363.13 21.5295 361.725 22.7103 360.725 24.2782L362.411 25.3538ZM365.727 22.5579C367.202 21.8853 368.975 21.532 371.072 21.532V19.532C368.753 19.532 366.686 19.9227 364.897 20.7381L365.727 22.5579ZM371.072 21.532C374.281 21.532 376.62 22.2992 378.228 23.6984L379.54 22.1896C377.453 20.3728 374.583 19.532 371.072 19.532V21.532ZM378.238 23.7074C379.846 25.0675 380.692 26.9973 380.692 29.64H382.692C382.692 26.5227 381.667 23.9885 379.53 22.1806L378.238 23.7074ZM380.692 29.64V31.512H382.692V29.64H380.692ZM371.036 23.888C369.53 23.888 368.198 24.16 367.096 24.7688L368.064 26.5192C368.786 26.12 369.759 25.888 371.036 25.888V23.888ZM367.096 24.7688C365.982 25.3847 365.199 26.2874 364.826 27.4669L366.734 28.0691C366.937 27.4246 367.354 26.9113 368.064 26.5192L367.096 24.7688ZM365.78 28.768H376.184V26.768H365.78V28.768ZM377.138 27.4669C376.768 26.2968 376.005 25.3937 374.914 24.7743L373.926 26.5137C374.611 26.9023 375.024 27.4152 375.23 28.0691L377.138 27.4669ZM374.914 24.7743C373.833 24.1607 372.52 23.888 371.036 23.888V25.888C372.288 25.888 373.232 26.1193 373.926 26.5137L374.914 24.7743Z" fill="black" fill-opacity="0.6"/>
<path d="M420.232 29.856C421.12 30.264 421.792 30.804 422.248 31.476C422.728 32.124 422.968 32.856 422.968 33.672V33.924C422.968 35.724 422.08 37.092 420.304 38.028C418.552 38.964 415.984 39.432 412.6 39.432C408.832 39.432 406.048 38.796 404.248 37.524C402.448 36.228 401.548 34.236 401.548 31.548V31.332H406.588V31.548C406.588 32.82 407.068 33.756 408.028 34.356C408.988 34.932 410.524 35.22 412.636 35.22C414.244 35.22 415.456 35.076 416.272 34.788C417.112 34.476 417.532 34.044 417.532 33.492V33.276C417.532 32.796 417.304 32.448 416.848 32.232C416.392 32.016 415.672 31.908 414.688 31.908H409.324V27.948H414.328C415.288 27.948 415.984 27.84 416.416 27.624C416.872 27.408 417.1 27.06 417.1 26.58V26.364C417.1 25.836 416.68 25.44 415.84 25.176C415 24.912 413.776 24.78 412.168 24.78C410.176 24.78 408.748 25.068 407.884 25.644C407.02 26.196 406.588 27.132 406.588 28.452V28.668H401.548V28.452C401.548 23.172 405.172 20.532 412.42 20.532C415.612 20.532 418.084 21.012 419.836 21.972C421.588 22.932 422.464 24.3 422.464 26.076V26.328C422.464 27.792 421.72 28.968 420.232 29.856ZM450.133 34.428V39H447.073C445.969 39 445.009 38.82 444.193 38.46C443.401 38.076 442.801 37.536 442.393 36.84C440.569 38.568 437.977 39.432 434.617 39.432C432.073 39.432 430.093 38.952 428.677 37.992C427.261 37.032 426.553 35.688 426.553 33.96C426.553 32.496 427.081 31.332 428.137 30.468C429.193 29.58 430.729 29.028 432.745 28.812L441.637 27.84C441.349 26.064 439.741 25.176 436.813 25.176C435.277 25.176 434.077 25.392 433.213 25.824C432.373 26.232 431.953 26.808 431.953 27.552V27.66H426.697V27.552C426.697 26.136 427.105 24.9 427.921 23.844C428.761 22.788 429.949 21.972 431.485 21.396C433.021 20.82 434.809 20.532 436.849 20.532C440.017 20.532 442.477 21.24 444.229 22.656C446.005 24.072 446.893 26.028 446.893 28.524V32.988C446.893 33.948 447.445 34.428 448.549 34.428H450.133ZM434.977 35.256C436.513 35.256 437.869 35.028 439.045 34.572C440.245 34.092 441.121 33.456 441.673 32.664V31.44L434.113 32.304C433.321 32.4 432.733 32.568 432.349 32.808C431.965 33.048 431.773 33.384 431.773 33.816C431.773 34.776 432.841 35.256 434.977 35.256ZM476.407 34.428V43.608H471.187V39H453.007V20.964H458.227V34.428H467.767V20.964H472.987V34.428H476.407ZM484.556 20.964V39H479.372V20.964H484.556ZM481.964 18.876C481.004 18.876 480.224 18.6 479.624 18.048C479.024 17.472 478.724 16.728 478.724 15.816C478.724 14.904 479.024 14.172 479.624 13.62C480.224 13.044 481.004 12.756 481.964 12.756C482.948 12.756 483.728 13.044 484.304 13.62C484.904 14.172 485.204 14.904 485.204 15.816C485.204 16.728 484.904 17.472 484.304 18.048C483.704 18.6 482.924 18.876 481.964 18.876ZM511.165 38.244V39H505.333L499.141 32.16H494.965V39H489.745V20.964H494.965V27.66H498.925L504.829 20.964H510.769V21.72L503.641 29.784L511.165 38.244ZM536.301 34.428V39H533.241C532.137 39 531.177 38.82 530.361 38.46C529.569 38.076 528.969 37.536 528.561 36.84C526.737 38.568 524.145 39.432 520.785 39.432C518.241 39.432 516.261 38.952 514.845 37.992C513.429 37.032 512.721 35.688 512.721 33.96C512.721 32.496 513.249 31.332 514.305 30.468C515.361 29.58 516.897 29.028 518.913 28.812L527.805 27.84C527.517 26.064 525.909 25.176 522.981 25.176C521.445 25.176 520.245 25.392 519.381 25.824C518.541 26.232 518.121 26.808 518.121 27.552V27.66H512.865V27.552C512.865 26.136 513.273 24.9 514.089 23.844C514.929 22.788 516.117 21.972 517.653 21.396C519.189 20.82 520.977 20.532 523.017 20.532C526.185 20.532 528.645 21.24 530.397 22.656C532.173 24.072 533.061 26.028 533.061 28.524V32.988C533.061 33.948 533.613 34.428 534.717 34.428H536.301ZM521.145 35.256C522.681 35.256 524.037 35.028 525.213 34.572C526.413 34.092 527.289 33.456 527.841 32.664V31.44L520.281 32.304C519.489 32.4 518.901 32.568 518.517 32.808C518.133 33.048 517.941 33.384 517.941 33.816C517.941 34.776 519.009 35.256 521.145 35.256ZM557.823 29.82C559.575 30.588 560.451 31.836 560.451 33.564V33.924C560.451 35.556 559.803 36.816 558.507 37.704C557.211 38.568 555.351 39 552.927 39H539.175V20.964H552.387C554.811 20.964 556.683 21.396 558.003 22.26C559.323 23.124 559.983 24.36 559.983 25.968V26.328C559.983 27.888 559.263 29.052 557.823 29.82ZM544.395 24.78V28.092H552.027C552.867 28.092 553.503 27.96 553.935 27.696C554.367 27.432 554.583 27.06 554.583 26.58V26.22C554.583 25.26 553.731 24.78 552.027 24.78H544.395ZM555.087 33.276C555.087 32.796 554.859 32.424 554.403 32.16C553.971 31.896 553.347 31.764 552.531 31.764H544.395V35.184H552.531C554.235 35.184 555.087 34.668 555.087 33.636V33.276ZM585.109 39H579.889V25.572H571.429L571.285 30.288C571.093 36.096 568.825 39 564.481 39H562.357V34.356H563.257C564.313 34.356 565.081 34.02 565.561 33.348C566.065 32.652 566.329 31.524 566.353 29.964L566.605 20.964H585.109V39ZM610.354 38.964H605.134V33.564H602.002L595.63 39H589.186V38.352L595.054 33.456C593.182 33.192 591.718 32.556 590.662 31.548C589.606 30.54 589.078 29.244 589.078 27.66V27.228C589.078 25.308 589.774 23.784 591.166 22.656C592.558 21.528 594.466 20.964 596.89 20.964H610.354V38.964ZM605.134 29.64V25.212H597.286C596.35 25.212 595.642 25.392 595.162 25.752C594.682 26.088 594.442 26.58 594.442 27.228V27.66C594.442 28.308 594.682 28.8 595.162 29.136C595.666 29.472 596.374 29.64 597.286 29.64H605.134ZM612.426 25.644V20.964H633.234V25.644H625.494V39H620.238V25.644H612.426ZM649.918 25.464C652.318 25.464 654.202 26.052 655.57 27.228C656.962 28.404 657.658 30.012 657.658 32.052V32.448C657.658 34.464 656.962 36.06 655.57 37.236C654.178 38.388 652.294 38.964 649.918 38.964H636.382V20.964H641.602V25.464H649.918ZM652.33 32.052C652.33 31.356 652.09 30.828 651.61 30.468C651.154 30.084 650.47 29.892 649.558 29.892H641.602V34.536H649.558C650.446 34.536 651.13 34.356 651.61 33.996C652.09 33.636 652.33 33.12 652.33 32.448V32.052Z" fill="#4173CD"/>
<path d="M284 48L382 49" stroke="black" stroke-opacity="0.53"/>
</svg>
