<svg width="402" height="30" viewBox="0 0 402 30" fill="none" xmlns="http://www.w3.org/2000/svg">
<path d="M18.6 22H17.1V10.8L11.08 22H9.48L3.48 10.76V22H1.98V8.88H4.1L10.3 20.28L16.48 8.88H18.6V22ZM27.4659 22.22C26.2793 22.22 25.2393 22.02 24.3459 21.62C23.4659 21.22 22.7859 20.6467 22.3059 19.9C21.8393 19.1533 21.6059 18.28 21.6059 17.28V16.9C21.6059 15.8867 21.8393 15.0067 22.3059 14.26C22.7859 13.5 23.4659 12.92 24.3459 12.52C25.2259 12.12 26.2659 11.92 27.4659 11.92C28.6393 11.92 29.6593 12.1267 30.5259 12.54C31.4059 12.94 32.0793 13.5133 32.5459 14.26C33.0259 15.0067 33.2659 15.8867 33.2659 16.9V17.28C33.2659 18.28 33.0259 19.1533 32.5459 19.9C32.0793 20.6467 31.4059 21.22 30.5259 21.62C29.6593 22.02 28.6393 22.22 27.4659 22.22ZM27.4459 20.86C28.7793 20.86 29.8259 20.54 30.5859 19.9C31.3593 19.26 31.7459 18.3867 31.7459 17.28V16.9C31.7459 15.78 31.3593 14.9 30.5859 14.26C29.8259 13.6067 28.7793 13.28 27.4459 13.28C26.0859 13.28 25.0259 13.6 24.2659 14.24C23.5059 14.88 23.1259 15.7667 23.1259 16.9V17.28C23.1259 18.3867 23.5126 19.26 24.2859 19.9C25.0593 20.54 26.1126 20.86 27.4459 20.86ZM53.0561 21.78V22H51.4161L47.1361 17.7H44.4161V22H42.9361V17.7H40.2161L35.9361 22H34.2961V21.78L38.9761 17L34.5561 12.36V12.14H36.2161L40.2961 16.4H42.9361V12.14H44.4161V16.4H47.0561L51.1361 12.14H52.7961V12.36L48.3761 17.02L53.0561 21.78ZM66.2877 22H64.8077V13.46H58.1077L58.0077 17.46C57.9677 19.0333 57.681 20.1867 57.1477 20.92C56.6277 21.64 55.821 22 54.7277 22H53.9077V20.68H54.4077C55.1543 20.68 55.6943 20.4267 56.0277 19.92C56.3743 19.4133 56.561 18.5667 56.5877 17.38L56.7077 12.14H66.2877V22ZM71.3259 12.14V20.18L79.1859 12.14H80.5459V22H79.1059V13.96L71.2459 22H69.8859V12.14H71.3259ZM93.5038 17C94.7171 17.3733 95.3238 18.0867 95.3238 19.14V19.34C95.3238 20.1933 95.0038 20.8533 94.3638 21.32C93.7238 21.7733 92.8104 22 91.6238 22H84.1438V12.14H91.3638C92.5504 12.14 93.4638 12.3667 94.1037 12.82C94.7571 13.2733 95.0838 13.9067 95.0838 14.72V14.92C95.0838 15.4 94.9438 15.82 94.6638 16.18C94.3971 16.5267 94.0104 16.8 93.5038 17ZM85.6238 13.3V16.44H91.3038C92.0238 16.44 92.5771 16.3133 92.9638 16.06C93.3638 15.7933 93.5638 15.42 93.5638 14.94V14.74C93.5638 14.2733 93.3704 13.92 92.9838 13.68C92.5971 13.4267 92.0371 13.3 91.3038 13.3H85.6238ZM93.8038 19.12C93.8038 18.64 93.6104 18.2733 93.2238 18.02C92.8371 17.7533 92.2904 17.62 91.5838 17.62H85.6238V20.84H91.5838C92.3038 20.84 92.8504 20.7133 93.2238 20.46C93.6104 20.1933 93.8038 19.8133 93.8038 19.32V19.12ZM103.423 22.22C102.236 22.22 101.196 22.02 100.303 21.62C99.423 21.22 98.743 20.6467 98.263 19.9C97.7963 19.1533 97.563 18.28 97.563 17.28V16.9C97.563 15.8867 97.7963 15.0067 98.263 14.26C98.743 13.5 99.423 12.92 100.303 12.52C101.183 12.12 102.223 11.92 103.423 11.92C104.596 11.92 105.616 12.1267 106.483 12.54C107.363 12.94 108.036 13.5133 108.503 14.26C108.983 15.0067 109.223 15.8867 109.223 16.9V17.28C109.223 18.28 108.983 19.1533 108.503 19.9C108.036 20.6467 107.363 21.22 106.483 21.62C105.616 22.02 104.596 22.22 103.423 22.22ZM103.403 20.86C104.736 20.86 105.783 20.54 106.543 19.9C107.316 19.26 107.703 18.3867 107.703 17.28V16.9C107.703 15.78 107.316 14.9 106.543 14.26C105.783 13.6067 104.736 13.28 103.403 13.28C102.043 13.28 100.983 13.6 100.223 14.24C99.463 14.88 99.083 15.7667 99.083 16.9V17.28C99.083 18.3867 99.4696 19.26 100.243 19.9C101.016 20.54 102.07 20.86 103.403 20.86ZM118.482 13.48V12.14H130.122V13.48H125.102V22H123.602V13.48H118.482ZM133.611 12.14V20.18L141.471 12.14H142.831V22H141.391V13.96L133.531 22H132.171V12.14H133.611ZM163.277 17C163.85 17.2 164.297 17.4867 164.617 17.86C164.937 18.2333 165.097 18.66 165.097 19.14V19.28C165.097 20.2533 164.63 20.9867 163.697 21.48C162.763 21.9733 161.383 22.22 159.557 22.22C157.65 22.22 156.21 21.8867 155.237 21.22C154.263 20.5533 153.777 19.5533 153.777 18.22V18.08H155.257V18.22C155.257 19.1267 155.61 19.8067 156.317 20.26C157.037 20.7 158.123 20.92 159.577 20.92C160.95 20.92 161.957 20.7867 162.597 20.52C163.25 20.24 163.577 19.8067 163.577 19.22V19.06C163.577 18.6067 163.37 18.2667 162.957 18.04C162.557 17.8 161.97 17.68 161.197 17.68H157.737V16.38H160.977C161.75 16.38 162.33 16.2667 162.717 16.04C163.117 15.8 163.317 15.4467 163.317 14.98V14.82C163.317 13.7533 162.017 13.22 159.417 13.22C158.003 13.22 156.957 13.4467 156.277 13.9C155.597 14.34 155.257 15.02 155.257 15.94V16.08H153.777V15.94C153.777 14.6333 154.263 13.64 155.237 12.96C156.21 12.2667 157.63 11.92 159.497 11.92C161.23 11.92 162.55 12.1667 163.457 12.66C164.377 13.14 164.837 13.8467 164.837 14.78V14.94C164.837 15.38 164.697 15.78 164.417 16.14C164.15 16.4867 163.77 16.7733 163.277 17ZM169.589 12.14V16.4H177.389V12.14H178.869V22H177.389V17.72H169.589V22H168.109V12.14H169.589ZM194.651 20.7V22H193.431C192.777 22 192.237 21.86 191.811 21.58C191.384 21.3 191.104 20.9067 190.971 20.4C189.851 21.6133 188.251 22.22 186.171 22.22C184.757 22.22 183.677 21.9867 182.931 21.52C182.184 21.04 181.811 20.3533 181.811 19.46C181.811 17.86 183.011 16.9333 185.411 16.68L190.891 16.1V16.08C190.891 15.1733 190.571 14.4867 189.931 14.02C189.291 13.5533 188.351 13.32 187.111 13.32C185.977 13.32 185.064 13.5333 184.371 13.96C183.677 14.3867 183.331 14.9467 183.331 15.64V15.76H181.871V15.64C181.871 14.92 182.091 14.28 182.531 13.72C182.971 13.1467 183.584 12.7067 184.371 12.4C185.171 12.08 186.091 11.92 187.131 11.92C188.784 11.92 190.071 12.2867 190.991 13.02C191.911 13.7533 192.371 14.78 192.371 16.1V19.44C192.371 19.84 192.491 20.1533 192.731 20.38C192.971 20.5933 193.317 20.7 193.771 20.7H194.651ZM186.151 20.92C187.257 20.92 188.224 20.74 189.051 20.38C189.877 20.0067 190.491 19.4867 190.891 18.82V17.32L185.711 17.86C184.884 17.9533 184.271 18.1333 183.871 18.4C183.484 18.6533 183.291 19.0067 183.291 19.46C183.291 20.4333 184.244 20.92 186.151 20.92ZM197.947 12.14V20.18L205.807 12.14H207.167V22H205.727V13.96L197.867 22H196.507V12.14H197.947ZM201.847 10.64C200.474 10.64 199.434 10.4267 198.727 10C198.02 9.56 197.667 8.92667 197.667 8.1V8H199.027V8.1C199.027 8.51333 199.267 8.83333 199.747 9.06C200.227 9.27333 200.927 9.38 201.847 9.38C202.74 9.38 203.42 9.27333 203.887 9.06C204.354 8.83333 204.587 8.51333 204.587 8.1V8H206.027V8.1C206.027 8.94 205.674 9.57333 204.967 10C204.26 10.4267 203.22 10.64 201.847 10.64ZM223.825 20.7V24.56H222.345V22H210.945V24.56H209.485L209.465 20.7H210.965C211.685 19.66 212.052 18.3933 212.065 16.9L212.145 12.14H221.805V20.7H223.825ZM220.345 20.7V13.46H213.505L213.425 16.92C213.412 17.7333 213.318 18.4467 213.145 19.06C212.985 19.6733 212.752 20.22 212.445 20.7H220.345ZM236.228 17.56H226.388C226.428 18.5867 226.821 19.3933 227.568 19.98C228.328 20.5667 229.348 20.86 230.628 20.86C231.801 20.86 232.755 20.6467 233.488 20.22C234.221 19.7933 234.608 19.2267 234.648 18.52H236.228C236.148 19.6667 235.608 20.5733 234.608 21.24C233.608 21.8933 232.281 22.22 230.628 22.22C229.455 22.22 228.435 22.02 227.568 21.62C226.701 21.22 226.028 20.6533 225.548 19.92C225.081 19.1733 224.848 18.3 224.848 17.3V16.86C224.848 15.86 225.081 14.9867 225.548 14.24C226.028 13.4933 226.701 12.92 227.568 12.52C228.435 12.12 229.455 11.92 230.628 11.92C231.761 11.92 232.748 12.12 233.588 12.52C234.441 12.9067 235.095 13.4667 235.548 14.2C236.001 14.9333 236.228 15.8 236.228 16.8V17.56ZM230.608 13.28C229.381 13.28 228.395 13.5533 227.648 14.1C226.915 14.6333 226.501 15.3733 226.408 16.32H234.668C234.588 15.3733 234.188 14.6333 233.468 14.1C232.748 13.5533 231.795 13.28 230.608 13.28ZM240.526 12.14V20.7H246.906V12.14H248.386V20.7H254.746V12.14H256.226V22H239.046V12.14H240.526ZM394.775 17.96C394.775 17.2133 394.935 16.62 395.255 16.18C395.575 15.7267 396.155 15.2667 396.995 14.8C397.862 14.3333 398.449 13.94 398.755 13.62C399.062 13.2867 399.215 12.9067 399.215 12.48V12.3C399.215 11.58 398.895 11.02 398.255 10.62C397.629 10.22 396.749 10.02 395.615 10.02C394.415 10.02 393.475 10.26 392.795 10.74C392.129 11.2067 391.795 11.86 391.795 12.7V13.12H390.315V12.7C390.315 11.4467 390.789 10.46 391.735 9.74C392.682 9.02 393.969 8.66 395.595 8.66C396.595 8.66 397.482 8.81333 398.255 9.12C399.042 9.42667 399.649 9.85333 400.075 10.4C400.515 10.9467 400.735 11.5667 400.735 12.26V12.52C400.735 13.1333 400.542 13.6733 400.155 14.14C399.769 14.6067 399.122 15.0867 398.215 15.58C397.402 16.02 396.855 16.4067 396.575 16.74C396.295 17.06 396.155 17.4667 396.155 17.96V18.64H394.775V17.96ZM395.475 22.22C395.195 22.22 394.955 22.1333 394.755 21.96C394.569 21.7733 394.475 21.5333 394.475 21.24C394.475 20.96 394.569 20.7333 394.755 20.56C394.955 20.3733 395.195 20.28 395.475 20.28C395.755 20.28 395.989 20.3733 396.175 20.56C396.375 20.7333 396.475 20.96 396.475 21.24C396.475 21.5333 396.375 21.7733 396.175 21.96C395.989 22.1333 395.755 22.22 395.475 22.22Z" fill="black"/>
<path d="M272.875 22.24C271.688 22.24 270.648 22.04 269.755 21.64C268.862 21.2267 268.175 20.6467 267.695 19.9C267.215 19.14 266.975 18.26 266.975 17.26V16.9C266.975 15.8733 267.215 14.98 267.695 14.22C268.175 13.46 268.855 12.88 269.735 12.48C270.628 12.0667 271.675 11.86 272.875 11.86C273.955 11.86 274.928 12.0467 275.795 12.42C276.662 12.78 277.335 13.2867 277.815 13.94C278.308 14.58 278.555 15.3067 278.555 16.12V16.2H276.575V16.12C276.575 15.64 276.415 15.2133 276.095 14.84C275.788 14.4533 275.348 14.1533 274.775 13.94C274.215 13.7267 273.582 13.62 272.875 13.62C271.648 13.62 270.688 13.9133 269.995 14.5C269.302 15.0733 268.955 15.88 268.955 16.92V17.24C268.955 18.2533 269.302 19.0467 269.995 19.62C270.688 20.1933 271.648 20.48 272.875 20.48C273.595 20.48 274.235 20.3733 274.795 20.16C275.355 19.9467 275.788 19.6533 276.095 19.28C276.415 18.9067 276.575 18.48 276.575 18V17.92H278.555V18C278.555 18.8267 278.315 19.56 277.835 20.2C277.355 20.84 276.682 21.34 275.815 21.7C274.962 22.06 273.982 22.24 272.875 22.24ZM290.834 16.98C291.38 17.1533 291.794 17.42 292.074 17.78C292.367 18.1267 292.514 18.5533 292.514 19.06V19.26C292.514 20.1267 292.174 20.8 291.494 21.28C290.827 21.76 289.88 22 288.654 22H281.134V12.1H288.394C289.62 12.1 290.567 12.3333 291.234 12.8C291.914 13.2533 292.254 13.9067 292.254 14.76V14.96C292.254 15.88 291.78 16.5533 290.834 16.98ZM283.054 13.58V16.26H288.314C288.94 16.26 289.42 16.1533 289.754 15.94C290.1 15.7133 290.274 15.3933 290.274 14.98V14.78C290.274 14.3933 290.107 14.1 289.774 13.9C289.44 13.6867 288.954 13.58 288.314 13.58H283.054ZM290.534 19.02C290.534 18.62 290.367 18.3133 290.034 18.1C289.7 17.8867 289.22 17.78 288.594 17.78H283.054V20.5H288.594C289.22 20.5 289.7 20.3933 290.034 20.18C290.367 19.9533 290.534 19.6333 290.534 19.22V19.02ZM297.453 12.1V22H295.533V12.1H297.453ZM296.493 10.52C296.106 10.52 295.793 10.4067 295.553 10.18C295.313 9.94 295.193 9.63333 295.193 9.26C295.193 8.9 295.313 8.60667 295.553 8.38C295.793 8.15333 296.106 8.04 296.493 8.04C296.879 8.04 297.193 8.15333 297.433 8.38C297.673 8.60667 297.793 8.9 297.793 9.26C297.793 9.63333 297.673 9.94 297.433 10.18C297.193 10.4067 296.879 10.52 296.493 10.52ZM302.895 12.1V19.66L310.155 12.1H311.915V22H310.075V14.44L302.815 22H301.055V12.1H302.895ZM306.495 10.72C305.109 10.72 304.055 10.4867 303.335 10.02C302.615 9.55333 302.255 8.87333 302.255 7.98V7.84H304.015V7.98C304.015 8.34 304.229 8.62 304.655 8.82C305.082 9.00667 305.695 9.1 306.495 9.1C307.269 9.1 307.855 9.00667 308.255 8.82C308.669 8.62 308.875 8.34 308.875 7.98V7.84H310.735V7.98C310.735 8.88667 310.375 9.57333 309.655 10.04C308.949 10.4933 307.895 10.72 306.495 10.72ZM328.461 22.24C327.274 22.24 326.234 22.04 325.341 21.64C324.448 21.2267 323.761 20.6467 323.281 19.9C322.801 19.14 322.561 18.26 322.561 17.26V16.9C322.561 15.8733 322.801 14.98 323.281 14.22C323.761 13.46 324.441 12.88 325.321 12.48C326.214 12.0667 327.261 11.86 328.461 11.86C329.541 11.86 330.514 12.0467 331.381 12.42C332.248 12.78 332.921 13.2867 333.401 13.94C333.894 14.58 334.141 15.3067 334.141 16.12V16.2H332.161V16.12C332.161 15.64 332.001 15.2133 331.681 14.84C331.374 14.4533 330.934 14.1533 330.361 13.94C329.801 13.7267 329.168 13.62 328.461 13.62C327.234 13.62 326.274 13.9133 325.581 14.5C324.888 15.0733 324.541 15.88 324.541 16.92V17.24C324.541 18.2533 324.888 19.0467 325.581 19.62C326.274 20.1933 327.234 20.48 328.461 20.48C329.181 20.48 329.821 20.3733 330.381 20.16C330.941 19.9467 331.374 19.6533 331.681 19.28C332.001 18.9067 332.161 18.48 332.161 18V17.92H334.141V18C334.141 18.8267 333.901 19.56 333.421 20.2C332.941 20.84 332.268 21.34 331.401 21.7C330.548 22.06 329.568 22.24 328.461 22.24ZM334.888 13.82V12.1H346.528V13.82H341.708V22H339.788V13.82H334.888ZM350.317 12.1V19.66L357.577 12.1H359.337V22H357.497V14.44L350.237 22H348.477V12.1H350.317ZM373.575 22H371.655V13.78H365.595L365.515 17.36C365.475 18.9467 365.168 20.12 364.595 20.88C364.035 21.6267 363.182 22 362.035 22H361.135V20.3H361.615C362.322 20.3 362.828 20.0667 363.135 19.6C363.455 19.1333 363.628 18.3533 363.655 17.26L363.775 12.1H373.575V22ZM384.373 15.08C385.627 15.08 386.6 15.38 387.293 15.98C388 16.5667 388.353 17.3867 388.353 18.44V18.68C388.353 19.7067 387.993 20.5133 387.273 21.1C386.567 21.6867 385.6 21.98 384.373 21.98H376.973V12.1H378.893V15.08H384.373ZM386.373 18.44C386.373 17.3333 385.66 16.78 384.233 16.78H378.893V20.3H384.233C384.927 20.3 385.453 20.16 385.813 19.88C386.187 19.6 386.373 19.2 386.373 18.68V18.44Z" fill="#4173CD"/>
</svg>
