<svg width="508" height="54" viewBox="0 0 508 54" fill="none" xmlns="http://www.w3.org/2000/svg">
<path d="M23.004 26.904C24.108 27.408 24.948 28.092 25.524 28.956C26.1 29.82 26.388 30.828 26.388 31.98V32.376C26.388 34.416 25.596 36.036 24.012 37.236C22.428 38.412 20.28 39 17.568 39H2.808V15.384H16.884C19.668 15.384 21.816 15.936 23.328 17.04C24.864 18.12 25.632 19.644 25.632 21.612V22.008C25.632 24.12 24.756 25.752 23.004 26.904ZM8.208 20.1V24.852H16.848C19.08 24.852 20.196 24.12 20.196 22.656V22.296C20.196 21.576 19.908 21.036 19.332 20.676C18.78 20.292 17.964 20.1 16.884 20.1H8.208ZM20.88 31.584C20.88 30.096 19.752 29.352 17.496 29.352H8.208V34.284H17.496C18.576 34.284 19.404 34.08 19.98 33.672C20.58 33.264 20.88 32.688 20.88 31.944V31.584ZM40.6496 39.432C38.3936 39.432 36.4376 39.072 34.7816 38.352C33.1256 37.608 31.8536 36.552 30.9656 35.184C30.0776 33.792 29.6336 32.16 29.6336 30.288V29.82C29.6336 27.9 30.0656 26.244 30.9296 24.852C31.8176 23.46 33.0896 22.392 34.7456 21.648C36.4016 20.904 38.3696 20.532 40.6496 20.532C42.9056 20.532 44.8496 20.904 46.4816 21.648C48.1136 22.392 49.3616 23.46 50.2256 24.852C51.1136 26.244 51.5576 27.9 51.5576 29.82V30.288C51.5576 32.16 51.1136 33.792 50.2256 35.184C49.3616 36.552 48.1136 37.608 46.4816 38.352C44.8496 39.072 42.9056 39.432 40.6496 39.432ZM40.6136 34.68C42.3656 34.68 43.7216 34.296 44.6816 33.528C45.6656 32.76 46.1576 31.668 46.1576 30.252V29.856C46.1576 28.392 45.6776 27.264 44.7176 26.472C43.7576 25.68 42.3896 25.284 40.6136 25.284C38.8136 25.284 37.4336 25.68 36.4736 26.472C35.5136 27.24 35.0336 28.368 35.0336 29.856V30.252C35.0336 31.668 35.5136 32.76 36.4736 33.528C37.4576 34.296 38.8376 34.68 40.6136 34.68ZM60.7582 20.964V27.66H70.9102V20.964H76.1302V39H70.9102V32.232H60.7582V39H55.5382V20.964H60.7582ZM86.382 20.964V32.664L97.074 20.964H101.79V39H96.786V27.3L86.094 39H81.378V20.964H86.382ZM140.104 29.82C141.856 30.588 142.732 31.836 142.732 33.564V33.924C142.732 35.556 142.084 36.816 140.788 37.704C139.492 38.568 137.632 39 135.208 39H121.456V20.964H134.668C137.092 20.964 138.964 21.396 140.284 22.26C141.604 23.124 142.264 24.36 142.264 25.968V26.328C142.264 27.888 141.544 29.052 140.104 29.82ZM126.676 24.78V28.092H134.308C135.148 28.092 135.784 27.96 136.216 27.696C136.648 27.432 136.864 27.06 136.864 26.58V26.22C136.864 25.26 136.012 24.78 134.308 24.78H126.676ZM137.368 33.276C137.368 32.796 137.14 32.424 136.684 32.16C136.252 31.896 135.628 31.764 134.812 31.764H126.676V35.184H134.812C136.516 35.184 137.368 34.668 137.368 33.636V33.276ZM169.911 34.428V39H166.851C165.747 39 164.787 38.82 163.971 38.46C163.179 38.076 162.579 37.536 162.171 36.84C160.347 38.568 157.755 39.432 154.395 39.432C151.851 39.432 149.871 38.952 148.455 37.992C147.039 37.032 146.331 35.688 146.331 33.96C146.331 32.496 146.859 31.332 147.915 30.468C148.971 29.58 150.507 29.028 152.523 28.812L161.415 27.84C161.127 26.064 159.519 25.176 156.591 25.176C155.055 25.176 153.855 25.392 152.991 25.824C152.151 26.232 151.731 26.808 151.731 27.552V27.66H146.475V27.552C146.475 26.136 146.883 24.9 147.699 23.844C148.539 22.788 149.727 21.972 151.263 21.396C152.799 20.82 154.587 20.532 156.627 20.532C159.795 20.532 162.255 21.24 164.007 22.656C165.783 24.072 166.671 26.028 166.671 28.524V32.988C166.671 33.948 167.223 34.428 168.327 34.428H169.911ZM154.755 35.256C156.291 35.256 157.647 35.028 158.823 34.572C160.023 34.092 160.899 33.456 161.451 32.664V31.44L153.891 32.304C153.099 32.4 152.511 32.568 152.127 32.808C151.743 33.048 151.551 33.384 151.551 33.816C151.551 34.776 152.619 35.256 154.755 35.256ZM183.872 20.532C185.984 20.532 187.832 20.916 189.416 21.684C191 22.428 192.212 23.508 193.052 24.924C193.916 26.316 194.348 27.936 194.348 29.784V30.144C194.348 31.992 193.916 33.624 193.052 35.04C192.188 36.432 190.964 37.512 189.38 38.28C187.82 39.048 185.984 39.432 183.872 39.432C181.568 39.432 179.612 38.844 178.004 37.668V45.12H172.784V20.964H177.644L177.788 22.512C179.492 21.192 181.52 20.532 183.872 20.532ZM188.948 29.784C188.948 28.368 188.456 27.264 187.472 26.472C186.488 25.68 185.12 25.284 183.368 25.284C182.216 25.284 181.16 25.464 180.2 25.824C179.264 26.16 178.532 26.64 178.004 27.264V32.664C178.556 33.288 179.3 33.78 180.236 34.14C181.196 34.5 182.24 34.68 183.368 34.68C185.12 34.68 186.488 34.284 187.472 33.492C188.456 32.7 188.948 31.584 188.948 30.144V29.784ZM195.551 25.644V20.964H216.359V25.644H208.619V39H203.363V25.644H195.551ZM224.619 20.964V39H219.435V20.964H224.619ZM222.027 18.876C221.067 18.876 220.287 18.6 219.687 18.048C219.087 17.472 218.787 16.728 218.787 15.816C218.787 14.904 219.087 14.172 219.687 13.62C220.287 13.044 221.067 12.756 222.027 12.756C223.011 12.756 223.791 13.044 224.367 13.62C224.967 14.172 225.267 14.904 225.267 15.816C225.267 16.728 224.967 17.472 224.367 18.048C223.767 18.6 222.987 18.876 222.027 18.876Z" fill="black"/>
<path d="M245.504 25.644H244.504V26.644H245.504V25.644ZM245.504 20.964V19.964H244.504V20.964H245.504ZM266.312 20.964H267.312V19.964H266.312V20.964ZM266.312 25.644V26.644H267.312V25.644H266.312ZM258.572 25.644V24.644H257.572V25.644H258.572ZM258.572 39V40H259.572V39H258.572ZM253.316 39H252.316V40H253.316V39ZM253.316 25.644H254.316V24.644H253.316V25.644ZM246.504 25.644V20.964H244.504V25.644H246.504ZM245.504 21.964H266.312V19.964H245.504V21.964ZM265.312 20.964V25.644H267.312V20.964H265.312ZM266.312 24.644H258.572V26.644H266.312V24.644ZM257.572 25.644V39H259.572V25.644H257.572ZM258.572 38H253.316V40H258.572V38ZM254.316 39V25.644H252.316V39H254.316ZM253.316 24.644H245.504V26.644H253.316V24.644ZM289.188 29.82L288.717 28.9376L286.898 29.908L288.787 30.7359L289.188 29.82ZM289.872 37.704L290.427 38.5361L290.437 38.5289L289.872 37.704ZM270.54 39H269.54V40H270.54V39ZM270.54 20.964V19.964H269.54V20.964H270.54ZM275.76 24.78V23.78H274.76V24.78H275.76ZM275.76 28.092H274.76V29.092H275.76V28.092ZM285.3 27.696L284.779 26.8427H284.779L285.3 27.696ZM285.768 32.16L285.247 33.0133L285.257 33.0195L285.267 33.0254L285.768 32.16ZM275.76 31.764V30.764H274.76V31.764H275.76ZM275.76 35.184H274.76V36.184H275.76V35.184ZM288.787 30.7359C289.537 31.0649 290.031 31.4661 290.341 31.9065C290.645 32.3403 290.816 32.8772 290.816 33.564H292.816C292.816 32.5228 292.549 31.5717 291.978 30.7575C291.411 29.9499 290.591 29.3431 289.59 28.9041L288.787 30.7359ZM290.816 33.564V33.924H292.816V33.564H290.816ZM290.816 33.924C290.816 35.2414 290.318 36.186 289.307 36.8791L290.437 38.5289C292.018 37.446 292.816 35.8706 292.816 33.924H290.816ZM289.317 36.8719C288.254 37.5812 286.62 38 284.292 38V40C286.812 40 288.899 39.5548 290.427 38.536L289.317 36.8719ZM284.292 38H270.54V40H284.292V38ZM271.54 39V20.964H269.54V39H271.54ZM270.54 21.964H283.752V19.964H270.54V21.964ZM283.752 21.964C286.078 21.964 287.729 22.3821 288.82 23.0967L289.916 21.4233C288.367 20.4099 286.274 19.964 283.752 19.964V21.964ZM288.82 23.0967C289.852 23.7717 290.348 24.6895 290.348 25.968H292.348C292.348 24.0305 291.524 22.4763 289.916 21.4233L288.82 23.0967ZM290.348 25.968V26.328H292.348V25.968H290.348ZM290.348 26.328C290.348 26.9487 290.207 27.4422 289.958 27.8449C289.707 28.2501 289.312 28.6207 288.717 28.9376L289.659 30.7024C290.504 30.2513 291.189 29.6559 291.658 28.8971C292.129 28.1358 292.348 27.2673 292.348 26.328H290.348ZM274.76 24.78V28.092H276.76V24.78H274.76ZM275.76 29.092H283.392V27.092H275.76V29.092ZM283.392 29.092C284.308 29.092 285.16 28.9533 285.821 28.5493L284.779 26.8427C284.576 26.9667 284.156 27.092 283.392 27.092V29.092ZM285.821 28.5493C286.531 28.1157 286.948 27.4309 286.948 26.58H284.948C284.948 26.6645 284.931 26.7005 284.921 26.7169C284.91 26.7356 284.878 26.782 284.779 26.8427L285.821 28.5493ZM286.948 26.58V26.22H284.948V26.58H286.948ZM286.948 26.22C286.948 25.3707 286.533 24.6819 285.8 24.2688C285.15 23.9029 284.305 23.78 283.392 23.78V25.78C284.183 25.78 284.616 25.8971 284.818 26.0112C284.904 26.0598 284.925 26.0941 284.928 26.0992C284.93 26.1034 284.948 26.1323 284.948 26.22H286.948ZM283.392 23.78H275.76V25.78H283.392V23.78ZM287.452 33.276C287.452 32.3988 286.997 31.7162 286.269 31.2946L285.267 33.0254C285.381 33.0913 285.418 33.1419 285.428 33.1596C285.437 33.1728 285.452 33.2014 285.452 33.276H287.452ZM286.289 31.3067C285.632 30.9048 284.794 30.764 283.896 30.764V32.764C284.63 32.764 285.04 32.8872 285.247 33.0133L286.289 31.3067ZM283.896 30.764H275.76V32.764H283.896V30.764ZM274.76 31.764V35.184H276.76V31.764H274.76ZM275.76 36.184H283.896V34.184H275.76V36.184ZM283.896 36.184C284.816 36.184 285.674 36.0505 286.331 35.6524C287.069 35.2053 287.452 34.4864 287.452 33.636H285.452C285.452 33.7539 285.429 33.8084 285.416 33.8311C285.405 33.8521 285.377 33.8917 285.295 33.9416C285.1 34.0595 284.68 34.184 283.896 34.184V36.184ZM287.452 33.636V33.276H285.452V33.636H287.452ZM301.067 38.352L300.657 39.2642L300.668 39.2691L301.067 38.352ZM297.251 35.184L296.408 35.7218L296.412 35.7285L297.251 35.184ZM297.215 24.852L296.371 24.3141L296.365 24.3246L297.215 24.852ZM301.031 21.648L300.621 20.7358L301.031 21.648ZM312.767 21.648L313.181 20.7381V20.7381L312.767 21.648ZM316.511 24.852L315.661 25.3794L315.668 25.3898L316.511 24.852ZM316.511 35.184L315.668 34.6462L315.665 34.65L316.511 35.184ZM312.767 38.352L313.17 39.267L313.181 39.2619L312.767 38.352ZM310.967 33.528L310.351 32.7396L310.342 32.7471L310.967 33.528ZM302.759 26.472L303.383 27.2529L303.389 27.2482L303.395 27.2434L302.759 26.472ZM302.759 33.528L302.134 34.3089L302.143 34.3163L302.759 33.528ZM306.935 38.432C304.783 38.432 302.968 38.0884 301.465 37.4349L300.668 39.2691C302.477 40.0556 304.575 40.432 306.935 40.432V38.432ZM301.476 37.4398C299.975 36.7654 298.861 35.8284 298.089 34.6395L296.412 35.7285C297.416 37.2756 298.846 38.4506 300.657 39.2642L301.476 37.4398ZM298.094 34.6462C297.321 33.4356 296.919 31.9956 296.919 30.288H294.919C294.919 32.3244 295.404 34.1484 296.408 35.7218L298.094 34.6462ZM296.919 30.288V29.82H294.919V30.288H296.919ZM296.919 29.82C296.919 28.0538 297.314 26.5875 298.064 25.3794L296.365 24.3246C295.387 25.9005 294.919 27.7462 294.919 29.82H296.919ZM298.058 25.3898C298.83 24.1784 299.944 23.2325 301.44 22.5602L300.621 20.7358C298.805 21.5515 297.375 22.7416 296.372 24.3142L298.058 25.3898ZM301.44 22.5602C302.939 21.8869 304.761 21.532 306.935 21.532V19.532C304.548 19.532 302.434 19.9211 300.621 20.7358L301.44 22.5602ZM306.935 21.532C309.083 21.532 310.879 21.8865 312.352 22.5579L313.181 20.7381C311.39 19.9215 309.298 19.532 306.935 19.532V21.532ZM312.352 22.5579C313.822 23.2282 314.911 24.1708 315.661 25.3794L317.36 24.3246C316.382 22.7492 314.975 21.5558 313.181 20.7381L312.352 22.5579ZM315.668 25.3898C316.437 26.5964 316.843 28.0589 316.843 29.82H318.843C318.843 27.7411 318.36 25.8916 317.354 24.3142L315.668 25.3898ZM316.843 29.82V30.288H318.843V29.82H316.843ZM316.843 30.288C316.843 31.9956 316.44 33.4356 315.668 34.6462L317.354 35.7218C318.357 34.1484 318.843 32.3244 318.843 30.288H316.843ZM315.665 34.65C314.916 35.8359 313.827 36.7697 312.352 37.4421L313.181 39.2619C314.971 38.4463 316.377 37.2681 317.356 35.718L315.665 34.65ZM312.363 37.4371C310.887 38.0882 309.087 38.432 306.935 38.432V40.432C309.294 40.432 311.382 40.0558 313.17 39.2669L312.363 37.4371ZM306.899 35.68C308.783 35.68 310.392 35.2681 311.591 34.3089L310.342 32.7471C309.621 33.3239 308.518 33.68 306.899 33.68V35.68ZM311.582 34.3163C312.843 33.3317 313.443 31.929 313.443 30.252H311.443C311.443 31.407 311.058 32.1883 310.351 32.7397L311.582 34.3163ZM313.443 30.252V29.856H311.443V30.252H313.443ZM313.443 29.856C313.443 28.152 312.871 26.7169 311.639 25.7006L310.366 27.2434C311.054 27.8111 311.443 28.632 311.443 29.856H313.443ZM311.639 25.7006C310.437 24.709 308.81 24.284 306.899 24.284V26.284C308.54 26.284 309.648 26.651 310.366 27.2434L311.639 25.7006ZM306.899 24.284C304.967 24.284 303.326 24.7072 302.122 25.7006L303.395 27.2434C304.111 26.6528 305.23 26.284 306.899 26.284V24.284ZM302.134 25.6911C300.886 26.6891 300.319 28.135 300.319 29.856H302.319C302.319 28.601 302.711 27.7909 303.383 27.2529L302.134 25.6911ZM300.319 29.856V30.252H302.319V29.856H300.319ZM300.319 30.252C300.319 31.9199 300.899 33.3209 302.134 34.3089L303.383 32.7471C302.698 32.1991 302.319 31.4161 302.319 30.252H300.319ZM302.143 34.3163C303.364 35.269 304.992 35.68 306.899 35.68V33.68C305.254 33.68 304.121 33.323 303.374 32.7397L302.143 34.3163ZM337.879 28.668H336.879V29.668H337.879V28.668ZM328.951 25.716L329.452 26.5814L329.461 26.5765L329.469 26.5715L328.951 25.716ZM327.115 27.984L326.162 27.6818L325.749 28.984H327.115V27.984ZM335.071 27.984H336.071V26.984H335.071V27.984ZM335.071 31.98V32.98H336.071V31.98H335.071ZM327.115 31.98V30.98H325.789L326.154 32.2547L327.115 31.98ZM328.915 34.284L328.414 35.1495L328.424 35.155L328.915 34.284ZM336.439 34.104L336.999 34.9328L337.006 34.9281L337.013 34.9232L336.439 34.104ZM337.879 31.332V30.332H336.879V31.332H337.879ZM343.135 31.332H344.135V30.332H343.135V31.332ZM341.803 35.652L340.994 35.0648L340.992 35.0677L341.803 35.652ZM338.095 38.46L338.474 39.3856L338.481 39.3827L338.095 38.46ZM326.755 38.352L326.34 39.262L326.352 39.2669L326.755 38.352ZM322.975 35.184L322.132 35.7218L322.136 35.7285L322.975 35.184ZM337.987 21.576L337.59 22.4937L337.598 22.4973L337.606 22.5007L337.987 21.576ZM341.767 24.42L340.958 25.0072L340.964 25.0162L340.971 25.0251L341.767 24.42ZM343.135 28.668V29.668H344.135V28.668H343.135ZM338.879 28.668V28.56H336.879V28.668H338.879ZM338.879 28.56C338.879 27.0958 338.198 25.9111 336.967 25.0702L335.839 26.7218C336.576 27.2249 336.879 27.8162 336.879 28.56H338.879ZM336.967 25.0702C335.766 24.2498 334.24 23.888 332.479 23.888V25.888C333.982 25.888 335.073 26.1982 335.839 26.7218L336.967 25.0702ZM332.479 23.888C330.918 23.888 329.547 24.1864 328.433 24.8605L329.469 26.5715C330.179 26.1416 331.16 25.888 332.479 25.888V23.888ZM328.45 24.8506C327.327 25.5005 326.551 26.4548 326.162 27.6818L328.068 28.2862C328.303 27.5452 328.751 26.9875 329.452 26.5814L328.45 24.8506ZM327.115 28.984H335.071V26.984H327.115V28.984ZM334.071 27.984V31.98H336.071V27.984H334.071ZM335.071 30.98H327.115V32.98H335.071V30.98ZM326.154 32.2547C326.513 33.5133 327.279 34.4924 328.414 35.1494L329.416 33.4186C328.727 33.0196 328.293 32.4627 328.077 31.7053L326.154 32.2547ZM328.424 35.155C329.554 35.7927 330.939 36.076 332.515 36.076V34.076C331.164 34.076 330.148 33.8313 329.406 33.413L328.424 35.155ZM332.515 36.076C334.289 36.076 335.816 35.7308 336.999 34.9328L335.88 33.2752C335.142 33.7732 334.054 34.076 332.515 34.076V36.076ZM337.013 34.9232C338.221 34.0777 338.879 32.8933 338.879 31.44H336.879C336.879 32.1947 336.578 32.7863 335.866 33.2848L337.013 34.9232ZM338.879 31.44V31.332H336.879V31.44H338.879ZM337.879 32.332H343.135V30.332H337.879V32.332ZM342.135 31.332V31.44H344.135V31.332H342.135ZM342.135 31.44C342.135 32.8237 341.752 34.02 340.994 35.0648L342.613 36.2392C343.631 34.836 344.135 33.2243 344.135 31.44H342.135ZM340.992 35.0677C340.254 36.0927 339.178 36.9237 337.71 37.5373L338.481 39.3827C340.228 38.6523 341.625 37.6113 342.615 36.2363L340.992 35.0677ZM337.717 37.5345C336.278 38.1227 334.552 38.432 332.515 38.432V40.432C334.75 40.432 336.744 40.0933 338.474 39.3855L337.717 37.5345ZM332.515 38.432C330.414 38.432 328.637 38.0893 327.159 37.4371L326.352 39.2669C328.137 40.0547 330.2 40.432 332.515 40.432V38.432ZM327.17 37.4421C325.693 36.7689 324.588 35.8321 323.814 34.6395L322.136 35.7285C323.138 37.2719 324.553 38.4471 326.34 39.2619L327.17 37.4421ZM323.818 34.6462C323.045 33.4335 322.643 32.0049 322.643 30.324H320.643C320.643 32.3391 321.13 34.1505 322.132 35.7218L323.818 34.6462ZM322.643 30.324V29.64H320.643V30.324H322.643ZM322.643 29.64C322.643 27.9588 323.045 26.5455 323.814 25.3605L322.136 24.2715C321.13 25.8225 320.643 27.6252 320.643 29.64H322.643ZM323.814 25.3605C324.588 24.1679 325.693 23.2311 327.17 22.5579L326.34 20.7381C324.553 21.5529 323.138 22.7281 322.136 24.2715L323.814 25.3605ZM327.17 22.5579C328.647 21.8847 330.408 21.532 332.479 21.532V19.532C330.183 19.532 328.128 19.9233 326.34 20.7381L327.17 22.5579ZM332.479 21.532C334.431 21.532 336.128 21.8608 337.59 22.4937L338.384 20.6583C336.631 19.8992 334.656 19.532 332.479 19.532V21.532ZM337.606 22.5007C339.096 23.1141 340.196 23.9568 340.958 25.0072L342.577 23.8328C341.563 22.4352 340.142 21.3819 338.368 20.6513L337.606 22.5007ZM340.971 25.0251C341.746 26.0446 342.135 27.2103 342.135 28.56H344.135C344.135 26.7897 343.612 25.1954 342.563 23.8149L340.971 25.0251ZM342.135 28.56V28.668H344.135V28.56H342.135ZM343.135 27.668H337.879V29.668H343.135V27.668ZM346.624 18.012L345.868 18.6656L345.876 18.6753L345.884 18.6847L346.624 18.012ZM346.624 13.728L347.366 14.3989L347.374 14.3904L347.381 14.3816L346.624 13.728ZM350.368 13.728L349.612 14.3816L349.619 14.3904L349.627 14.3989L350.368 13.728ZM350.368 18.012L351.125 18.6656V18.6656L350.368 18.012ZM352.672 18.012L351.901 18.6489L351.916 18.6671L351.932 18.6847L352.672 18.012ZM352.672 13.728L351.932 13.0553L351.924 13.0647L351.916 13.0744L352.672 13.728ZM356.38 13.728L355.624 14.3816L355.632 14.3913L355.64 14.4007L356.38 13.728ZM356.38 18.012L355.626 17.3558L355.624 17.3584L356.38 18.012ZM354.112 20.964H355.112V19.964H354.112V20.964ZM354.112 39V40H355.112V39H354.112ZM348.928 39H347.928V40H348.928V39ZM348.928 20.964V19.964H347.928V20.964H348.928ZM348.532 17.804C347.988 17.804 347.633 17.6346 347.364 17.3393L345.884 18.6847C346.576 19.4454 347.493 19.804 348.532 19.804V17.804ZM347.381 17.3584C347.125 17.0617 346.94 16.5991 346.94 15.852H344.94C344.94 16.9289 345.212 17.9063 345.868 18.6656L347.381 17.3584ZM346.94 15.852C346.94 15.1019 347.126 14.6639 347.366 14.3989L345.883 13.0571C345.211 13.8001 344.94 14.7781 344.94 15.852H346.94ZM347.381 14.3816C347.614 14.1117 347.952 13.936 348.532 13.936V11.936C347.48 11.936 346.546 12.2883 345.868 13.0744L347.381 14.3816ZM348.532 13.936C349.043 13.936 349.366 14.0974 349.612 14.3816L351.125 13.0744C350.459 12.3026 349.558 11.936 348.532 11.936V13.936ZM349.627 14.3989C349.867 14.6639 350.052 15.1019 350.052 15.852H352.052C352.052 14.7781 351.782 13.8001 351.11 13.0571L349.627 14.3989ZM350.052 15.852C350.052 16.5991 349.868 17.0617 349.612 17.3584L351.125 18.6656C351.781 17.9063 352.052 16.9289 352.052 15.852H350.052ZM349.612 17.3584C349.366 17.6426 349.043 17.804 348.532 17.804V19.804C349.558 19.804 350.459 19.4374 351.125 18.6656L349.612 17.3584ZM354.544 17.804C354.034 17.804 353.687 17.6416 353.412 17.3393L351.932 18.6847C352.618 19.4384 353.519 19.804 354.544 19.804V17.804ZM353.443 17.3751C353.168 17.0422 352.988 16.5651 352.988 15.852H350.988C350.988 16.9149 351.264 17.8778 351.901 18.6489L353.443 17.3751ZM352.988 15.852C352.988 15.1367 353.169 14.6828 353.429 14.3816L351.916 13.0744C351.264 13.8292 350.988 14.7913 350.988 15.852H352.988ZM353.412 14.4007C353.687 14.0984 354.034 13.936 354.544 13.936V11.936C353.519 11.936 352.618 12.3016 351.932 13.0553L353.412 14.4007ZM354.544 13.936C355.055 13.936 355.378 14.0974 355.624 14.3816L357.137 13.0744C356.471 12.3026 355.57 11.936 354.544 11.936V13.936ZM355.64 14.4007C355.915 14.7025 356.1 15.1494 356.1 15.852H358.1C358.1 14.7786 357.806 13.8095 357.12 13.0553L355.64 14.4007ZM356.1 15.852C356.1 16.5527 355.915 17.0227 355.626 17.3558L357.135 18.6682C357.805 17.8973 358.1 16.9273 358.1 15.852H356.1ZM355.624 17.3584C355.378 17.6426 355.055 17.804 354.544 17.804V19.804C355.57 19.804 356.471 19.4374 357.137 18.6656L355.624 17.3584ZM353.112 20.964V39H355.112V20.964H353.112ZM354.112 38H348.928V40H354.112V38ZM349.928 39V20.964H347.928V39H349.928ZM348.928 21.964H354.112V19.964H348.928V21.964Z" fill="black" fill-opacity="0.76"/>
<path d="M244 47L358 47" stroke="black"/>
<path d="M398.408 20.964V21.72L388.868 40.8C388.1 42.312 387.152 43.404 386.024 44.076C384.896 44.772 383.384 45.12 381.488 45.12H376.772V40.548H381.236C381.884 40.548 382.388 40.464 382.748 40.296C383.132 40.152 383.456 39.864 383.72 39.432L374.684 21.72V20.964H380.228L386.6 33.96L392.864 20.964H398.408ZM420.378 29.82C422.13 30.588 423.006 31.836 423.006 33.564V33.924C423.006 35.556 422.358 36.816 421.062 37.704C419.766 38.568 417.906 39 415.482 39H401.73V20.964H414.942C417.366 20.964 419.238 21.396 420.558 22.26C421.878 23.124 422.538 24.36 422.538 25.968V26.328C422.538 27.888 421.818 29.052 420.378 29.82ZM406.95 24.78V28.092H414.582C415.422 28.092 416.058 27.96 416.49 27.696C416.922 27.432 417.138 27.06 417.138 26.58V26.22C417.138 25.26 416.286 24.78 414.582 24.78H406.95ZM417.642 33.276C417.642 32.796 417.414 32.424 416.958 32.16C416.526 31.896 415.902 31.764 415.086 31.764H406.95V35.184H415.086C416.79 35.184 417.642 34.668 417.642 33.636V33.276ZM450.184 34.428V39H447.124C446.02 39 445.06 38.82 444.244 38.46C443.452 38.076 442.852 37.536 442.444 36.84C440.62 38.568 438.028 39.432 434.668 39.432C432.124 39.432 430.144 38.952 428.728 37.992C427.312 37.032 426.604 35.688 426.604 33.96C426.604 32.496 427.132 31.332 428.188 30.468C429.244 29.58 430.78 29.028 432.796 28.812L441.688 27.84C441.4 26.064 439.792 25.176 436.864 25.176C435.328 25.176 434.128 25.392 433.264 25.824C432.424 26.232 432.004 26.808 432.004 27.552V27.66H426.748V27.552C426.748 26.136 427.156 24.9 427.972 23.844C428.812 22.788 430 21.972 431.536 21.396C433.072 20.82 434.86 20.532 436.9 20.532C440.068 20.532 442.528 21.24 444.28 22.656C446.056 24.072 446.944 26.028 446.944 28.524V32.988C446.944 33.948 447.496 34.428 448.6 34.428H450.184ZM435.028 35.256C436.564 35.256 437.92 35.028 439.096 34.572C440.296 34.092 441.172 33.456 441.724 32.664V31.44L434.164 32.304C433.372 32.4 432.784 32.568 432.4 32.808C432.016 33.048 431.824 33.384 431.824 33.816C431.824 34.776 432.892 35.256 435.028 35.256ZM468.394 20.964V25.572H458.278V39H453.058V20.964H468.394ZM476.519 20.964V32.664L487.211 20.964H491.927V39H486.923V27.3L476.231 39H471.515V20.964H476.519ZM503.623 15.384L503.335 31.368H498.475L498.151 15.384H503.623ZM500.887 39.432C499.975 39.432 499.219 39.156 498.619 38.604C498.043 38.028 497.755 37.296 497.755 36.408C497.755 35.52 498.043 34.8 498.619 34.248C499.219 33.672 499.975 33.384 500.887 33.384C501.799 33.384 502.543 33.672 503.119 34.248C503.719 34.8 504.019 35.52 504.019 36.408C504.019 37.296 503.719 38.028 503.119 38.604C502.543 39.156 501.799 39.432 500.887 39.432Z" fill="#FFD100"/>
</svg>
