<svg width="24" height="24" viewBox="0 0 24 24" fill="none" xmlns="http://www.w3.org/2000/svg">
<path d="M11.9996 0C5.38349 0 0 5.38306 0 12C0 18.6169 5.38349 24 11.9996 24C18.6169 24 23.9996 18.6169 23.9996 12C23.9996 5.38306 18.6169 0 11.9996 0ZM11.9996 22.4001C6.26514 22.4001 1.59991 17.7349 1.59991 12C1.59991 6.26514 6.26557 1.59991 11.9996 1.59991C17.7349 1.59991 22.3997 6.26514 22.3997 12C22.3997 17.7349 17.7353 22.4001 11.9996 22.4001Z" fill="#010002"/>
<path d="M17.9431 11.1313H12.8002V4.33112C12.8002 3.88921 12.442 3.53094 12.0005 3.53094C11.5594 3.53094 11.2012 3.88964 11.2012 4.33112V12.7308H17.9431C18.3846 12.7308 18.7429 12.3729 18.7425 11.931C18.7425 11.4896 18.3838 11.1313 17.9431 11.1313Z" fill="#010002"/>
</svg>
