<svg width="22" height="24" viewBox="0 0 22 24" fill="none" xmlns="http://www.w3.org/2000/svg">
<path d="M4.48197 24H17.5174C19.8052 24 21.6663 22.1317 21.6663 19.8351V7.38462C21.6663 6.97846 21.3353 6.64615 20.9307 6.64615H16.5169V5.53846C16.5169 2.48492 14.0415 0 10.9997 0C7.95783 0 5.48243 2.48492 5.48243 5.53846V6.64615H1.06864C0.664042 6.64615 0.333008 6.97846 0.333008 7.38462V19.8351C0.333008 22.1317 2.19415 24 4.48197 24ZM6.95369 5.53846C6.95369 3.29723 8.76702 1.47692 10.9997 1.47692C13.2323 1.47692 15.0456 3.29723 15.0456 5.53846V6.64615H6.95369V5.53846ZM1.80427 8.12308H5.48243V9.96923C5.48243 10.3754 5.81346 10.7077 6.21806 10.7077C6.62266 10.7077 6.95369 10.3754 6.95369 9.96923V8.12308H15.0456V9.96923C15.0456 10.3754 15.3767 10.7077 15.7813 10.7077C16.1859 10.7077 16.5169 10.3754 16.5169 9.96923V8.12308H20.1951V19.8351C20.1951 21.3157 18.9923 22.5231 17.5174 22.5231H4.48197C3.00703 22.5231 1.80427 21.3157 1.80427 19.8351V8.12308Z" fill="black"/>
</svg>
