<svg width="528" height="174" viewBox="0 0 528 174" fill="none" xmlns="http://www.w3.org/2000/svg">
<path d="M41.536 28.56C43.4133 29.5413 44.8427 30.8 45.824 32.336C46.8053 33.872 47.296 35.664 47.296 37.712V38.352C47.296 41.9787 45.8667 44.8373 43.008 46.928C40.192 48.976 36.288 50 31.296 50H4.544V8.016H30.016C35.0933 8.016 39.0187 8.99733 41.792 10.96C44.5653 12.9227 45.952 15.7173 45.952 19.344V19.984C45.952 23.6533 44.48 26.512 41.536 28.56ZM15.872 17.744V24.4H30.016C31.5947 24.4 32.7467 24.1653 33.472 23.696C34.24 23.184 34.624 22.416 34.624 21.392V20.752C34.624 18.7467 33.088 17.744 30.016 17.744H15.872ZM35.712 36.432C35.712 34.3413 34.1547 33.296 31.04 33.296H15.872V40.272H31.04C34.1547 40.272 35.712 39.2053 35.712 37.072V36.432ZM76.771 27.536V17.808H113.763V27.536H100.771V50H89.827V27.536H76.771ZM139.84 16.976C143.509 16.976 146.709 17.6587 149.44 19.024C152.213 20.3893 154.325 22.3307 155.776 24.848C157.269 27.3653 158.016 30.2667 158.016 33.552V34.128C158.016 37.456 157.269 40.3787 155.776 42.896C154.282 45.4133 152.17 47.376 149.44 48.784C146.709 50.1493 143.509 50.832 139.84 50.832C135.957 50.832 132.629 49.872 129.856 47.952V60.88H118.976V17.808H129.088L129.344 20.368C132.288 18.1067 135.786 16.976 139.84 16.976ZM146.752 33.552C146.752 31.4613 146.005 29.84 144.512 28.688C143.018 27.536 140.906 26.96 138.176 26.96C136.426 26.96 134.805 27.216 133.312 27.728C131.861 28.1973 130.709 28.8587 129.856 29.712V37.968C130.709 38.864 131.861 39.568 133.312 40.08C134.805 40.592 136.426 40.848 138.176 40.848C140.864 40.848 142.954 40.272 144.448 39.12C145.984 37.9253 146.752 36.2613 146.752 34.128V33.552ZM200.957 36.816H173.437C173.693 38.5227 174.525 39.824 175.933 40.72C177.384 41.616 179.304 42.064 181.693 42.064C183.869 42.064 185.64 41.808 187.005 41.296C188.413 40.784 189.266 40.08 189.565 39.184H200.893C200.296 42.9813 198.354 45.8827 195.069 47.888C191.826 49.8507 187.389 50.832 181.757 50.832C177.746 50.832 174.269 50.192 171.325 48.912C168.381 47.5893 166.12 45.712 164.541 43.28C163.005 40.8053 162.237 37.904 162.237 34.576V33.424C162.237 30.0533 163.026 27.1307 164.605 24.656C166.184 22.1813 168.424 20.2827 171.325 18.96C174.269 17.6373 177.746 16.976 181.757 16.976C187.901 16.976 192.637 18.4053 195.965 21.264C199.293 24.1227 200.957 28.2187 200.957 33.552V36.816ZM181.693 25.488C179.517 25.488 177.746 25.872 176.381 26.64C175.016 27.3653 174.098 28.432 173.629 29.84H189.629C189.16 28.432 188.242 27.3653 186.877 26.64C185.512 25.872 183.784 25.488 181.693 25.488ZM218.231 17.808V29.008H233.847V17.808H244.727V50H233.847V38.608H218.231V50H207.351V17.808H218.231ZM297.256 40.4V58.192H286.376V50H260.52V58.192H249.576V40.4H254.568C255.464 38.992 256.125 37.4987 256.552 35.92C257.021 34.3413 257.277 32.4213 257.32 30.16L257.64 17.808H291.304V40.4H297.256ZM280.36 40.4V27.344H267.496L267.432 30.16C267.347 32.5493 267.112 34.5333 266.728 36.112C266.387 37.648 265.811 39.0773 265 40.4H280.36ZM312.342 17.808V50H301.462V17.808H312.342ZM306.902 14.672C304.982 14.672 303.403 14.096 302.166 12.944C300.971 11.792 300.374 10.32 300.374 8.528C300.374 6.736 300.971 5.28533 302.166 4.176C303.361 3.024 304.939 2.448 306.902 2.448C308.865 2.448 310.443 3.00267 311.638 4.112C312.833 5.22133 313.43 6.69333 313.43 8.528C313.43 10.3627 312.811 11.856 311.574 13.008C310.379 14.1173 308.822 14.672 306.902 14.672ZM36.736 91.616C39.7227 93.1093 41.216 95.4133 41.216 98.528V99.104C41.216 102.304 39.616 104.736 36.416 106.4C33.216 108.021 28.5013 108.832 22.272 108.832C15.4027 108.832 10.368 107.68 7.168 105.376C4.01067 103.029 2.432 99.3387 2.432 94.304V93.984H12.736V94.304C12.736 96.4373 13.4827 98.016 14.976 99.04C16.4693 100.021 18.8587 100.512 22.144 100.512C24.5333 100.512 26.3893 100.277 27.712 99.808C29.0773 99.3387 29.76 98.6987 29.76 97.888V97.44C29.76 96.7573 29.44 96.2667 28.8 95.968C28.16 95.6693 27.1147 95.52 25.664 95.52H16.64V88.096H25.024C26.3893 88.096 27.392 87.9467 28.032 87.648C28.672 87.3493 28.992 86.8587 28.992 86.176V85.664C28.992 84.0853 26.4747 83.296 21.44 83.296C18.3253 83.296 16.0853 83.7867 14.72 84.768C13.3973 85.7067 12.736 87.2853 12.736 89.504V89.76H2.432V89.504C2.432 84.5973 4.032 80.9493 7.232 78.56C10.4747 76.1707 15.3813 74.976 21.952 74.976C27.84 74.976 32.3627 75.8293 35.52 77.536C38.6773 79.2427 40.256 81.696 40.256 84.896V85.472C40.256 88.0747 39.0827 90.1227 36.736 91.616ZM88.998 98.4V108H82.79C78.9927 108 76.2407 106.848 74.534 104.544C72.87 105.909 70.8647 106.976 68.518 107.744C66.214 108.469 63.654 108.832 60.838 108.832C56.4433 108.832 53.0087 107.979 50.534 106.272C48.0593 104.523 46.822 102.091 46.822 98.976C46.822 96.3733 47.7393 94.304 49.574 92.768C51.4087 91.1893 54.0967 90.208 57.638 89.824L72.742 88.16C72.486 86.8373 71.7607 85.856 70.566 85.216C69.3713 84.576 67.686 84.256 65.51 84.256C63.1633 84.256 61.35 84.5547 60.07 85.152C58.79 85.7067 58.15 86.5173 58.15 87.584V87.776H47.078V87.584C47.078 85.024 47.8247 82.8053 49.318 80.928C50.854 79.008 53.0087 77.536 55.782 76.512C58.598 75.488 61.8833 74.976 65.638 74.976C71.3553 74.976 75.814 76.256 79.014 78.816C82.214 81.376 83.814 84.9387 83.814 89.504V96.416C83.814 97.7387 84.6033 98.4 86.182 98.4H88.998ZM62.246 100.704C64.422 100.704 66.47 100.363 68.39 99.68C70.3527 98.9973 71.846 98.1227 72.87 97.056V94.752L60.774 96.16C58.726 96.416 57.702 97.184 57.702 98.464C57.702 99.9573 59.2167 100.704 62.246 100.704ZM114.715 74.976C118.384 74.976 121.584 75.6587 124.315 77.024C127.088 78.3893 129.2 80.3307 130.651 82.848C132.144 85.3653 132.891 88.2667 132.891 91.552V92.128C132.891 95.456 132.144 98.3787 130.651 100.896C129.157 103.413 127.045 105.376 124.315 106.784C121.584 108.149 118.384 108.832 114.715 108.832C110.832 108.832 107.504 107.872 104.731 105.952V118.88H93.8505V75.808H103.963L104.219 78.368C107.163 76.1067 110.661 74.976 114.715 74.976ZM121.627 91.552C121.627 89.4613 120.88 87.84 119.387 86.688C117.893 85.536 115.781 84.96 113.051 84.96C111.301 84.96 109.68 85.216 108.187 85.728C106.736 86.1973 105.584 86.8587 104.731 87.712V95.968C105.584 96.864 106.736 97.568 108.187 98.08C109.68 98.592 111.301 98.848 113.051 98.848C115.739 98.848 117.829 98.272 119.323 97.12C120.859 95.9253 121.627 94.2613 121.627 92.128V91.552ZM180.248 98.4V108H174.04C170.243 108 167.491 106.848 165.784 104.544C164.12 105.909 162.115 106.976 159.768 107.744C157.464 108.469 154.904 108.832 152.088 108.832C147.693 108.832 144.259 107.979 141.784 106.272C139.309 104.523 138.072 102.091 138.072 98.976C138.072 96.3733 138.989 94.304 140.824 92.768C142.659 91.1893 145.347 90.208 148.888 89.824L163.992 88.16C163.736 86.8373 163.011 85.856 161.816 85.216C160.621 84.576 158.936 84.256 156.76 84.256C154.413 84.256 152.6 84.5547 151.32 85.152C150.04 85.7067 149.4 86.5173 149.4 87.584V87.776H138.328V87.584C138.328 85.024 139.075 82.8053 140.568 80.928C142.104 79.008 144.259 77.536 147.032 76.512C149.848 75.488 153.133 74.976 156.888 74.976C162.605 74.976 167.064 76.256 170.264 78.816C173.464 81.376 175.064 84.9387 175.064 89.504V96.416C175.064 97.7387 175.853 98.4 177.432 98.4H180.248ZM153.496 100.704C155.672 100.704 157.72 100.363 159.64 99.68C161.603 98.9973 163.096 98.1227 164.12 97.056V94.752L152.024 96.16C149.976 96.416 148.952 97.184 148.952 98.464C148.952 99.9573 150.467 100.704 153.496 100.704ZM217.549 91.616C220.535 93.1093 222.029 95.4133 222.029 98.528V99.104C222.029 102.304 220.429 104.736 217.229 106.4C214.029 108.021 209.314 108.832 203.085 108.832C196.215 108.832 191.181 107.68 187.981 105.376C184.823 103.029 183.245 99.3387 183.245 94.304V93.984H193.549V94.304C193.549 96.4373 194.295 98.016 195.789 99.04C197.282 100.021 199.671 100.512 202.957 100.512C205.346 100.512 207.202 100.277 208.525 99.808C209.89 99.3387 210.573 98.6987 210.573 97.888V97.44C210.573 96.7573 210.253 96.2667 209.613 95.968C208.973 95.6693 207.927 95.52 206.477 95.52H197.453V88.096H205.837C207.202 88.096 208.205 87.9467 208.845 87.648C209.485 87.3493 209.805 86.8587 209.805 86.176V85.664C209.805 84.0853 207.287 83.296 202.253 83.296C199.138 83.296 196.898 83.7867 195.533 84.768C194.21 85.7067 193.549 87.2853 193.549 89.504V89.76H183.245V89.504C183.245 84.5973 184.845 80.9493 188.045 78.56C191.287 76.1707 196.194 74.976 202.765 74.976C208.653 74.976 213.175 75.8293 216.333 77.536C219.49 79.2427 221.069 81.696 221.069 84.896V85.472C221.069 88.0747 219.895 90.1227 217.549 91.616Z" fill="black"/>
<path d="M290.38 75.808C296.566 75.808 301.388 77.1947 304.844 79.968C308.3 82.6987 310.028 86.5173 310.028 91.424V92.32C310.028 97.2693 308.3 101.131 304.844 103.904C301.388 106.635 296.566 108 290.38 108H286.604V118.88H275.724V108H271.948C265.761 108 260.94 106.635 257.484 103.904C254.028 101.131 252.299 97.2693 252.299 92.32V91.424C252.299 86.5173 254.028 82.6987 257.484 79.968C260.94 77.1947 265.761 75.808 271.948 75.808H275.724V63.456H286.604V75.808H290.38ZM275.916 98.4V85.344H271.372C268.812 85.344 266.828 85.8987 265.42 87.008C264.054 88.0747 263.372 89.6107 263.372 91.616V92.192C263.372 94.1973 264.054 95.7333 265.42 96.8C266.785 97.8667 268.769 98.4 271.372 98.4H275.916ZM298.956 91.616C298.956 89.6107 298.273 88.0747 296.908 87.008C295.542 85.8987 293.558 85.344 290.956 85.344H286.412V98.4H290.956C293.558 98.4 295.542 97.8667 296.908 96.8C298.273 95.7333 298.956 94.1973 298.956 92.192V91.616ZM334.141 108.832C330.045 108.832 326.504 108.171 323.517 106.848C320.53 105.483 318.226 103.563 316.605 101.088C315.026 98.6133 314.237 95.6907 314.237 92.32V91.616C314.237 88.2027 315.026 85.2587 316.605 82.784C318.184 80.2667 320.466 78.3467 323.453 77.024C326.44 75.6587 330.002 74.976 334.141 74.976C340.328 74.976 345.149 76.4693 348.605 79.456C352.104 82.4 353.853 86.4533 353.853 91.616V92.32C353.853 97.44 352.104 101.472 348.605 104.416C345.149 107.36 340.328 108.832 334.141 108.832ZM334.077 98.912C336.808 98.912 338.898 98.3573 340.349 97.248C341.842 96.096 342.589 94.432 342.589 92.256V91.744C342.589 89.5253 341.842 87.84 340.349 86.688C338.898 85.4933 336.808 84.896 334.077 84.896C331.304 84.896 329.17 85.472 327.677 86.624C326.226 87.776 325.501 89.4827 325.501 91.744V92.256C325.501 94.432 326.248 96.096 327.741 97.248C329.234 98.3573 331.346 98.912 334.077 98.912ZM381.09 74.976C384.759 74.976 387.959 75.6587 390.69 77.024C393.463 78.3893 395.575 80.3307 397.026 82.848C398.519 85.3653 399.266 88.2667 399.266 91.552V92.128C399.266 95.456 398.519 98.3787 397.026 100.896C395.532 103.413 393.42 105.376 390.69 106.784C387.959 108.149 384.759 108.832 381.09 108.832C377.207 108.832 373.879 107.872 371.106 105.952V118.88H360.226V75.808H370.338L370.594 78.368C373.538 76.1067 377.036 74.976 381.09 74.976ZM388.002 91.552C388.002 89.4613 387.255 87.84 385.762 86.688C384.268 85.536 382.156 84.96 379.426 84.96C377.676 84.96 376.055 85.216 374.562 85.728C373.111 86.1973 371.959 86.8587 371.106 87.712V95.968C371.959 96.864 373.111 97.568 374.562 98.08C376.055 98.592 377.676 98.848 379.426 98.848C382.114 98.848 384.204 98.272 385.698 97.12C387.234 95.9253 388.002 94.2613 388.002 92.128V91.552ZM455.519 75.808V108H444.959V86.496L443.359 90.72L435.487 108H425.759L417.823 90.72L416.223 86.496V90.848L416.287 108H405.663V75.808H421.215L430.623 96.992L440.031 75.808H455.519ZM504.186 98.4V108H497.978C494.18 108 491.428 106.848 489.722 104.544C488.058 105.909 486.052 106.976 483.706 107.744C481.402 108.469 478.842 108.832 476.026 108.832C471.631 108.832 468.196 107.979 465.722 106.272C463.247 104.523 462.01 102.091 462.01 98.976C462.01 96.3733 462.927 94.304 464.762 92.768C466.596 91.1893 469.284 90.208 472.826 89.824L487.93 88.16C487.674 86.8373 486.948 85.856 485.754 85.216C484.559 84.576 482.874 84.256 480.698 84.256C478.351 84.256 476.538 84.5547 475.258 85.152C473.978 85.7067 473.338 86.5173 473.338 87.584V87.776H462.266V87.584C462.266 85.024 463.012 82.8053 464.506 80.928C466.042 79.008 468.196 77.536 470.97 76.512C473.786 75.488 477.071 74.976 480.826 74.976C486.543 74.976 491.002 76.256 494.201 78.816C497.402 81.376 499.002 84.9387 499.002 89.504V96.416C499.002 97.7387 499.791 98.4 501.37 98.4H504.186ZM477.434 100.704C479.61 100.704 481.658 100.363 483.578 99.68C485.54 98.9973 487.034 98.1227 488.058 97.056V94.752L475.962 96.16C473.914 96.416 472.89 97.184 472.89 98.464C472.89 99.9573 474.404 100.704 477.434 100.704Z" fill="#EC4042"/>
<path d="M15.168 133.808H16.168V132.808H15.168V133.808ZM15.168 145.008H14.168V146.008H15.168V145.008ZM30.784 145.008V146.008H31.784V145.008H30.784ZM30.784 133.808V132.808H29.784V133.808H30.784ZM41.664 133.808H42.664V132.808H41.664V133.808ZM41.664 166V167H42.664V166H41.664ZM30.784 166H29.784V167H30.784V166ZM30.784 154.608H31.784V153.608H30.784V154.608ZM15.168 154.608V153.608H14.168V154.608H15.168ZM15.168 166V167H16.168V166H15.168ZM4.288 166H3.288V167H4.288V166ZM4.288 133.808V132.808H3.288V133.808H4.288ZM14.168 133.808V145.008H16.168V133.808H14.168ZM15.168 146.008H30.784V144.008H15.168V146.008ZM31.784 145.008V133.808H29.784V145.008H31.784ZM30.784 134.808H41.664V132.808H30.784V134.808ZM40.664 133.808V166H42.664V133.808H40.664ZM41.664 165H30.784V167H41.664V165ZM31.784 166V154.608H29.784V166H31.784ZM30.784 153.608H15.168V155.608H30.784V153.608ZM14.168 154.608V166H16.168V154.608H14.168ZM15.168 165H4.288V167H15.168V165ZM5.288 166V133.808H3.288V166H5.288ZM4.288 134.808H15.168V132.808H4.288V134.808ZM57.3295 164.848L56.9137 165.758L56.9246 165.762L57.3295 164.848ZM50.4175 159.088L49.5744 159.626L49.581 159.636L50.4175 159.088ZM50.4175 140.784L51.2606 141.322L51.2647 141.315L50.4175 140.784ZM57.2655 135.024L57.6705 135.938L57.6813 135.933L57.2655 135.024ZM82.4175 137.456L81.7636 138.213L81.7737 138.221L82.4175 137.456ZM82.4175 162.416L81.7736 161.651L81.769 161.655L82.4175 162.416ZM74.1615 155.248L74.769 156.042L74.7723 156.04L74.1615 155.248ZM74.1615 144.688L73.5258 145.46L73.5381 145.47L73.5507 145.48L74.1615 144.688ZM61.4895 144.624L60.8786 143.832L60.8676 143.841L61.4895 144.624ZM61.5535 155.248L60.9427 156.04L60.9499 156.045L60.9572 156.051L61.5535 155.248ZM67.9535 165.832C63.9627 165.832 60.5656 165.187 57.7344 163.934L56.9246 165.762C60.0668 167.154 63.7523 167.832 67.9535 167.832V165.832ZM57.7453 163.939C54.9106 162.643 52.7608 160.84 51.254 158.54L49.581 159.636C51.3169 162.285 53.7751 164.323 56.9137 165.757L57.7453 163.939ZM51.2606 158.55C49.7989 156.259 49.0495 153.529 49.0495 150.32H47.0495C47.0495 153.852 47.8788 156.968 49.5744 159.626L51.2606 158.55ZM49.0495 150.32V149.616H47.0495V150.32H49.0495ZM49.0495 149.616C49.0495 146.362 49.8002 143.611 51.2606 141.322L49.5744 140.246C47.8775 142.906 47.0495 146.044 47.0495 149.616H49.0495ZM51.2647 141.315C52.727 138.984 54.8472 137.189 57.6704 135.938L56.8606 134.11C53.7105 135.505 51.2654 137.55 49.5703 140.253L51.2647 141.315ZM57.6813 135.933C60.5081 134.641 63.9221 133.976 67.9535 133.976V131.976C63.7075 131.976 59.9962 132.676 56.8497 134.115L57.6813 135.933ZM67.9535 133.976C73.9856 133.976 78.545 135.431 81.7636 138.213L83.0714 136.699C79.378 133.508 74.2947 131.976 67.9535 131.976V133.976ZM81.7737 138.221C85.0157 140.949 86.6655 144.706 86.6655 149.616H88.6655C88.6655 144.201 86.8166 139.851 83.0614 136.691L81.7737 138.221ZM86.6655 149.616V150.32H88.6655V149.616H86.6655ZM86.6655 150.32C86.6655 155.185 85.0178 158.921 81.7737 161.651L83.0614 163.181C86.8146 160.023 88.6655 155.695 88.6655 150.32H86.6655ZM81.769 161.655C78.5503 164.397 73.9888 165.832 67.9535 165.832V167.832C74.2915 167.832 79.3727 166.323 83.066 163.177L81.769 161.655ZM67.8895 157.912C70.736 157.912 73.0763 157.337 74.769 156.042L73.5541 154.454C72.3453 155.378 70.5043 155.912 67.8895 155.912V157.912ZM74.7723 156.04C76.5509 154.668 77.4015 152.688 77.4015 150.256H75.4015C75.4015 152.176 74.7588 153.524 73.5507 154.456L74.7723 156.04ZM77.4015 150.256V149.744H75.4015V150.256H77.4015ZM77.4015 149.744C77.4015 147.277 76.556 145.272 74.7723 143.896L73.5507 145.48C74.7537 146.408 75.4015 147.774 75.4015 149.744H77.4015ZM74.7972 143.916C73.1019 142.52 70.7498 141.896 67.8895 141.896V143.896C70.4905 143.896 72.3198 144.467 73.5258 145.46L74.7972 143.916ZM67.8895 141.896C64.9951 141.896 62.6124 142.495 60.8787 143.832L62.1003 145.416C63.3533 144.449 65.2373 143.896 67.8895 143.896V141.896ZM60.8676 143.841C59.1252 145.225 58.3135 147.252 58.3135 149.744H60.3135C60.3135 147.713 60.9524 146.327 62.1114 145.407L60.8676 143.841ZM58.3135 149.744V150.256H60.3135V149.744H58.3135ZM58.3135 150.256C58.3135 152.688 59.1641 154.668 60.9427 156.04L62.1643 154.456C60.9562 153.524 60.3135 152.176 60.3135 150.256H58.3135ZM60.9572 156.051C62.6868 157.336 65.0403 157.912 67.8895 157.912V155.912C65.2774 155.912 63.4068 155.379 62.1498 154.445L60.9572 156.051ZM128.15 149.616L127.62 148.768L126.066 149.739L127.724 150.521L128.15 149.616ZM128.982 163.696L129.523 164.537L129.526 164.535L128.982 163.696ZM94.038 166H93.038V167H94.038V166ZM94.038 133.808V132.808H93.038V133.808H94.038ZM128.086 136.112L127.545 136.953L127.554 136.959L127.563 136.964L128.086 136.112ZM104.918 141.36V140.36H103.918V141.36H104.918ZM104.918 146.288H103.918V147.288H104.918V146.288ZM104.918 153.328V152.328H103.918V153.328H104.918ZM104.918 158.384H103.918V159.384H104.918V158.384ZM127.724 150.521C129.09 151.165 130.053 151.969 130.678 152.907C131.3 153.84 131.63 154.969 131.63 156.336H133.63C133.63 154.631 133.213 153.104 132.342 151.797C131.474 150.495 130.197 149.475 128.576 148.711L127.724 150.521ZM131.63 156.336V156.976H133.63V156.336H131.63ZM131.63 156.976C131.63 159.539 130.585 161.463 128.438 162.857L129.526 164.535C132.243 162.772 133.63 160.216 133.63 156.976H131.63ZM128.441 162.855C126.283 164.243 123.049 165 118.614 165V167C123.225 167 126.903 166.221 129.523 164.537L128.441 162.855ZM118.614 165H94.038V167H118.614V165ZM95.038 166V133.808H93.038V166H95.038ZM94.038 134.808H117.654V132.808H94.038V134.808ZM117.654 134.808C122.133 134.808 125.388 135.566 127.545 136.953L128.627 135.271C126.006 133.586 122.305 132.808 117.654 132.808V134.808ZM127.563 136.964C129.698 138.275 130.734 140.128 130.734 142.64H132.734C132.734 139.434 131.338 136.935 128.609 135.26L127.563 136.964ZM130.734 142.64V143.28H132.734V142.64H130.734ZM130.734 143.28C130.734 145.653 129.728 147.45 127.62 148.768L128.68 150.464C131.35 148.795 132.734 146.369 132.734 143.28H130.734ZM103.918 141.36V146.288H105.918V141.36H103.918ZM104.918 147.288H116.63V145.288H104.918V147.288ZM116.63 147.288C117.955 147.288 119.114 147.097 119.972 146.588C120.913 146.03 121.406 145.139 121.406 144.048H119.406C119.406 144.45 119.27 144.679 118.952 144.868C118.552 145.105 117.822 145.288 116.63 145.288V147.288ZM121.406 144.048V143.536H119.406V144.048H121.406ZM121.406 143.536C121.406 142.452 120.9 141.578 119.961 141.038C119.106 140.545 117.952 140.36 116.63 140.36V142.36C117.825 142.36 118.559 142.538 118.963 142.77C119.283 142.955 119.406 143.169 119.406 143.536H121.406ZM116.63 140.36H104.918V142.36H116.63V140.36ZM122.302 155.504C122.302 154.42 121.796 153.546 120.857 153.006C120.002 152.513 118.848 152.328 117.526 152.328V154.328C118.721 154.328 119.455 154.506 119.859 154.738C120.179 154.923 120.302 155.137 120.302 155.504H122.302ZM117.526 152.328H104.918V154.328H117.526V152.328ZM103.918 153.328V158.384H105.918V153.328H103.918ZM104.918 159.384H117.526V157.384H104.918V159.384ZM117.526 159.384C118.854 159.384 120.017 159.187 120.879 158.662C121.821 158.087 122.302 157.179 122.302 156.08H120.302C120.302 156.517 120.154 156.761 119.837 156.954C119.44 157.197 118.716 157.384 117.526 157.384V159.384ZM122.302 156.08V155.504H120.302V156.08H122.302ZM146.579 164.848L146.164 165.758L146.175 165.762L146.579 164.848ZM139.667 159.088L138.824 159.626L138.831 159.636L139.667 159.088ZM139.667 140.784L140.511 141.322L140.515 141.315L139.667 140.784ZM146.516 135.024L146.92 135.938L146.931 135.933L146.516 135.024ZM171.668 137.456L171.014 138.213L171.024 138.221L171.668 137.456ZM171.668 162.416L171.024 161.651L171.019 161.655L171.668 162.416ZM163.411 155.248L164.019 156.042L164.022 156.04L163.411 155.248ZM163.411 144.688L162.776 145.46L162.788 145.47L162.801 145.48L163.411 144.688ZM150.74 144.624L150.129 143.832L150.118 143.841L150.74 144.624ZM150.803 155.248L150.193 156.04L150.2 156.045L150.207 156.051L150.803 155.248ZM157.204 165.832C153.213 165.832 149.816 165.187 146.984 163.934L146.175 165.762C149.317 167.154 153.002 167.832 157.204 167.832V165.832ZM146.995 163.939C144.161 162.643 142.011 160.84 140.504 158.54L138.831 159.636C140.567 162.285 143.025 164.323 146.164 165.757L146.995 163.939ZM140.511 158.55C139.049 156.259 138.299 153.529 138.299 150.32H136.299C136.299 153.852 137.129 156.968 138.824 159.626L140.511 158.55ZM138.299 150.32V149.616H136.299V150.32H138.299ZM138.299 149.616C138.299 146.362 139.05 143.611 140.511 141.322L138.824 140.246C137.127 142.906 136.299 146.044 136.299 149.616H138.299ZM140.515 141.315C141.977 138.984 144.097 137.189 146.92 135.938L146.111 134.11C142.96 135.505 140.515 137.55 138.82 140.253L140.515 141.315ZM146.931 135.933C149.758 134.641 153.172 133.976 157.204 133.976V131.976C152.958 131.976 149.246 132.676 146.1 134.115L146.931 135.933ZM157.204 133.976C163.236 133.976 167.795 135.431 171.014 138.213L172.321 136.699C168.628 133.508 163.545 131.976 157.204 131.976V133.976ZM171.024 138.221C174.266 140.949 175.915 144.706 175.915 149.616H177.915C177.915 144.201 176.067 139.851 172.311 136.691L171.024 138.221ZM175.915 149.616V150.32H177.915V149.616H175.915ZM175.915 150.32C175.915 155.185 174.268 158.921 171.024 161.651L172.311 163.181C176.065 160.023 177.915 155.695 177.915 150.32H175.915ZM171.019 161.655C167.8 164.397 163.239 165.832 157.204 165.832V167.832C163.541 167.832 168.623 166.323 172.316 163.177L171.019 161.655ZM157.139 157.912C159.986 157.912 162.326 157.337 164.019 156.042L162.804 154.454C161.595 155.378 159.754 155.912 157.139 155.912V157.912ZM164.022 156.04C165.801 154.668 166.652 152.688 166.652 150.256H164.652C164.652 152.176 164.009 153.524 162.801 154.456L164.022 156.04ZM166.652 150.256V149.744H164.652V150.256H166.652ZM166.652 149.744C166.652 147.277 165.806 145.272 164.022 143.896L162.801 145.48C164.004 146.408 164.652 147.774 164.652 149.744H166.652ZM164.047 143.916C162.352 142.52 160 141.896 157.139 141.896V143.896C159.741 143.896 161.57 144.467 162.776 145.46L164.047 143.916ZM157.139 141.896C154.245 141.896 151.862 142.495 150.129 143.832L151.35 145.416C152.603 144.449 154.487 143.896 157.139 143.896V141.896ZM150.118 143.841C148.375 145.225 147.564 147.252 147.564 149.744H149.564C149.564 147.713 150.202 146.327 151.361 145.407L150.118 143.841ZM147.564 149.744V150.256H149.564V149.744H147.564ZM147.564 150.256C147.564 152.688 148.414 154.668 150.193 156.04L151.414 154.456C150.206 153.524 149.564 152.176 149.564 150.256H147.564ZM150.207 156.051C151.937 157.336 154.29 157.912 157.139 157.912V155.912C154.527 155.912 152.657 155.379 151.4 154.445L150.207 156.051ZM210.936 133.808H211.936V132.808H210.936V133.808ZM210.936 143.472V144.472H211.936V143.472H210.936ZM194.168 143.472V142.472H193.168V143.472H194.168ZM194.168 166V167H195.168V166H194.168ZM183.288 166H182.288V167H183.288V166ZM183.288 133.808V132.808H182.288V133.808H183.288ZM209.936 133.808V143.472H211.936V133.808H209.936ZM210.936 142.472H194.168V144.472H210.936V142.472ZM193.168 143.472V166H195.168V143.472H193.168ZM194.168 165H183.288V167H194.168V165ZM184.288 166V133.808H182.288V166H184.288ZM183.288 134.808H210.936V132.808H183.288V134.808ZM221.704 164.848L221.289 165.758L221.3 165.762L221.704 164.848ZM214.792 159.088L213.949 159.626L213.956 159.636L214.792 159.088ZM214.792 140.784L215.636 141.322L215.64 141.315L214.792 140.784ZM221.641 135.024L222.045 135.938L222.056 135.933L221.641 135.024ZM246.793 137.456L246.139 138.213L246.149 138.221L246.793 137.456ZM246.793 162.416L246.149 161.651L246.144 161.655L246.793 162.416ZM238.536 155.248L239.144 156.042L239.147 156.04L238.536 155.248ZM238.536 144.688L237.901 145.46L237.913 145.47L237.926 145.48L238.536 144.688ZM225.865 144.624L225.254 143.832L225.243 143.841L225.865 144.624ZM225.928 155.248L225.318 156.04L225.325 156.045L225.332 156.051L225.928 155.248ZM232.329 165.832C228.338 165.832 224.941 165.187 222.109 163.934L221.3 165.762C224.442 167.154 228.127 167.832 232.329 167.832V165.832ZM222.12 163.939C219.286 162.643 217.136 160.84 215.629 158.54L213.956 159.636C215.692 162.285 218.15 164.323 221.289 165.757L222.12 163.939ZM215.636 158.55C214.174 156.259 213.424 153.529 213.424 150.32H211.424C211.424 153.852 212.254 156.968 213.949 159.626L215.636 158.55ZM213.424 150.32V149.616H211.424V150.32H213.424ZM213.424 149.616C213.424 146.362 214.175 143.611 215.636 141.322L213.949 140.246C212.252 142.906 211.424 146.044 211.424 149.616H213.424ZM215.64 141.315C217.102 138.984 219.222 137.189 222.045 135.938L221.236 134.11C218.085 135.505 215.64 137.55 213.945 140.253L215.64 141.315ZM222.056 135.933C224.883 134.641 228.297 133.976 232.329 133.976V131.976C228.083 131.976 224.371 132.676 221.225 134.115L222.056 135.933ZM232.329 133.976C238.361 133.976 242.92 135.431 246.139 138.213L247.446 136.699C243.753 133.508 238.67 131.976 232.329 131.976V133.976ZM246.149 138.221C249.391 140.949 251.04 144.706 251.04 149.616H253.04C253.04 144.201 251.192 139.851 247.436 136.691L246.149 138.221ZM251.04 149.616V150.32H253.04V149.616H251.04ZM251.04 150.32C251.04 155.185 249.393 158.921 246.149 161.651L247.436 163.181C251.19 160.023 253.04 155.695 253.04 150.32H251.04ZM246.144 161.655C242.925 164.397 238.364 165.832 232.329 165.832V167.832C238.666 167.832 243.748 166.323 247.441 163.177L246.144 161.655ZM232.264 157.912C235.111 157.912 237.451 157.337 239.144 156.042L237.929 154.454C236.72 155.378 234.879 155.912 232.264 155.912V157.912ZM239.147 156.04C240.926 154.668 241.777 152.688 241.777 150.256H239.777C239.777 152.176 239.134 153.524 237.926 154.456L239.147 156.04ZM241.777 150.256V149.744H239.777V150.256H241.777ZM241.777 149.744C241.777 147.277 240.931 145.272 239.147 143.896L237.926 145.48C239.129 146.408 239.777 147.774 239.777 149.744H241.777ZM239.172 143.916C237.477 142.52 235.125 141.896 232.264 141.896V143.896C234.866 143.896 236.695 144.467 237.901 145.46L239.172 143.916ZM232.264 141.896C229.37 141.896 226.987 142.495 225.254 143.832L226.475 145.416C227.728 144.449 229.612 143.896 232.264 143.896V141.896ZM225.243 143.841C223.5 145.225 222.689 147.252 222.689 149.744H224.689C224.689 147.713 225.327 146.327 226.486 145.407L225.243 143.841ZM222.689 149.744V150.256H224.689V149.744H222.689ZM222.689 150.256C222.689 152.688 223.539 154.668 225.318 156.04L226.539 154.456C225.331 153.524 224.689 152.176 224.689 150.256H222.689ZM225.332 156.051C227.062 157.336 229.415 157.912 232.264 157.912V155.912C229.652 155.912 227.782 155.379 226.525 154.445L225.332 156.051Z" fill="black"/>
</svg>
