<svg width="24" height="20" viewBox="0 0 24 20" fill="none" xmlns="http://www.w3.org/2000/svg">
<path d="M23.4188 16.9485L13.064 7.621C12.896 7.46979 12.8 7.25298 12.8 7.02658V6.86337C12.8 6.54576 12.9696 6.26255 13.2217 6.15775C14.6209 5.57853 15.4129 4.12649 15.1497 2.62644C14.9233 1.336 13.8641 0.275964 12.5728 0.0495571C11.6248 -0.116048 10.668 0.13756 9.94235 0.747979C9.21673 1.3576 8.79992 2.25123 8.79992 3.19926C8.79992 3.64087 9.15753 3.99928 9.59994 3.99928C10.0424 3.99928 10.4 3.64087 10.4 3.19926C10.4 2.72564 10.6088 2.27843 10.972 1.97282C11.34 1.66321 11.8096 1.54 12.2968 1.62481C12.9256 1.73521 13.4633 2.27283 13.5737 2.90245C13.7073 3.65847 13.3113 4.38809 12.6112 4.6777C11.7536 5.03291 11.2 5.89054 11.2 6.86337V7.02738C11.2 7.7066 11.4888 8.35702 11.9936 8.81063L22.3475 18.1381C22.3715 18.1597 22.4227 18.2053 22.3891 18.2933C22.3619 18.3637 22.3051 18.3997 22.2195 18.3997H1.7805C1.6957 18.3997 1.6381 18.3637 1.6109 18.2925C1.57729 18.2053 1.6277 18.1589 1.6525 18.1373L9.45034 11.1115C9.77915 10.8155 9.80475 10.3099 9.50954 9.98107C9.21353 9.65146 8.70632 9.62666 8.3799 9.92187L0.581264 16.9477C0.0388471 17.4357 -0.142759 18.1885 0.116449 18.8654C0.382058 19.555 1.03408 19.9998 1.7805 19.9998H22.2203C22.9668 19.9998 23.6188 19.555 23.8836 18.8662C24.1428 18.1893 23.9612 17.4365 23.4188 16.9485Z" fill="black"/>
</svg>
