<svg width="118" height="24" viewBox="0 0 118 24" fill="none" xmlns="http://www.w3.org/2000/svg">
<path d="M41.476 8.054V17H42.79V12.626C42.79 11.042 43.456 9.296 45.58 9.296C45.76 9.296 45.94 9.296 46.084 9.332V7.946C45.994 7.91 45.85 7.91 45.652 7.91C45.292 7.91 44.932 7.964 44.59 8.09C43.906 8.342 43.186 8.936 42.754 9.818V8.054H41.476ZM55.7757 12.932C55.7937 12.734 55.7937 12.59 55.7937 12.5C55.7937 11.6 55.6497 10.826 55.3257 10.142C55.0197 9.458 54.5337 8.9 53.8857 8.504C53.2377 8.09 52.4637 7.892 51.5817 7.892C50.7717 7.892 50.0157 8.108 49.3497 8.54C48.6657 8.972 48.1437 9.53 47.7837 10.25C47.4057 10.952 47.2257 11.708 47.2257 12.518C47.2257 13.364 47.4237 14.138 47.8197 14.84C48.1977 15.56 48.7377 16.118 49.4397 16.532C50.1417 16.946 50.9157 17.162 51.7617 17.162C52.6797 17.162 53.4897 16.91 54.2097 16.442C54.9297 15.956 55.4157 15.29 55.6677 14.444L54.5157 14.084C54.1017 15.326 53.0937 15.992 51.7437 15.992C50.8797 15.992 50.1417 15.704 49.5297 15.11C48.9177 14.534 48.5937 13.814 48.5397 12.932H55.7757ZM48.5577 11.816C48.6657 11.06 49.0077 10.412 49.5837 9.854C50.1597 9.314 50.8077 9.044 51.5817 9.044C52.4097 9.044 53.0757 9.296 53.5797 9.8C54.0837 10.322 54.3897 10.988 54.4797 11.816H48.5577ZM61.6875 11.834C60.0855 11.834 58.1415 12.482 58.1415 14.426V14.516C58.1415 15.29 58.4295 15.92 58.9875 16.406C59.5275 16.91 60.2655 17.162 61.1475 17.162C62.4255 17.162 63.4155 16.586 64.1715 15.434C64.1715 16.082 64.2255 16.604 64.2975 17H65.5935C65.5035 16.334 65.4495 15.236 65.4495 13.742V11.222C65.4495 10.646 65.3595 10.16 65.1795 9.746C64.6395 8.504 63.5595 7.892 61.9215 7.892C60.9495 7.892 60.0855 8.216 59.5455 8.63C58.7355 9.278 58.3035 10.16 58.2855 10.61L59.5455 10.88C59.6175 10.43 59.8335 10.016 60.1935 9.656C60.5535 9.296 61.1655 9.062 61.8855 9.062C63.3795 9.062 64.1715 9.8 64.1715 11.24V11.834H61.6875ZM64.1715 13.22C64.1715 14.03 63.9015 14.714 63.3795 15.218C62.8395 15.74 62.1735 16.01 61.3815 16.01C60.8235 16.01 60.3735 15.866 60.0135 15.578C59.6355 15.29 59.4555 14.912 59.4555 14.408C59.4555 13.85 59.7615 13.418 60.2115 13.22C60.6615 13.004 61.1475 12.914 61.6695 12.914H64.1715V13.22ZM68.3708 12.518C68.3708 13.742 68.8028 14.894 69.5048 15.74C70.2248 16.586 71.3228 17.126 72.5648 17.126C74.0588 17.126 75.2288 16.46 76.0568 15.092V17H77.3348V3.356H76.0388V9.926C75.6428 9.35 75.2468 8.918 74.6888 8.522C74.1308 8.126 73.3928 7.892 72.5648 7.892C71.3408 7.892 70.2428 8.45 69.5228 9.332C68.8028 10.196 68.3708 11.348 68.3708 12.518ZM72.8348 15.992C72.2048 15.992 71.6468 15.83 71.1608 15.506C70.2068 14.858 69.7028 13.796 69.7028 12.554C69.7028 11.546 69.9908 10.718 70.5668 10.052C71.1248 9.386 71.8808 9.062 72.8348 9.062C73.4288 9.062 73.9868 9.224 74.4908 9.548C75.4808 10.214 76.0568 11.33 76.0568 12.5C76.0928 14.3 74.6708 16.01 72.8348 15.992ZM86.4022 17H87.7162V3.338H86.4022V17ZM99.2957 12.932C99.3137 12.734 99.3137 12.59 99.3137 12.5C99.3137 11.6 99.1697 10.826 98.8457 10.142C98.5397 9.458 98.0537 8.9 97.4057 8.504C96.7577 8.09 95.9837 7.892 95.1017 7.892C94.2917 7.892 93.5357 8.108 92.8697 8.54C92.1857 8.972 91.6637 9.53 91.3037 10.25C90.9257 10.952 90.7457 11.708 90.7457 12.518C90.7457 13.364 90.9437 14.138 91.3397 14.84C91.7177 15.56 92.2577 16.118 92.9597 16.532C93.6617 16.946 94.4357 17.162 95.2817 17.162C96.1997 17.162 97.0097 16.91 97.7297 16.442C98.4497 15.956 98.9357 15.29 99.1877 14.444L98.0357 14.084C97.6217 15.326 96.6137 15.992 95.2637 15.992C94.3997 15.992 93.6617 15.704 93.0497 15.11C92.4377 14.534 92.1137 13.814 92.0597 12.932H99.2957ZM92.0777 11.816C92.1857 11.06 92.5277 10.412 93.1037 9.854C93.6797 9.314 94.3277 9.044 95.1017 9.044C95.9297 9.044 96.5957 9.296 97.0997 9.8C97.6037 10.322 97.9097 10.988 97.9997 11.816H92.0777ZM108.195 14.462C108.195 13.022 107.025 12.284 105.855 12.014L104.415 11.69C103.623 11.492 103.119 11.168 103.119 10.466C103.119 10.07 103.281 9.728 103.623 9.458C103.965 9.17 104.361 9.044 104.847 9.044C105.513 9.044 106.053 9.26 106.359 9.62C106.647 9.98 106.791 10.268 106.881 10.628L108.069 10.286C107.997 9.908 107.853 9.53 107.529 9.08C107.061 8.432 106.197 7.91 104.847 7.892C104.235 7.892 103.551 8.09 102.921 8.486C102.273 8.882 101.805 9.638 101.805 10.556C101.805 11.78 102.561 12.572 104.037 12.896L105.405 13.202C105.801 13.292 106.143 13.436 106.431 13.67C106.719 13.886 106.863 14.174 106.863 14.534C106.863 14.984 106.683 15.344 106.323 15.596C105.945 15.866 105.513 16.01 105.009 16.01C103.587 16.01 102.957 15.002 102.813 14.174L101.625 14.48C101.679 14.93 101.805 15.362 102.165 15.848C102.651 16.55 103.587 17.144 105.027 17.144C105.909 17.144 106.665 16.892 107.277 16.388C107.889 15.902 108.195 15.254 108.195 14.462ZM117.142 14.462C117.142 13.022 115.972 12.284 114.802 12.014L113.362 11.69C112.57 11.492 112.066 11.168 112.066 10.466C112.066 10.07 112.228 9.728 112.57 9.458C112.912 9.17 113.308 9.044 113.794 9.044C114.46 9.044 115 9.26 115.306 9.62C115.594 9.98 115.738 10.268 115.828 10.628L117.016 10.286C116.944 9.908 116.8 9.53 116.476 9.08C116.008 8.432 115.144 7.91 113.794 7.892C113.182 7.892 112.498 8.09 111.868 8.486C111.22 8.882 110.752 9.638 110.752 10.556C110.752 11.78 111.508 12.572 112.984 12.896L114.352 13.202C114.748 13.292 115.09 13.436 115.378 13.67C115.666 13.886 115.81 14.174 115.81 14.534C115.81 14.984 115.63 15.344 115.27 15.596C114.892 15.866 114.46 16.01 113.956 16.01C112.534 16.01 111.904 15.002 111.76 14.174L110.572 14.48C110.626 14.93 110.752 15.362 111.112 15.848C111.598 16.55 112.534 17.144 113.974 17.144C114.856 17.144 115.612 16.892 116.224 16.388C116.836 15.902 117.142 15.254 117.142 14.462Z" fill="#00729E"/>
<path d="M10.9218 0.0468636C8.6062 0.271864 6.4687 1.12499 4.5937 2.56874C3.67964 3.27186 2.4937 4.59374 1.80933 5.67186C1.51401 6.13593 0.937451 7.31718 0.731201 7.87968C0.501514 8.5078 0.253076 9.47343 0.131201 10.2187C-0.0141113 11.1328 -0.0141113 12.8672 0.131201 13.7812C0.342139 15.075 0.674951 16.1156 1.24214 17.2734C1.86089 18.5344 2.50308 19.4297 3.53433 20.4656C4.57026 21.4969 5.46558 22.1391 6.72651 22.7578C7.88433 23.325 8.92495 23.6578 10.2187 23.8687C11.1328 24.0141 12.8671 24.0141 13.7812 23.8687C15.075 23.6578 16.1156 23.325 17.2734 22.7578C18.5343 22.1391 19.4296 21.4969 20.4656 20.4656C21.4968 19.4297 22.139 18.5344 22.7578 17.2734C23.1703 16.4344 23.3765 15.8859 23.6015 15.0422C23.8968 13.9172 23.9671 13.3031 23.9671 12C23.9671 10.6969 23.8968 10.0828 23.6015 8.9578C23.3765 8.11405 23.1703 7.56561 22.7578 6.72655C22.139 5.46561 21.4968 4.5703 20.4656 3.53436C19.4296 2.50311 18.5343 1.86093 17.2734 1.24218C16.1203 0.67499 15.0515 0.33749 13.8046 0.140614C13.1156 0.0328026 11.5781 -0.0187607 10.9218 0.0468636ZM13.1156 1.92655C15.4031 2.17499 17.4937 3.19218 19.1531 4.84686C21.0984 6.79218 22.125 9.26718 22.125 12C22.125 14.7328 21.0984 17.2078 19.1531 19.1531C17.2078 21.0984 14.7328 22.125 12 22.125C9.26714 22.125 6.79214 21.0984 4.84683 19.1531C2.90151 17.2078 1.87495 14.7328 1.87495 12C1.87495 9.26718 2.90151 6.79218 4.84683 4.84686C6.48276 3.21093 8.59683 2.17968 10.8281 1.92655C11.3437 1.8703 12.5906 1.86561 13.1156 1.92655Z" fill="#00729E"/>
<path d="M7.10152 11.0391C6.82496 11.1141 6.5484 11.3812 6.46402 11.6625C6.34215 12.075 6.55308 12.5531 6.94683 12.7453L7.15308 12.8438H12H16.8468L17.0531 12.7453C17.4468 12.5531 17.6578 12.075 17.5312 11.6578C17.4421 11.3625 17.1421 11.0859 16.8375 11.0203C16.4484 10.9406 7.41558 10.9547 7.10152 11.0391Z" fill="#00729E"/>
</svg>
