<svg width="131" height="24" viewBox="0 0 131 24" fill="none" xmlns="http://www.w3.org/2000/svg">
<path d="M41.476 8.054V17H42.79V12.626C42.79 11.042 43.456 9.296 45.58 9.296C45.76 9.296 45.94 9.296 46.084 9.332V7.946C45.994 7.91 45.85 7.91 45.652 7.91C45.292 7.91 44.932 7.964 44.59 8.09C43.906 8.342 43.186 8.936 42.754 9.818V8.054H41.476ZM55.7757 12.932C55.7937 12.734 55.7937 12.59 55.7937 12.5C55.7937 11.6 55.6497 10.826 55.3257 10.142C55.0197 9.458 54.5337 8.9 53.8857 8.504C53.2377 8.09 52.4637 7.892 51.5817 7.892C50.7717 7.892 50.0157 8.108 49.3497 8.54C48.6657 8.972 48.1437 9.53 47.7837 10.25C47.4057 10.952 47.2257 11.708 47.2257 12.518C47.2257 13.364 47.4237 14.138 47.8197 14.84C48.1977 15.56 48.7377 16.118 49.4397 16.532C50.1417 16.946 50.9157 17.162 51.7617 17.162C52.6797 17.162 53.4897 16.91 54.2097 16.442C54.9297 15.956 55.4157 15.29 55.6677 14.444L54.5157 14.084C54.1017 15.326 53.0937 15.992 51.7437 15.992C50.8797 15.992 50.1417 15.704 49.5297 15.11C48.9177 14.534 48.5937 13.814 48.5397 12.932H55.7757ZM48.5577 11.816C48.6657 11.06 49.0077 10.412 49.5837 9.854C50.1597 9.314 50.8077 9.044 51.5817 9.044C52.4097 9.044 53.0757 9.296 53.5797 9.8C54.0837 10.322 54.3897 10.988 54.4797 11.816H48.5577ZM61.6875 11.834C60.0855 11.834 58.1415 12.482 58.1415 14.426V14.516C58.1415 15.29 58.4295 15.92 58.9875 16.406C59.5275 16.91 60.2655 17.162 61.1475 17.162C62.4255 17.162 63.4155 16.586 64.1715 15.434C64.1715 16.082 64.2255 16.604 64.2975 17H65.5935C65.5035 16.334 65.4495 15.236 65.4495 13.742V11.222C65.4495 10.646 65.3595 10.16 65.1795 9.746C64.6395 8.504 63.5595 7.892 61.9215 7.892C60.9495 7.892 60.0855 8.216 59.5455 8.63C58.7355 9.278 58.3035 10.16 58.2855 10.61L59.5455 10.88C59.6175 10.43 59.8335 10.016 60.1935 9.656C60.5535 9.296 61.1655 9.062 61.8855 9.062C63.3795 9.062 64.1715 9.8 64.1715 11.24V11.834H61.6875ZM64.1715 13.22C64.1715 14.03 63.9015 14.714 63.3795 15.218C62.8395 15.74 62.1735 16.01 61.3815 16.01C60.8235 16.01 60.3735 15.866 60.0135 15.578C59.6355 15.29 59.4555 14.912 59.4555 14.408C59.4555 13.85 59.7615 13.418 60.2115 13.22C60.6615 13.004 61.1475 12.914 61.6695 12.914H64.1715V13.22ZM68.3708 12.518C68.3708 13.742 68.8028 14.894 69.5048 15.74C70.2248 16.586 71.3228 17.126 72.5648 17.126C74.0588 17.126 75.2288 16.46 76.0568 15.092V17H77.3348V3.356H76.0388V9.926C75.6428 9.35 75.2468 8.918 74.6888 8.522C74.1308 8.126 73.3928 7.892 72.5648 7.892C71.3408 7.892 70.2428 8.45 69.5228 9.332C68.8028 10.196 68.3708 11.348 68.3708 12.518ZM72.8348 15.992C72.2048 15.992 71.6468 15.83 71.1608 15.506C70.2068 14.858 69.7028 13.796 69.7028 12.554C69.7028 11.546 69.9908 10.718 70.5668 10.052C71.1248 9.386 71.8808 9.062 72.8348 9.062C73.4288 9.062 73.9868 9.224 74.4908 9.548C75.4808 10.214 76.0568 11.33 76.0568 12.5C76.0928 14.3 74.6708 16.01 72.8348 15.992ZM93.7822 17V11.852C93.7822 11.078 94.0162 10.412 94.4662 9.89C94.9162 9.35 95.5102 9.08 96.2662 9.08C97.0582 9.08 97.6342 9.35 98.0122 9.836C98.4082 10.34 98.5882 10.988 98.5882 11.798V17H99.8842V11.474C99.8842 10.394 99.5962 9.53 99.0382 8.882C98.4442 8.216 97.6342 7.892 96.5902 7.892C95.2582 7.892 94.1962 8.486 93.4402 9.692C92.9002 8.522 91.8742 7.892 90.5782 7.892C89.3002 7.892 88.4542 8.45 87.6802 9.602V8.054H86.4022V17H87.7162V11.906C87.7162 11.132 87.9322 10.466 88.3822 9.908C88.8322 9.35 89.4442 9.08 90.2002 9.08C90.9562 9.08 91.5322 9.332 91.9282 9.818C92.3062 10.322 92.5042 10.97 92.5042 11.744V17H93.7822ZM107.394 17.162C109.968 17.216 112.092 15.092 112.056 12.5C112.092 9.98 109.968 7.838 107.43 7.892C106.116 7.892 105.018 8.342 104.136 9.242C103.236 10.124 102.804 11.24 102.804 12.554C102.804 13.4 103.002 14.174 103.416 14.876C103.812 15.578 104.37 16.136 105.072 16.55C105.774 16.946 106.566 17.162 107.394 17.162ZM107.43 15.992C105.522 16.028 104.1 14.354 104.136 12.5C104.136 11.528 104.442 10.718 105.054 10.052C105.666 9.386 106.458 9.044 107.394 9.044C108.366 9.044 109.14 9.386 109.77 10.07C110.4 10.772 110.706 11.6 110.706 12.554C110.706 13.508 110.4 14.318 109.788 14.984C109.158 15.65 108.366 15.992 107.43 15.992ZM115.071 8.054V17H116.385V12.626C116.385 11.042 117.051 9.296 119.175 9.296C119.355 9.296 119.535 9.296 119.679 9.332V7.946C119.589 7.91 119.445 7.91 119.247 7.91C118.887 7.91 118.527 7.964 118.185 8.09C117.501 8.342 116.781 8.936 116.349 9.818V8.054H115.071ZM129.37 12.932C129.388 12.734 129.388 12.59 129.388 12.5C129.388 11.6 129.244 10.826 128.92 10.142C128.614 9.458 128.128 8.9 127.48 8.504C126.832 8.09 126.058 7.892 125.176 7.892C124.366 7.892 123.61 8.108 122.944 8.54C122.26 8.972 121.738 9.53 121.378 10.25C121 10.952 120.82 11.708 120.82 12.518C120.82 13.364 121.018 14.138 121.414 14.84C121.792 15.56 122.332 16.118 123.034 16.532C123.736 16.946 124.51 17.162 125.356 17.162C126.274 17.162 127.084 16.91 127.804 16.442C128.524 15.956 129.01 15.29 129.262 14.444L128.11 14.084C127.696 15.326 126.688 15.992 125.338 15.992C124.474 15.992 123.736 15.704 123.124 15.11C122.512 14.534 122.188 13.814 122.134 12.932H129.37ZM122.152 11.816C122.26 11.06 122.602 10.412 123.178 9.854C123.754 9.314 124.402 9.044 125.176 9.044C126.004 9.044 126.67 9.296 127.174 9.8C127.678 10.322 127.984 10.988 128.074 11.816H122.152Z" fill="#00729E"/>
<path d="M10.9219 0.0468788C8.60626 0.271879 6.46876 1.125 4.59376 2.56875C3.6797 3.27188 2.49376 4.59375 1.80939 5.67188C1.51407 6.13594 0.937512 7.31719 0.731262 7.87969C0.501575 8.50782 0.253137 9.47344 0.131262 10.2188C-0.0140503 11.1328 -0.0140503 12.8672 0.131262 13.7813C0.3422 15.075 0.675012 16.1156 1.2422 17.2734C1.86095 18.5344 2.50314 19.4297 3.53439 20.4656C4.57032 21.4969 5.46564 22.1391 6.72657 22.7578C7.88439 23.325 8.92501 23.6578 10.2188 23.8688C11.1328 24.0141 12.8672 24.0141 13.7813 23.8688C15.075 23.6578 16.1156 23.325 17.2735 22.7578C18.5344 22.1391 19.4297 21.4969 20.4656 20.4656C21.4969 19.4297 22.1391 18.5344 22.7578 17.2734C23.1703 16.4344 23.3766 15.8859 23.6016 15.0422C23.8969 13.9172 23.9672 13.3031 23.9672 12C23.9672 10.6969 23.8969 10.0828 23.6016 8.95782C23.3766 8.11407 23.1703 7.56563 22.7578 6.72657C22.1391 5.46563 21.4969 4.57032 20.4656 3.53438C19.4297 2.50313 18.5344 1.86094 17.2735 1.24219C16.1203 0.675005 15.0516 0.337505 13.8047 0.140629C13.1156 0.0328178 11.5781 -0.0187454 10.9219 0.0468788ZM13.1156 1.92657C15.4031 2.175 17.4938 3.19219 19.1531 4.84688C21.0984 6.79219 22.125 9.26719 22.125 12C22.125 14.7328 21.0984 17.2078 19.1531 19.1531C17.2078 21.0984 14.7328 22.125 12 22.125C9.2672 22.125 6.7922 21.0984 4.84689 19.1531C2.90157 17.2078 1.87501 14.7328 1.87501 12C1.87501 9.26719 2.90157 6.79219 4.84689 4.84688C6.48282 3.21094 8.59689 2.17969 10.8281 1.92657C11.3438 1.87032 12.5906 1.86563 13.1156 1.92657Z" fill="#00729E"/>
<path d="M11.7891 6.37031C11.475 6.45 11.1938 6.71719 11.1141 7.01719C11.0813 7.12969 11.0625 7.90781 11.0625 9.07969V10.9688H9.23438C8.05782 10.9688 7.32188 10.9875 7.16251 11.0203C6.85782 11.0859 6.55782 11.3625 6.46876 11.6578C6.34219 12.075 6.55313 12.5531 6.94688 12.7453C7.14844 12.8391 7.20938 12.8438 9.10782 12.8438H11.0578L11.0719 14.8219C11.0859 16.7297 11.0906 16.8141 11.1844 16.9922C11.2359 17.0953 11.3719 17.2406 11.4797 17.3203C11.6531 17.4422 11.7188 17.4609 12 17.4609C12.2813 17.4609 12.3469 17.4422 12.5203 17.3203C12.6281 17.2406 12.7641 17.0953 12.8156 16.9922C12.9094 16.8141 12.9141 16.7297 12.9281 14.8219L12.9422 12.8438H14.8922C16.7906 12.8438 16.8516 12.8391 17.0531 12.7453C17.4469 12.5531 17.6578 12.075 17.5313 11.6578C17.4422 11.3625 17.1422 11.0859 16.8375 11.0203C16.6781 10.9875 15.9422 10.9688 14.7656 10.9688H12.9375V9.07969C12.9375 7.90781 12.9188 7.12969 12.8859 7.01719C12.8344 6.81563 12.6094 6.54375 12.4266 6.45C12.2625 6.36563 11.9625 6.32813 11.7891 6.37031Z" fill="#00729E"/>
</svg>
