<svg width="11" height="11" viewBox="0 0 11 11" fill="none" xmlns="http://www.w3.org/2000/svg">
<path d="M4.87793 0.129885C2.77812 0.429494 1.08203 1.83106 0.434566 3.80899C0.226363 4.44375 0.155269 4.94902 0.175582 5.6625C0.198433 6.49277 0.353316 7.13262 0.713863 7.87402C1.40195 9.29336 2.69941 10.3521 4.22539 10.7432C4.74843 10.8777 4.91347 10.8955 5.57617 10.893C6.23632 10.893 6.39629 10.8752 6.92441 10.7406C7.60996 10.568 8.28535 10.243 8.87695 9.79609C9.16132 9.58027 9.68183 9.05215 9.90273 8.75254C10.6213 7.78262 10.9844 6.69082 10.9844 5.5C10.9844 4.04512 10.4283 2.70703 9.4 1.67617C8.58496 0.861135 7.62519 0.366017 6.45214 0.152737C6.13222 0.0943375 5.21562 0.0816422 4.87793 0.129885ZM5.9291 1.18359C8.53671 1.41465 10.3445 3.83692 9.8164 6.38359C9.58789 7.48047 8.91757 8.47324 7.98828 9.09277C5.80976 10.5451 2.87207 9.7707 1.7041 7.43477C0.914449 5.86055 1.1582 3.98164 2.32363 2.63848C3.02187 1.83106 4.10605 1.28262 5.18007 1.18613C5.51523 1.15567 5.60664 1.15567 5.9291 1.18359Z" fill="black"/>
<path d="M3.41797 5.5V8.2168H3.95117H4.48438L4.48945 7.13008L4.49707 6.0459H4.89062H5.28418L6.00781 7.13008L6.73145 8.21426L7.37383 8.2168C7.72422 8.2168 8.01367 8.20918 8.01367 8.19902C8.01367 8.19141 7.68105 7.68867 7.2748 7.08184C6.58164 6.04844 6.54102 5.97734 6.59687 5.96211C6.62734 5.95449 6.74668 5.90371 6.8584 5.84785C7.01328 5.76914 7.10977 5.69805 7.26465 5.54063C7.58711 5.21563 7.73438 4.8627 7.73438 4.4082C7.73438 3.62363 7.17324 2.96094 6.38867 2.81875C6.24395 2.79336 5.85801 2.78574 4.80937 2.7832H3.41797V5.5ZM6.36074 3.94102C6.6959 4.10859 6.75937 4.52246 6.49023 4.7916C6.32012 4.96172 6.25918 4.97188 5.29687 4.96172L4.49707 4.9541L4.48945 4.41328L4.48438 3.875H5.35527H6.22617L6.36074 3.94102Z" fill="black"/>
</svg>
