<svg width="129" height="30" viewBox="0 0 129 30" fill="none" xmlns="http://www.w3.org/2000/svg">
<path d="M8.2 18.18C8.2 16.58 6.9 15.76 5.6 15.46L4 15.1C3.12 14.88 2.56 14.52 2.56 13.74C2.56 13.3 2.74 12.92 3.12 12.62C3.5 12.3 3.94 12.16 4.48 12.16C5.22 12.16 5.82 12.4 6.16 12.8C6.48 13.2 6.64 13.52 6.74 13.92L8.06 13.54C7.98 13.12 7.82 12.7 7.46 12.2C6.94 11.48 5.98 10.9 4.48 10.88C3.8 10.88 3.04 11.1 2.34 11.54C1.62 11.98 1.1 12.82 1.1 13.84C1.1 15.2 1.94 16.08 3.58 16.44L5.1 16.78C5.54 16.88 5.92 17.04 6.24 17.3C6.56 17.54 6.72 17.86 6.72 18.26C6.72 18.76 6.52 19.16 6.12 19.44C5.7 19.74 5.22 19.9 4.66 19.9C3.08 19.9 2.38 18.78 2.22 17.86L0.9 18.2C0.96 18.7 1.1 19.18 1.5 19.72C2.04 20.5 3.08 21.16 4.68 21.16C5.66 21.16 6.5 20.88 7.18 20.32C7.86 19.78 8.2 19.06 8.2 18.18ZM20.3606 16.48C20.3806 16.26 20.3806 16.1 20.3806 16C20.3806 15 20.2206 14.14 19.8606 13.38C19.5206 12.62 18.9806 12 18.2606 11.56C17.5406 11.1 16.6806 10.88 15.7006 10.88C14.8006 10.88 13.9606 11.12 13.2206 11.6C12.4606 12.08 11.8806 12.7 11.4806 13.5C11.0606 14.28 10.8606 15.12 10.8606 16.02C10.8606 16.96 11.0806 17.82 11.5206 18.6C11.9406 19.4 12.5406 20.02 13.3206 20.48C14.1006 20.94 14.9606 21.18 15.9006 21.18C16.9206 21.18 17.8206 20.9 18.6206 20.38C19.4206 19.84 19.9606 19.1 20.2406 18.16L18.9606 17.76C18.5006 19.14 17.3806 19.88 15.8806 19.88C14.9206 19.88 14.1006 19.56 13.4206 18.9C12.7406 18.26 12.3806 17.46 12.3206 16.48H20.3606ZM12.3406 15.24C12.4606 14.4 12.8406 13.68 13.4806 13.06C14.1206 12.46 14.8406 12.16 15.7006 12.16C16.6206 12.16 17.3606 12.44 17.9206 13C18.4806 13.58 18.8206 14.32 18.9206 15.24H12.3406ZM32.4692 16.48C32.4892 16.26 32.4892 16.1 32.4892 16C32.4892 15 32.3292 14.14 31.9692 13.38C31.6292 12.62 31.0892 12 30.3692 11.56C29.6492 11.1 28.7892 10.88 27.8092 10.88C26.9092 10.88 26.0692 11.12 25.3292 11.6C24.5692 12.08 23.9892 12.7 23.5892 13.5C23.1692 14.28 22.9692 15.12 22.9692 16.02C22.9692 16.96 23.1892 17.82 23.6292 18.6C24.0492 19.4 24.6492 20.02 25.4292 20.48C26.2092 20.94 27.0692 21.18 28.0092 21.18C29.0292 21.18 29.9292 20.9 30.7292 20.38C31.5292 19.84 32.0692 19.1 32.3492 18.16L31.0692 17.76C30.6092 19.14 29.4892 19.88 27.9892 19.88C27.0292 19.88 26.2092 19.56 25.5292 18.9C24.8492 18.26 24.4892 17.46 24.4292 16.48H32.4692ZM24.4492 15.24C24.5692 14.4 24.9492 13.68 25.5892 13.06C26.2292 12.46 26.9492 12.16 27.8092 12.16C28.7292 12.16 29.4692 12.44 30.0292 13C30.5892 13.58 30.9292 14.32 31.0292 15.24H24.4492ZM49.9931 21V15.28C49.9931 14.42 50.2531 13.68 50.7531 13.1C51.2531 12.5 51.9131 12.2 52.7531 12.2C53.6331 12.2 54.2731 12.5 54.6931 13.04C55.1331 13.6 55.3331 14.32 55.3331 15.22V21H56.7731V14.86C56.7731 13.66 56.4531 12.7 55.8331 11.98C55.1731 11.24 54.2731 10.88 53.1131 10.88C51.6331 10.88 50.4531 11.54 49.6131 12.88C49.0131 11.58 47.8731 10.88 46.4331 10.88C45.0131 10.88 44.0731 11.5 43.2131 12.78V11.06H41.7931V21H43.2531V15.34C43.2531 14.48 43.4931 13.74 43.9931 13.12C44.4931 12.5 45.1731 12.2 46.0131 12.2C46.8531 12.2 47.4931 12.48 47.9331 13.02C48.3531 13.58 48.5731 14.3 48.5731 15.16V21H49.9931ZM65.1177 21.18C67.9777 21.24 70.3377 18.88 70.2977 16C70.3377 13.2 67.9777 10.82 65.1577 10.88C63.6977 10.88 62.4777 11.38 61.4977 12.38C60.4977 13.36 60.0177 14.6 60.0177 16.06C60.0177 17 60.2377 17.86 60.6977 18.64C61.1377 19.42 61.7577 20.04 62.5377 20.5C63.3177 20.94 64.1977 21.18 65.1177 21.18ZM65.1577 19.88C63.0377 19.92 61.4577 18.06 61.4977 16C61.4977 14.92 61.8377 14.02 62.5177 13.28C63.1977 12.54 64.0777 12.16 65.1177 12.16C66.1977 12.16 67.0577 12.54 67.7577 13.3C68.4577 14.08 68.7977 15 68.7977 16.06C68.7977 17.12 68.4577 18.02 67.7777 18.76C67.0777 19.5 66.1977 19.88 65.1577 19.88ZM73.647 11.06V21H75.107V16.14C75.107 14.38 75.847 12.44 78.207 12.44C78.407 12.44 78.607 12.44 78.767 12.48V10.94C78.667 10.9 78.507 10.9 78.287 10.9C77.887 10.9 77.487 10.96 77.107 11.1C76.347 11.38 75.547 12.04 75.067 13.02V11.06H73.647ZM89.5356 16.48C89.5556 16.26 89.5556 16.1 89.5556 16C89.5556 15 89.3956 14.14 89.0356 13.38C88.6956 12.62 88.1556 12 87.4356 11.56C86.7156 11.1 85.8556 10.88 84.8756 10.88C83.9756 10.88 83.1356 11.12 82.3956 11.6C81.6356 12.08 81.0556 12.7 80.6556 13.5C80.2356 14.28 80.0356 15.12 80.0356 16.02C80.0356 16.96 80.2556 17.82 80.6956 18.6C81.1156 19.4 81.7156 20.02 82.4956 20.48C83.2756 20.94 84.1356 21.18 85.0756 21.18C86.0956 21.18 86.9956 20.9 87.7956 20.38C88.5956 19.84 89.1356 19.1 89.4156 18.16L88.1356 17.76C87.6756 19.14 86.5556 19.88 85.0556 19.88C84.0956 19.88 83.2756 19.56 82.5956 18.9C81.9156 18.26 81.5556 17.46 81.4956 16.48H89.5356ZM81.5156 15.24C81.6356 14.4 82.0156 13.68 82.6556 13.06C83.2956 12.46 84.0156 12.16 84.8756 12.16C85.7956 12.16 86.5356 12.44 87.0956 13C87.6556 13.58 87.9956 14.32 88.0956 15.24H81.5156Z" fill="#1C7EA5"/>
<path d="M128.061 16.0607C128.646 15.4749 128.646 14.5251 128.061 13.9393L118.515 4.3934C117.929 3.80761 116.979 3.80761 116.393 4.3934C115.808 4.97919 115.808 5.92893 116.393 6.51472L124.879 15L116.393 23.4853C115.808 24.0711 115.808 25.0208 116.393 25.6066C116.979 26.1924 117.929 26.1924 118.515 25.6066L128.061 16.0607ZM107 16.5L127 16.5V13.5L107 13.5V16.5Z" fill="#00729E"/>
</svg>
