<svg width="24" height="24" viewBox="0 0 24 24" fill="none" xmlns="http://www.w3.org/2000/svg">
<path d="M20.3478 0H3.65217C1.63826 0 0 1.63826 0 3.65217V20.3478C0 22.3617 1.63878 24 3.65217 24V23.9525C4.07843 24 4.85322 24 6.26087 24H20.3478C22.3617 24 24 22.3612 24 20.3478V3.65217C24 1.63826 22.3612 0 20.3478 0ZM22.9565 20.3478C22.9565 21.7863 21.7863 22.9565 20.3478 22.9565C20.3478 22.9565 3.76748 22.9565 3.65217 22.9565C2.21374 22.9565 1.04348 21.7863 1.04348 20.3478V3.65217C1.04348 2.21374 2.21374 1.04348 3.65217 1.04348H20.3478C21.7863 1.04348 22.9565 2.21374 22.9565 3.65217V20.3478Z" fill="black" fill-opacity="0.76"/>
<path d="M12 4.17392C7.6847 4.17392 4.17392 7.6847 4.17392 12C4.17392 16.3153 7.6847 19.8261 12 19.8261C16.3153 19.8261 19.8261 16.3153 19.8261 12C19.8261 7.6847 16.3153 4.17392 12 4.17392ZM12 18.7826C8.26018 18.7826 5.2174 15.7398 5.2174 12C5.2174 8.26018 8.26018 5.2174 12 5.2174C15.7398 5.2174 18.7826 8.26018 18.7826 12C18.7826 15.7398 15.7398 18.7826 12 18.7826Z" fill="black" fill-opacity="0.76"/>
<path d="M11.9751 7.27985C9.37262 7.27985 7.25488 9.39759 7.25488 12C7.25488 14.6025 9.37262 16.7202 11.9751 16.7202C14.5775 16.7202 16.6952 14.6025 16.6952 12C16.6952 9.39759 14.5775 7.27985 11.9751 7.27985ZM11.9751 15.6767C9.94758 15.6767 8.29836 14.0275 8.29836 12C8.29836 9.97255 9.94758 8.32333 11.9751 8.32333C14.0025 8.32333 15.6518 9.97255 15.6518 12C15.6518 14.0275 14.0025 15.6767 11.9751 15.6767Z" fill="black" fill-opacity="0.76"/>
<path d="M19.8257 5.21739C20.402 5.21739 20.8692 4.75021 20.8692 4.17391C20.8692 3.59761 20.402 3.13043 19.8257 3.13043C19.2494 3.13043 18.7822 3.59761 18.7822 4.17391C18.7822 4.75021 19.2494 5.21739 19.8257 5.21739Z" fill="black" fill-opacity="0.76"/>
</svg>
