<svg width="15" height="313" viewBox="0 0 15 313" fill="none" xmlns="http://www.w3.org/2000/svg">
<path d="M1.504 305.56C1.504 304.013 1.856 302.813 2.56 301.96C3.264 301.096 4.24 300.664 5.488 300.664C5.904 300.664 6.34133 300.712 6.8 300.808L7.104 300.872C8.75733 301.224 9.98933 301.923 10.8 302.968C11.6 304.013 12 305.453 12 307.288L12 312.184L1.504 309.848L1.504 305.56ZM11.312 307.224C11.312 305.635 10.9653 304.387 10.272 303.48C9.568 302.573 8.496 301.965 7.056 301.656L6.736 301.576C6.29867 301.48 5.89333 301.432 5.52 301.432C4.45333 301.432 3.632 301.795 3.056 302.52C2.48 303.235 2.192 304.264 2.192 305.608L2.192 309.208L11.312 311.24L11.312 307.224ZM3.984 293.989C3.984 293.179 4.128 292.464 4.416 291.845C4.69333 291.216 5.07733 290.731 5.568 290.389C6.05867 290.037 6.61867 289.861 7.248 289.861C7.472 289.861 7.68533 289.883 7.888 289.925L8.32 290.005L8.32 298.085C8.512 298.107 8.65067 298.117 8.736 298.117C9.26933 298.117 9.744 297.973 10.16 297.685C10.576 297.397 10.9013 296.987 11.136 296.453C11.3707 295.92 11.488 295.307 11.488 294.613C11.488 293.643 11.3013 292.843 10.928 292.213C10.544 291.584 10.0053 291.184 9.312 291.013L9.312 290.213C10.24 290.448 10.9493 290.944 11.44 291.701C11.9307 292.448 12.176 293.419 12.176 294.613C12.176 295.456 12.032 296.197 11.744 296.837C11.4453 297.477 11.0347 297.973 10.512 298.325C9.98933 298.677 9.39733 298.853 8.736 298.853C8.448 298.853 8.16 298.821 7.872 298.757L7.504 298.677C6.384 298.443 5.52 297.925 4.912 297.125C4.29333 296.315 3.984 295.269 3.984 293.989ZM4.672 294.021C4.672 295.088 4.91733 295.952 5.408 296.613C5.888 297.275 6.592 297.712 7.52 297.925L7.68 297.957L7.68 290.645C7.488 290.624 7.34933 290.613 7.264 290.613C6.76267 290.613 6.31467 290.757 5.92 291.045C5.52533 291.323 5.22133 291.723 5.008 292.245C4.784 292.757 4.672 293.349 4.672 294.021ZM12.176 284.119C12.176 284.962 12.0907 285.698 11.92 286.327C11.7387 286.956 11.488 287.442 11.168 287.783C10.848 288.124 10.4747 288.295 10.048 288.295C9.984 288.295 9.888 288.284 9.76 288.263L9.648 288.247L9.648 287.479L9.76 287.511C9.81333 287.522 9.888 287.527 9.984 287.527C10.464 287.527 10.8373 287.228 11.104 286.631C11.3707 286.023 11.504 285.18 11.504 284.103C11.504 282.994 11.3867 282.135 11.152 281.527C10.9067 280.908 10.5493 280.546 10.08 280.439L9.952 280.407C9.824 280.386 9.73867 280.375 9.696 280.375C9.35467 280.375 9.08267 280.567 8.88 280.951C8.66667 281.324 8.51733 281.906 8.432 282.695L8.24 284.439C8.048 286.21 7.472 287.095 6.512 287.095C6.384 287.095 6.256 287.079 6.128 287.047L5.968 287.015C5.31733 286.908 4.82667 286.498 4.496 285.783C4.15466 285.068 3.984 284.082 3.984 282.823C3.984 282.023 4.07466 281.319 4.256 280.711C4.42666 280.103 4.67733 279.634 5.008 279.303C5.328 278.962 5.696 278.791 6.112 278.791C6.176 278.791 6.272 278.802 6.4 278.823L6.512 278.839L6.512 279.591L6.4 279.575C6.35733 279.564 6.288 279.559 6.192 279.559C5.73333 279.559 5.36533 279.858 5.088 280.455C4.8 281.052 4.656 281.858 4.656 282.871C4.656 283.906 4.77333 284.711 5.008 285.287C5.232 285.852 5.56267 286.178 6 286.263L6.144 286.279C6.272 286.3 6.36267 286.311 6.416 286.311C6.736 286.311 6.992 286.156 7.184 285.847C7.36533 285.527 7.49867 285.02 7.584 284.327L7.792 282.583C7.90933 281.58 8.11733 280.834 8.416 280.343C8.704 279.852 9.09333 279.607 9.584 279.607C9.70133 279.607 9.83467 279.623 9.984 279.655L10.144 279.687C10.8053 279.826 11.312 280.274 11.664 281.031C12.0053 281.788 12.176 282.818 12.176 284.119ZM4.16 274.495L12 276.239L12 276.991L4.16 275.247L4.16 274.495ZM2.544 274.383C2.544 274.543 2.496 274.682 2.4 274.799C2.29333 274.906 2.16 274.959 2 274.959C1.808 274.959 1.65866 274.901 1.552 274.783C1.43466 274.666 1.376 274.517 1.376 274.335C1.376 274.175 1.424 274.042 1.52 273.935C1.616 273.829 1.744 273.775 1.904 273.775C2.096 273.775 2.25066 273.834 2.368 273.951C2.48533 274.069 2.544 274.213 2.544 274.383ZM4.16 262.781L11.664 264.477C12.752 264.722 13.5627 265.25 14.096 266.061C14.6293 266.861 14.896 267.965 14.896 269.373C14.896 270.205 14.7893 270.93 14.576 271.549C14.3733 272.157 14.0853 272.632 13.712 272.973C13.3387 273.304 12.9013 273.469 12.4 273.469C12.3147 273.469 12.1867 273.458 12.016 273.437L11.856 273.405L11.856 272.621L12.016 272.653C12.144 272.674 12.24 272.685 12.304 272.685C12.88 272.685 13.3387 272.386 13.68 271.789C14.032 271.181 14.208 270.37 14.208 269.357C14.208 266.989 13.3493 265.613 11.632 265.229L10.32 264.941C10.7893 265.453 11.1467 266.018 11.392 266.637C11.6373 267.256 11.76 267.901 11.76 268.573C11.76 269.373 11.6267 270.072 11.36 270.669C11.0933 271.266 10.7253 271.725 10.256 272.045C9.776 272.365 9.22133 272.525 8.592 272.525C8.32533 272.525 8.048 272.493 7.76 272.429L7.424 272.349C6.304 272.125 5.45066 271.608 4.864 270.797C4.27733 269.986 3.984 268.909 3.984 267.565C3.984 266.786 4.13866 266.072 4.448 265.421C4.74666 264.77 5.16266 264.258 5.696 263.885L4.16 263.501L4.16 262.781ZM11.088 268.477C11.088 267.752 10.944 267.069 10.656 266.429C10.368 265.778 9.95733 265.213 9.424 264.733L6.464 264.061C5.93066 264.338 5.49866 264.797 5.168 265.437C4.83733 266.077 4.672 266.781 4.672 267.549C4.672 268.69 4.90666 269.602 5.376 270.285C5.84533 270.968 6.53866 271.4 7.456 271.581L7.792 271.661C8.00533 271.714 8.25066 271.741 8.528 271.741C9.31733 271.741 9.94133 271.453 10.4 270.877C10.8587 270.301 11.088 269.501 11.088 268.477ZM3.984 255.549C3.984 254.419 4.24533 253.549 4.768 252.941C5.29066 252.323 6.01066 252.013 6.928 252.013C7.26933 252.013 7.60533 252.051 7.936 252.125L12 253.005L12 253.773L7.888 252.861C7.57866 252.797 7.29066 252.765 7.024 252.765C6.27733 252.765 5.70133 253.016 5.296 253.517C4.88 254.008 4.672 254.717 4.672 255.645C4.672 256.381 4.832 257.085 5.152 257.757C5.472 258.429 5.91466 258.989 6.48 259.437L12 260.669L12 261.437L4.16 259.693L4.16 258.989L5.52 259.245C5.02933 258.744 4.656 258.179 4.4 257.549C4.13333 256.92 3.99466 256.253 3.984 255.549ZM4.16 227.384L4.288 227.416L12 232.68L12 233.672L5.072 235.24L12 239.88L12 240.872L4.288 242.712L4.16 242.68L4.16 241.944L11.344 240.28L4.16 235.48L4.16 234.712L11.344 233.08L4.16 228.2L4.16 227.384ZM4.16 223.714L12 225.458L12 226.21L4.16 224.466L4.16 223.714ZM2.544 223.602C2.544 223.762 2.496 223.901 2.4 224.018C2.29333 224.125 2.16 224.178 2 224.178C1.808 224.178 1.65866 224.119 1.552 224.002C1.43466 223.885 1.376 223.735 1.376 223.554C1.376 223.394 1.424 223.261 1.52 223.154C1.616 223.047 1.744 222.994 1.904 222.994C2.096 222.994 2.25066 223.053 2.368 223.17C2.48533 223.287 2.544 223.431 2.544 223.602ZM9.792 218.944C9.952 218.976 10.096 218.992 10.224 218.992C10.5867 218.992 10.864 218.875 11.056 218.64C11.248 218.405 11.344 218.08 11.344 217.664L11.344 215.824L12 215.968L12 217.76C12 218.379 11.8507 218.864 11.552 219.216C11.2533 219.568 10.8427 219.744 10.32 219.744C10.1173 219.744 9.93066 219.723 9.76 219.68L4.816 218.592L4.816 221.792L4.16 221.664L4.16 218.768C4.16 218.64 4.13866 218.544 4.096 218.48C4.04266 218.416 3.95733 218.373 3.84 218.352L2.032 217.952L2.032 217.2L4.16 217.68L4.16 213.744L4.816 213.888L4.816 217.824L9.792 218.944ZM3.98399 207.815C3.98399 206.685 4.24533 205.81 4.76799 205.191C5.29066 204.573 6.01066 204.263 6.928 204.263C7.26933 204.263 7.60533 204.301 7.936 204.375L12 205.255L12 206.023L7.888 205.111C7.57866 205.047 7.29066 205.015 7.02399 205.015C6.27733 205.015 5.70133 205.271 5.29599 205.783C4.87999 206.285 4.67199 206.999 4.67199 207.927C4.67199 208.642 4.83199 209.335 5.15199 210.007C5.472 210.679 5.91466 211.239 6.48 211.687L12 212.919L12 213.687L0.863995 211.207L0.863995 210.439L5.504 211.479C5.01333 210.978 4.64 210.413 4.384 209.783C4.11733 209.154 3.98399 208.498 3.98399 207.815ZM12 193.41C12 193.975 11.8827 194.407 11.648 194.706C11.4027 194.994 11.0507 195.138 10.592 195.138C10.3787 195.138 10.1813 195.117 9.99999 195.074L0.863994 193.058L0.863994 192.306L9.98399 194.322C10.2187 194.365 10.3787 194.386 10.464 194.386C10.7627 194.386 10.9867 194.29 11.136 194.098C11.2747 193.906 11.344 193.607 11.344 193.202L11.344 192.546L12 192.69L12 193.41ZM12.176 186.285C12.176 187.138 12.032 187.885 11.744 188.525C11.4453 189.165 11.0347 189.661 10.512 190.013C9.98933 190.365 9.39733 190.541 8.73599 190.541C8.44799 190.541 8.15999 190.509 7.87199 190.445L7.53599 190.381C6.39466 190.146 5.51999 189.623 4.91199 188.813C4.29333 188.002 3.98399 186.951 3.98399 185.661C3.98399 184.829 4.13333 184.093 4.43199 183.453C4.73066 182.813 5.14133 182.317 5.66399 181.965C6.18666 181.613 6.77866 181.437 7.43999 181.437C7.72799 181.437 8.01599 181.469 8.30399 181.533L8.63999 181.613C9.75999 181.826 10.6293 182.338 11.248 183.149C11.8667 183.959 12.176 185.005 12.176 186.285ZM11.488 186.285C11.488 185.197 11.232 184.317 10.72 183.645C10.208 182.973 9.49866 182.546 8.59199 182.365L8.25599 182.301C7.99999 182.237 7.74399 182.205 7.48799 182.205C6.94399 182.205 6.45866 182.349 6.03199 182.637C5.60533 182.914 5.27466 183.314 5.03999 183.837C4.79466 184.359 4.67199 184.967 4.67199 185.661C4.67199 186.759 4.92799 187.645 5.43999 188.317C5.94133 188.989 6.65599 189.421 7.58399 189.613L7.93599 189.693C8.22399 189.746 8.46399 189.773 8.65599 189.773C9.21066 189.773 9.70133 189.629 10.128 189.341C10.5547 189.053 10.8907 188.647 11.136 188.125C11.3707 187.591 11.488 186.978 11.488 186.285ZM4.15999 169.882L4.28799 169.898L12 175.818L12 176.81L4.28799 179.29L4.15999 179.258L4.15999 178.538L11.376 176.25L4.15999 170.714L4.15999 169.882ZM3.98399 164.349C3.98399 163.538 4.12799 162.823 4.41599 162.205C4.69333 161.575 5.07733 161.09 5.56799 160.749C6.05866 160.397 6.61866 160.221 7.24799 160.221C7.47199 160.221 7.68533 160.242 7.88799 160.285L8.31999 160.365L8.31999 168.445C8.51199 168.466 8.65066 168.477 8.73599 168.477C9.26933 168.477 9.74399 168.333 10.16 168.045C10.576 167.757 10.9013 167.346 11.136 166.813C11.3707 166.279 11.488 165.666 11.488 164.973C11.488 164.002 11.3013 163.202 10.928 162.573C10.544 161.943 10.0053 161.543 9.31199 161.373L9.31199 160.573C10.24 160.807 10.9493 161.303 11.44 162.061C11.9307 162.807 12.176 163.778 12.176 164.973C12.176 165.815 12.032 166.557 11.744 167.197C11.4453 167.837 11.0347 168.333 10.512 168.685C9.98933 169.037 9.39733 169.213 8.73599 169.213C8.44799 169.213 8.15999 169.181 7.87199 169.117L7.50399 169.037C6.38399 168.802 5.51999 168.285 4.91199 167.485C4.29333 166.674 3.98399 165.629 3.98399 164.349ZM4.67199 164.381C4.67199 165.447 4.91733 166.311 5.40799 166.973C5.88799 167.634 6.59199 168.071 7.51999 168.285L7.67999 168.317L7.67999 161.005C7.48799 160.983 7.34933 160.973 7.26399 160.973C6.76266 160.973 6.31466 161.117 5.91999 161.405C5.52533 161.682 5.22133 162.082 5.00799 162.605C4.78399 163.117 4.67199 163.709 4.67199 164.381ZM3.98399 146.52C3.98399 145.731 4.13333 145.037 4.43199 144.44C4.71999 143.843 5.12533 143.384 5.64799 143.064C6.15999 142.733 6.74666 142.568 7.40799 142.568C7.70666 142.568 7.97866 142.595 8.22399 142.648L8.57599 142.728C9.72799 142.941 10.6187 143.464 11.248 144.296C11.8667 145.128 12.176 146.2 12.176 147.512C12.176 148.301 12.0213 149.021 11.712 149.672C11.4027 150.323 10.976 150.835 10.432 151.208L12 151.608L12 152.328L0.863992 149.848L0.863992 149.08L5.37599 150.072C4.44799 149.08 3.98399 147.896 3.98399 146.52ZM8.17599 143.4C7.90933 143.347 7.67466 143.32 7.47199 143.32C6.92799 143.32 6.44266 143.459 6.01599 143.736C5.58933 144.003 5.25866 144.387 5.02399 144.888C4.78933 145.389 4.67199 145.971 4.67199 146.632C4.67199 148.104 5.21066 149.32 6.28799 150.28L9.66399 151.016C10.208 150.739 10.6507 150.285 10.992 149.656C11.3227 149.016 11.488 148.312 11.488 147.544C11.488 146.424 11.232 145.517 10.72 144.824C10.208 144.12 9.47733 143.672 8.52799 143.48L8.17599 143.4ZM4.15999 131.007L4.28799 131.023L13.088 137.791C13.5147 138.122 13.84 138.426 14.064 138.703C14.2987 138.981 14.464 139.285 14.56 139.615C14.6667 139.946 14.72 140.362 14.72 140.863L14.72 142.143L14.064 141.999L14.064 140.815C14.064 140.271 13.9787 139.839 13.808 139.519C13.6373 139.189 13.312 138.837 12.832 138.463L12.064 137.871L4.28799 140.415L4.15999 140.383L4.15999 139.647L11.376 137.343L4.15999 131.855L4.15999 131.007ZM12.176 118.789C12.176 120.293 11.9467 121.45 11.488 122.261C11.0187 123.061 10.3573 123.461 9.50399 123.461C9.29066 123.461 9.08266 123.439 8.87999 123.397L8.70399 123.349L8.70399 122.565L8.87999 122.613C9.05066 122.645 9.22132 122.661 9.39199 122.661C10.0747 122.661 10.592 122.33 10.944 121.669C11.296 121.007 11.472 120.031 11.472 118.741C11.472 117.439 11.312 116.447 10.992 115.765C10.672 115.082 10.1707 114.666 9.48799 114.517L9.34399 114.485C9.10932 114.442 8.94932 114.421 8.86399 114.421C8.38399 114.421 8.01066 114.634 7.74399 115.061C7.46666 115.487 7.26399 116.165 7.13599 117.093L6.86399 119.093C6.72532 120.053 6.46399 120.789 6.07999 121.301C5.69599 121.802 5.20532 122.053 4.60799 122.053C4.41599 122.053 4.23466 122.031 4.06399 121.989L3.88799 121.957C2.18132 121.583 1.32799 119.983 1.32799 117.157C1.32799 115.738 1.55732 114.65 2.01599 113.893C2.46399 113.125 3.10399 112.741 3.93599 112.741C4.15999 112.741 4.37332 112.762 4.57599 112.805L4.75199 112.837L4.75199 113.621L4.57599 113.589C4.31999 113.546 4.14399 113.525 4.04799 113.525C3.38666 113.525 2.88532 113.834 2.54399 114.453C2.20266 115.071 2.03199 115.978 2.03199 117.173C2.03199 118.389 2.19199 119.322 2.51199 119.973C2.82132 120.623 3.30666 121.023 3.96799 121.173L4.11199 121.205C4.25066 121.237 4.39466 121.253 4.54399 121.253C5.00266 121.253 5.37066 121.055 5.64799 120.661C5.91466 120.255 6.10132 119.642 6.20799 118.821L6.46399 116.821C6.73066 114.698 7.49866 113.637 8.76799 113.637C8.93866 113.637 9.14666 113.663 9.39199 113.717L9.56799 113.749C10.4427 113.941 11.0987 114.442 11.536 115.253C11.9627 116.053 12.176 117.231 12.176 118.789ZM11.344 101.546L12 101.69L12 102.442C12 102.954 11.872 103.359 11.616 103.658C11.36 103.946 11.024 104.079 10.608 104.058C11.6533 105.188 12.176 106.612 12.176 108.33C12.176 109.311 12.0107 110.074 11.68 110.618C11.3387 111.151 10.8747 111.418 10.288 111.418C10.1493 111.418 9.99999 111.402 9.83999 111.37C9.24266 111.242 8.79466 110.911 8.49599 110.378C8.18666 109.844 7.98399 109.071 7.88799 108.058L7.43999 103.402L7.31199 103.37C7.14132 103.327 6.95466 103.306 6.75199 103.306C6.11199 103.306 5.61066 103.572 5.24799 104.106C4.87466 104.639 4.68799 105.38 4.68799 106.33C4.68799 107.311 4.88532 108.127 5.27999 108.778C5.67466 109.418 6.21866 109.812 6.91199 109.962L7.02399 109.978L7.02399 110.746L6.91199 110.714C6.00532 110.543 5.29066 110.063 4.76799 109.274C4.24532 108.484 3.98399 107.487 3.98399 106.282C3.98399 105.119 4.22932 104.207 4.71999 103.546C5.19999 102.884 5.85066 102.554 6.67199 102.554C6.86399 102.554 7.09332 102.58 7.35999 102.634L10.208 103.242C10.2827 103.263 10.384 103.274 10.512 103.274C10.7787 103.274 10.9867 103.188 11.136 103.018C11.2747 102.836 11.344 102.58 11.344 102.25L11.344 101.546ZM11.52 108.314C11.52 107.396 11.36 106.554 11.04 105.786C10.72 105.007 10.272 104.372 9.69599 103.882L8.06399 103.53L8.49599 108.074C8.57066 108.895 8.72532 109.508 8.95999 109.914C9.18399 110.319 9.50932 110.564 9.93599 110.65C10.064 110.671 10.1547 110.682 10.208 110.682C10.6347 110.682 10.96 110.484 11.184 110.09C11.408 109.684 11.52 109.092 11.52 108.314ZM3.98399 87.4365C3.98399 86.4018 4.23999 85.6018 4.75199 85.0365C5.26399 84.4605 5.96799 84.1725 6.86399 84.1725C7.20532 84.1725 7.54132 84.2098 7.87199 84.2845L12 85.1965L12 85.9645L7.82399 85.0365C7.45066 84.9618 7.15199 84.9245 6.92799 84.9245C6.22399 84.9245 5.67466 85.1485 5.27999 85.5965C4.87466 86.0445 4.67199 86.6685 4.67199 87.4685C4.67199 88.1938 4.84799 88.9032 5.19999 89.5965C5.55199 90.2898 6.02666 90.8712 6.62399 91.3405C6.68799 91.3298 6.78399 91.3245 6.91199 91.3245C7.24266 91.3245 7.56266 91.3618 7.87199 91.4365L12 92.3325L12 93.1005L7.82399 92.1725C7.45066 92.0978 7.15732 92.0605 6.94399 92.0605C6.22932 92.0605 5.67466 92.2845 5.27999 92.7325C4.87466 93.1805 4.67199 93.8152 4.67199 94.6365C4.67199 95.3298 4.83199 96.0018 5.15199 96.6525C5.47199 97.2925 5.91466 97.8312 6.47999 98.2685L12 99.5005L12 100.252L4.15999 98.5085L4.15999 97.8365L5.50399 98.0765C5.00266 97.5752 4.62399 97.0258 4.36799 96.4285C4.11199 95.8205 3.98399 95.1805 3.98399 94.5085C3.98399 93.7085 4.14932 93.0472 4.47999 92.5245C4.81066 92.0018 5.27466 91.6498 5.87199 91.4685C5.26399 90.9352 4.79999 90.3272 4.47999 89.6445C4.14932 88.9512 3.98399 88.2152 3.98399 87.4365ZM3.98399 69.7021C3.98399 68.6675 4.23999 67.8675 4.75199 67.3021C5.26399 66.7261 5.96799 66.4381 6.86399 66.4381C7.20532 66.4381 7.54132 66.4755 7.87199 66.5501L12 67.4621L12 68.2301L7.82399 67.3021C7.45066 67.2275 7.15199 67.1901 6.92799 67.1901C6.22399 67.1901 5.67466 67.4141 5.27999 67.8621C4.87466 68.3101 4.67199 68.9341 4.67199 69.7341C4.67199 70.4595 4.84799 71.1688 5.19999 71.8621C5.55199 72.5555 6.02666 73.1368 6.62399 73.6061C6.68799 73.5955 6.78399 73.5901 6.91199 73.5901C7.24266 73.5901 7.56266 73.6275 7.87199 73.7021L12 74.5981L12 75.3661L7.82399 74.4381C7.45066 74.3635 7.15732 74.3261 6.94399 74.3261C6.22932 74.3261 5.67466 74.5501 5.27999 74.9981C4.87466 75.4461 4.67199 76.0808 4.67199 76.9021C4.67199 77.5955 4.83199 78.2675 5.15199 78.9181C5.47199 79.5581 5.91466 80.0968 6.47999 80.5341L12 81.7661L12 82.5181L4.15999 80.7741L4.15999 80.1021L5.50399 80.3421C5.00266 79.8408 4.62399 79.2915 4.36799 78.6941C4.11199 78.0861 3.98399 77.4461 3.98399 76.7741C3.98399 75.9741 4.14932 75.3128 4.47999 74.7901C4.81066 74.2675 5.27466 73.9155 5.87199 73.7341C5.26399 73.2008 4.79999 72.5928 4.47999 71.9101C4.14932 71.2168 3.98399 70.4808 3.98399 69.7021ZM4.15999 54.7885L4.28799 54.8045L13.088 61.5725C13.5147 61.9032 13.84 62.2072 14.064 62.4845C14.2987 62.7618 14.464 63.0658 14.56 63.3965C14.6667 63.7272 14.72 64.1432 14.72 64.6445L14.72 65.9245L14.064 65.7805L14.064 64.5965C14.064 64.0525 13.9787 63.6205 13.808 63.3005C13.6373 62.9698 13.312 62.6178 12.832 62.2445L12.064 61.6525L4.28799 64.1965L4.15999 64.1645L4.15999 63.4285L11.376 61.1245L4.15999 55.6365L4.15999 54.7885ZM1.50399 44.01L12 46.346L12 47.13L1.50399 44.794L1.50399 44.01ZM12.176 38.2527C12.176 39.1061 12.032 39.8581 11.744 40.5087C11.4453 41.1487 11.0347 41.6501 10.512 42.0127C9.98932 42.3647 9.39732 42.5407 8.73599 42.5407C8.42665 42.5407 8.12799 42.5034 7.83999 42.4287L7.50399 42.3487C6.37332 42.1141 5.50399 41.5967 4.89599 40.7967C4.28799 39.9861 3.98399 38.9461 3.98399 37.6767C3.98399 36.8874 4.11732 36.1781 4.38399 35.5487C4.63999 34.9087 4.99732 34.4074 5.45599 34.0447C5.90399 33.6821 6.39999 33.5007 6.94399 33.5007C7.09332 33.5007 7.24799 33.5167 7.40799 33.5487L7.48799 33.5647L7.48799 34.3327L7.40799 34.3167C7.27999 34.2847 7.14665 34.2687 7.00799 34.2687C6.57065 34.2687 6.17599 34.4181 5.82399 34.7167C5.47199 35.0047 5.19465 35.4101 4.99199 35.9327C4.77865 36.4447 4.67199 37.0261 4.67199 37.6767C4.67199 38.7434 4.92799 39.6181 5.43999 40.3007C5.94132 40.9834 6.66132 41.4207 7.59999 41.6127L7.93599 41.6927C8.14932 41.7461 8.39999 41.7727 8.68799 41.7727C9.23199 41.7727 9.71732 41.6287 10.144 41.3407C10.5707 41.0527 10.9013 40.6421 11.136 40.1087C11.3707 39.5754 11.488 38.9567 11.488 38.2527C11.488 37.2821 11.28 36.4767 10.864 35.8367C10.448 35.1967 9.88799 34.8074 9.18399 34.6687L9.10399 34.6367L9.10399 33.8527L9.18399 33.8687C10.1013 34.0501 10.832 34.5354 11.376 35.3247C11.9093 36.1034 12.176 37.0794 12.176 38.2527ZM12.176 27.566C12.176 28.4193 12.032 29.166 11.744 29.806C11.4453 30.446 11.0347 30.942 10.512 31.294C9.98932 31.646 9.39732 31.822 8.73599 31.822C8.44799 31.822 8.15999 31.79 7.87199 31.726L7.53599 31.662C6.39465 31.4273 5.51999 30.9047 4.91199 30.094C4.29332 29.2833 3.98399 28.2327 3.98399 26.942C3.98399 26.11 4.13332 25.374 4.43199 24.734C4.73065 24.094 5.14132 23.598 5.66399 23.246C6.18665 22.894 6.77865 22.718 7.43999 22.718C7.72799 22.718 8.01599 22.75 8.30399 22.814L8.63999 22.894C9.75999 23.1073 10.6293 23.6193 11.248 24.43C11.8667 25.2407 12.176 26.286 12.176 27.566ZM11.488 27.566C11.488 26.478 11.232 25.598 10.72 24.926C10.208 24.254 9.49865 23.8273 8.59199 23.646L8.25599 23.582C7.99999 23.518 7.74399 23.486 7.48799 23.486C6.94399 23.486 6.45865 23.63 6.03199 23.918C5.60532 24.1953 5.27465 24.5953 5.03999 25.118C4.79465 25.6407 4.67199 26.2487 4.67199 26.942C4.67199 28.0407 4.92799 28.926 5.43999 29.598C5.94132 30.27 6.65599 30.702 7.58399 30.894L7.93599 30.974C8.22399 31.0273 8.46399 31.054 8.65599 31.054C9.21065 31.054 9.70132 30.91 10.128 30.622C10.5547 30.334 10.8907 29.9287 11.136 29.406C11.3707 28.8727 11.488 28.2593 11.488 27.566ZM3.98399 15.2369C3.98399 14.1062 4.24532 13.2369 4.76799 12.6289C5.29065 12.0102 6.01065 11.7009 6.92799 11.7009C7.26932 11.7009 7.60532 11.7382 7.93599 11.8129L12 12.6929L12 13.4609L7.88799 12.5489C7.57865 12.4849 7.29065 12.4529 7.02399 12.4529C6.27732 12.4529 5.70132 12.7035 5.29599 13.2049C4.87999 13.6955 4.67199 14.4049 4.67199 15.3329C4.67199 16.0689 4.83199 16.7729 5.15199 17.4449C5.47199 18.1169 5.91465 18.6769 6.47999 19.1249L12 20.3569L12 21.1249L4.15999 19.3809L4.15999 18.6769L5.51999 18.9329C5.02932 18.4315 4.65599 17.8662 4.39999 17.2369C4.13332 16.6075 3.99465 15.9409 3.98399 15.2369ZM12.176 5.49387C12.176 6.33654 12.0907 7.07254 11.92 7.70187C11.7387 8.33121 11.488 8.81654 11.168 9.15787C10.848 9.49921 10.4747 9.66987 10.048 9.66987C9.98399 9.66987 9.88799 9.65921 9.75999 9.63787L9.64799 9.62187L9.64799 8.85387L9.75999 8.88587C9.81332 8.89654 9.88799 8.90187 9.98399 8.90187C10.464 8.90187 10.8373 8.60321 11.104 8.00587C11.3707 7.39787 11.504 6.55521 11.504 5.47787C11.504 4.36854 11.3867 3.50987 11.152 2.90187C10.9067 2.28321 10.5493 1.92054 10.08 1.81387L9.95199 1.78187C9.82399 1.76054 9.73865 1.74987 9.69599 1.74987C9.35465 1.74987 9.08265 1.94187 8.87999 2.32587C8.66665 2.69921 8.51732 3.28054 8.43199 4.06987L8.23999 5.81387C8.04799 7.58454 7.47199 8.46987 6.51199 8.46987C6.38399 8.46987 6.25599 8.45387 6.12799 8.42187L5.96799 8.38987C5.31732 8.28321 4.82665 7.87254 4.49599 7.15787C4.15465 6.44321 3.98399 5.45654 3.98399 4.19787C3.98399 3.39787 4.07465 2.69387 4.25599 2.08587C4.42665 1.47787 4.67732 1.00854 5.00799 0.677874C5.32799 0.336541 5.69599 0.165874 6.11199 0.165874C6.17599 0.165874 6.27199 0.176541 6.39999 0.197874L6.51199 0.213874L6.51199 0.965874L6.39999 0.949874C6.35732 0.939207 6.28799 0.933874 6.19199 0.933874C5.73332 0.933874 5.36532 1.23254 5.08799 1.82987C4.79999 2.42721 4.65599 3.23254 4.65599 4.24587C4.65599 5.28054 4.77332 6.08587 5.00799 6.66187C5.23199 7.22721 5.56265 7.55254 5.99999 7.63787L6.14399 7.65387C6.27199 7.67521 6.36265 7.68587 6.41599 7.68587C6.73599 7.68587 6.99199 7.53121 7.18399 7.22187C7.36532 6.90187 7.49865 6.39521 7.58399 5.70187L7.79199 3.95787C7.90932 2.95521 8.11732 2.20854 8.41599 1.71787C8.70399 1.22721 9.09332 0.981874 9.58399 0.981874C9.70132 0.981874 9.83465 0.997874 9.98399 1.02987L10.144 1.06187C10.8053 1.20054 11.312 1.64854 11.664 2.40587C12.0053 3.16321 12.176 4.19254 12.176 5.49387Z" fill="black"/>
</svg>
