<svg width="108" height="30" viewBox="0 0 108 30" fill="none" xmlns="http://www.w3.org/2000/svg">
<path d="M89.2 22.24C87.7867 22.24 86.54 21.9867 85.46 21.48C84.38 20.9733 83.54 20.2667 82.94 19.36C82.34 18.44 82.04 17.3867 82.04 16.2V14.7C82.04 13.5 82.34 12.4467 82.94 11.54C83.54 10.62 84.38 9.90667 85.46 9.4C86.54 8.89333 87.7867 8.64 89.2 8.64C90.6 8.64 91.8333 8.89333 92.9 9.4C93.98 9.90667 94.8133 10.62 95.4 11.54C96 12.4467 96.3 13.5 96.3 14.7V16.2C96.3 17.4 96.0067 18.46 95.42 19.38C94.8333 20.2867 94 20.9933 92.92 21.5C91.8533 21.9933 90.6133 22.24 89.2 22.24ZM89.2 19.46C90.5333 19.46 91.5533 19.1867 92.26 18.64C92.9667 18.0933 93.32 17.3 93.32 16.26V14.66C93.32 13.6333 92.96 12.84 92.24 12.28C91.52 11.7067 90.5 11.42 89.18 11.42C87.86 11.42 86.8333 11.7067 86.1 12.28C85.38 12.84 85.02 13.6333 85.02 14.66V16.26C85.02 17.2867 85.38 18.08 86.1 18.64C86.82 19.1867 87.8533 19.46 89.2 19.46ZM105.408 22H102.408V12.7C101.848 12.94 101.181 13.06 100.408 13.06H98.2877V10.26H100.268C101.014 10.26 101.554 10.1533 101.888 9.94C102.234 9.71333 102.408 9.36 102.408 8.88H105.408V22Z" fill="black"/>
<path d="M0 15H73" stroke="black"/>
</svg>
